<svg xmlns="http://www.w3.org/2000/svg" viewBox="0 0 264.05 143.39"><defs><style>.cls-1{fill:#b6b6b7;}.cls-1,.cls-10,.cls-100,.cls-101,.cls-102,.cls-103,.cls-104,.cls-105,.cls-106,.cls-107,.cls-108,.cls-109,.cls-11,.cls-110,.cls-111,.cls-112,.cls-113,.cls-114,.cls-115,.cls-12,.cls-13,.cls-14,.cls-15,.cls-16,.cls-17,.cls-18,.cls-19,.cls-2,.cls-20,.cls-21,.cls-22,.cls-23,.cls-24,.cls-25,.cls-26,.cls-27,.cls-28,.cls-29,.cls-3,.cls-30,.cls-31,.cls-32,.cls-33,.cls-34,.cls-35,.cls-36,.cls-37,.cls-38,.cls-39,.cls-4,.cls-40,.cls-41,.cls-42,.cls-43,.cls-44,.cls-45,.cls-46,.cls-47,.cls-48,.cls-49,.cls-5,.cls-50,.cls-51,.cls-52,.cls-53,.cls-54,.cls-55,.cls-56,.cls-57,.cls-58,.cls-59,.cls-6,.cls-60,.cls-61,.cls-62,.cls-63,.cls-64,.cls-65,.cls-66,.cls-67,.cls-68,.cls-69,.cls-70,.cls-71,.cls-72,.cls-73,.cls-74,.cls-75,.cls-76,.cls-77,.cls-78,.cls-79,.cls-8,.cls-80,.cls-81,.cls-82,.cls-83,.cls-84,.cls-85,.cls-86,.cls-87,.cls-88,.cls-89,.cls-9,.cls-90,.cls-91,.cls-92,.cls-93,.cls-94,.cls-95,.cls-96,.cls-97,.cls-98,.cls-99{stroke:#5b360a;stroke-miterlimit:10;}.cls-3{fill:#2d2d2d;}.cls-4{fill:#262626;}.cls-5{fill:#191919;}.cls-6{fill:none;}.cls-7{opacity:0.6;}.cls-10,.cls-100,.cls-101,.cls-102,.cls-103,.cls-104,.cls-105,.cls-106,.cls-107,.cls-108,.cls-109,.cls-11,.cls-110,.cls-111,.cls-112,.cls-113,.cls-114,.cls-116,.cls-117,.cls-118,.cls-12,.cls-13,.cls-14,.cls-15,.cls-16,.cls-17,.cls-18,.cls-19,.cls-20,.cls-21,.cls-22,.cls-23,.cls-24,.cls-25,.cls-26,.cls-27,.cls-28,.cls-29,.cls-30,.cls-31,.cls-32,.cls-33,.cls-34,.cls-35,.cls-36,.cls-37,.cls-38,.cls-39,.cls-40,.cls-41,.cls-42,.cls-43,.cls-44,.cls-45,.cls-46,.cls-47,.cls-48,.cls-49,.cls-50,.cls-51,.cls-52,.cls-53,.cls-54,.cls-55,.cls-56,.cls-57,.cls-58,.cls-59,.cls-60,.cls-61,.cls-62,.cls-63,.cls-64,.cls-65,.cls-66,.cls-67,.cls-68,.cls-69,.cls-70,.cls-71,.cls-72,.cls-73,.cls-74,.cls-75,.cls-76,.cls-77,.cls-78,.cls-79,.cls-8,.cls-80,.cls-81,.cls-82,.cls-83,.cls-84,.cls-85,.cls-86,.cls-87,.cls-88,.cls-89,.cls-9,.cls-90,.cls-91,.cls-92,.cls-93,.cls-94,.cls-95,.cls-96,.cls-97,.cls-98,.cls-99{fill:#fff;}.cls-8{opacity:0;}.cls-9{opacity:0;}.cls-10{opacity:0.01;}.cls-11{opacity:0.01;}.cls-12{opacity:0.02;}.cls-13{opacity:0.02;}.cls-14{opacity:0.02;}.cls-15{opacity:0.03;}.cls-16{opacity:0.03;}.cls-17{opacity:0.03;}.cls-18{opacity:0.04;}.cls-19{opacity:0.04;}.cls-20{opacity:0.05;}.cls-21{opacity:0.05;}.cls-22{opacity:0.05;}.cls-23{opacity:0.06;}.cls-24{opacity:0.06;}.cls-25{opacity:0.06;}.cls-26{opacity:0.07;}.cls-27{opacity:0.07;}.cls-28{opacity:0.08;}.cls-29{opacity:0.08;}.cls-30{opacity:0.08;}.cls-31{opacity:0.09;}.cls-32{opacity:0.09;}.cls-33{opacity:0.09;}.cls-34{opacity:0.1;}.cls-35{opacity:0.1;}.cls-36{opacity:0.11;}.cls-37{opacity:0.11;}.cls-38{opacity:0.11;}.cls-39{opacity:0.12;}.cls-40{opacity:0.12;}.cls-41{opacity:0.12;}.cls-42{opacity:0.13;}.cls-43{opacity:0.13;}.cls-44{opacity:0.14;}.cls-45{opacity:0.14;}.cls-46{opacity:0.14;}.cls-47{opacity:0.15;}.cls-48{opacity:0.15;}.cls-49{opacity:0.15;}.cls-50{opacity:0.16;}.cls-51{opacity:0.16;}.cls-52{opacity:0.17;}.cls-53{opacity:0.17;}.cls-54{opacity:0.17;}.cls-55{opacity:0.18;}.cls-56{opacity:0.18;}.cls-57{opacity:0.18;}.cls-58{opacity:0.19;}.cls-59{opacity:0.19;}.cls-60{opacity:0.2;}.cls-61{opacity:0.2;}.cls-62{opacity:0.2;}.cls-63{opacity:0.21;}.cls-64{opacity:0.21;}.cls-65{opacity:0.22;}.cls-66{opacity:0.22;}.cls-67{opacity:0.22;}.cls-68{opacity:0.23;}.cls-69{opacity:0.23;}.cls-70{opacity:0.23;}.cls-71{opacity:0.24;}.cls-72{opacity:0.24;}.cls-73{opacity:0.25;}.cls-74{opacity:0.25;}.cls-75{opacity:0.25;}.cls-76{opacity:0.26;}.cls-77{opacity:0.26;}.cls-78{opacity:0.26;}.cls-79{opacity:0.27;}.cls-80{opacity:0.27;}.cls-81{opacity:0.28;}.cls-82{opacity:0.28;}.cls-83{opacity:0.28;}.cls-84{opacity:0.29;}.cls-85{opacity:0.29;}.cls-86{opacity:0.29;}.cls-87{opacity:0.3;}.cls-88{opacity:0.3;}.cls-89{opacity:0.31;}.cls-90{opacity:0.31;}.cls-91{opacity:0.31;}.cls-92{opacity:0.32;}.cls-93{opacity:0.32;}.cls-94{opacity:0.32;}.cls-95{opacity:0.33;}.cls-96{opacity:0.33;}.cls-97{opacity:0.34;}.cls-98{opacity:0.34;}.cls-99{opacity:0.34;}.cls-100{opacity:0.35;}.cls-101{opacity:0.35;}.cls-102{opacity:0.35;}.cls-103{opacity:0.36;}.cls-104{opacity:0.36;}.cls-105{opacity:0.37;}.cls-106{opacity:0.37;}.cls-107{opacity:0.37;}.cls-108{opacity:0.38;}.cls-109{opacity:0.38;}.cls-110{opacity:0.38;}.cls-111{opacity:0.39;}.cls-112{opacity:0.39;}.cls-113{opacity:0.4;}.cls-114{opacity:0.4;}.cls-115{fill:#fcfcfc;}.cls-117{font-size:24.19px;}.cls-117,.cls-118{font-family:BerlinSansFB-Reg, Berlin Sans FB;}.cls-118{font-size:8.48px;}.cls-119{font-size:1.37px;fill:#fff8f8;font-family:MyriadPro-Regular, Myriad Pro;}</style></defs><title>CelularUndervisa</title><g id="Capa_2" data-name="Capa 2"><g id="Mision_vision"><path class="cls-1" d="M189.23,107c8.46-.62,8.65-9.38,8.65-9.38l-.3-26,0-1.77-.3-26s-.4-8.76-8.86-9.18S66.22,36.16,66.22,36.16s-9.45.11-9.47,9.86c0,7.34.19,20.37.29,26.39s.14,19.07.33,26.4c.24,9.75,9.68,9.64,9.68,9.64S180.78,107.65,189.23,107Z"/><path class="cls-2" d="M187.45,106.11S192,105,192,100.91c0-3.17-.64-56.89-.7-60.06-.08-4.05-4.7-5.1-4.7-5.1s-114.9,1.16-119.4,1.34-5.26,5-5.26,5l.7,60.54s.87,4.82,5.37,4.9S187.45,106.11,187.45,106.11Z"/><path class="cls-3" d="M194.53,75.87a.68.68,0,0,1-.66-.7l-.1-8.68a.68.68,0,0,1,.64-.72h0a.68.68,0,0,1,.66.7l.11,8.69a.68.68,0,0,1-.65.71Z"/><path class="cls-4" d="M194.42,66.75a.22.22,0,0,1-.22-.23.23.23,0,0,1,.22-.24.22.22,0,0,1,.22.23A.23.23,0,0,1,194.42,66.75Z"/><path class="cls-4" d="M194.43,67.52a.23.23,0,0,1-.22-.24.24.24,0,0,1,.22-.24.23.23,0,0,1,.22.24A.24.24,0,0,1,194.43,67.52Z"/><path class="cls-4" d="M194.44,68.28a.22.22,0,0,1-.22-.23.23.23,0,0,1,.22-.24.22.22,0,0,1,.22.23A.23.23,0,0,1,194.44,68.28Z"/><path class="cls-4" d="M194.45,69.05a.23.23,0,0,1-.22-.24.22.22,0,0,1,.21-.23.24.24,0,0,1,0,.47Z"/><path class="cls-4" d="M194.46,69.81a.24.24,0,1,1,.21-.24A.21.21,0,0,1,194.46,69.81Z"/><path class="cls-4" d="M194.47,70.58a.22.22,0,0,1-.22-.23.22.22,0,0,1,.21-.24.22.22,0,0,1,.22.23A.22.22,0,0,1,194.47,70.58Z"/><path class="cls-4" d="M194.48,71.35a.23.23,0,0,1-.22-.24.22.22,0,0,1,.21-.24.24.24,0,0,1,0,.48Z"/><path class="cls-4" d="M194.49,72.11a.24.24,0,0,1,0-.47.24.24,0,0,1,0,.47Z"/><path class="cls-4" d="M194.49,72.88a.24.24,0,1,1,.22-.24A.23.23,0,0,1,194.49,72.88Z"/><path class="cls-4" d="M194.5,73.64a.22.22,0,0,1-.22-.23.23.23,0,0,1,.22-.24.22.22,0,0,1,.22.23A.23.23,0,0,1,194.5,73.64Z"/><path class="cls-4" d="M194.51,74.41a.23.23,0,0,1-.22-.23.23.23,0,0,1,.22-.24.22.22,0,0,1,.22.23A.23.23,0,0,1,194.51,74.41Z"/><path class="cls-4" d="M194.52,75.17a.22.22,0,0,1-.22-.23.22.22,0,1,1,.44,0A.22.22,0,0,1,194.52,75.17Z"/><path class="cls-5" d="M194.47,86.81A1.76,1.76,0,1,1,196.08,85,1.69,1.69,0,0,1,194.47,86.81Z"/><ellipse class="cls-5" cx="194.53" cy="91.47" rx="1.09" ry="1.18" transform="translate(-1.05 2.26) rotate(-0.66)"/><path class="cls-5" d="M194.13,56.83a.46.46,0,0,1,0-.91.46.46,0,0,1,0,.91Z"/><path class="cls-5" d="M194.16,59.6a.45.45,0,0,1-.43-.45.45.45,0,0,1,.42-.46.46.46,0,0,1,0,.91Z"/><path class="cls-6" d="M194.46,86a.87.87,0,0,1-.85-.89.89.89,0,0,1,.83-.92.87.87,0,0,1,.85.9A.86.86,0,0,1,194.46,86Z"/><path class="cls-5" d="M194.08,52.55a1.28,1.28,0,1,1,1.16-1.29A1.24,1.24,0,0,1,194.08,52.55Z"/><path class="cls-6" d="M194.07,51.93a.66.66,0,0,1,0-1.31.66.66,0,0,1,0,1.31Z"/><path class="cls-5" d="M194,47.87a.84.84,0,1,1,.77-.84A.8.8,0,0,1,194,47.87Z"/><path class="cls-6" d="M194,47.5a.45.45,0,0,1-.43-.46.44.44,0,0,1,.42-.47.45.45,0,0,1,.43.46A.45.45,0,0,1,194,47.5Z"/><g class="cls-7"><path class="cls-8" d="M195,100.1s-2.78,5.87-7.34,6.1-121.45,1.64-121.45,1.64-4.24-1.3-5.28-4.5a7.85,7.85,0,0,0,2.58.91c6.21.54,4.89.08,126.6-2.12C190.07,102.13,192,102.27,195,100.1Z"/><path class="cls-9" d="M194.93,100.12s-2.76,5.84-7.31,6.07-121.44,1.64-121.44,1.64-4.22-1.29-5.27-4.47a7.78,7.78,0,0,0,2.59.9c6.18.55,5,.09,126.53-2.1C190,102.16,192,102.28,194.93,100.12Z"/><path class="cls-10" d="M194.9,100.14s-2.75,5.79-7.29,6-121.43,1.65-121.43,1.65-4.18-1.28-5.25-4.45a7.79,7.79,0,0,0,2.6.91c6.15.54,5.19.09,126.46-2.11C190,102.17,192,102.29,194.9,100.14Z"/><path class="cls-11" d="M194.88,100.16s-2.74,5.75-7.28,6-121.42,1.66-121.42,1.66S62,106.54,61,103.39a7.89,7.89,0,0,0,2.61.91c6.12.54,5.35.08,126.4-2.11C190,102.19,192,102.31,194.88,100.16Z"/><path class="cls-12" d="M194.85,100.19s-2.73,5.71-7.25,6S66.19,107.8,66.19,107.8s-4.12-1.26-5.22-4.4a8.15,8.15,0,0,0,2.62.92c6.09.53,5.5.08,126.33-2.11C189.92,102.21,191.94,102.32,194.85,100.19Z"/><path class="cls-13" d="M194.83,100.21s-2.72,5.66-7.24,5.91-121.4,1.67-121.4,1.67-4.09-1.24-5.2-4.37a8,8,0,0,0,2.62.91c6.07.54,5.67.09,126.28-2.1C189.89,102.23,191.91,102.33,194.83,100.21Z"/><path class="cls-14" d="M194.8,100.23s-2.71,5.62-7.21,5.88S66.2,107.78,66.2,107.78s-4.07-1.23-5.19-4.34a8.08,8.08,0,0,0,2.63.91c6,.53,5.82.08,126.21-2.1C189.85,102.25,191.89,102.35,194.8,100.23Z"/><path class="cls-15" d="M194.77,100.25s-2.69,5.58-7.19,5.84S66.2,107.76,66.2,107.76s-4-1.21-5.17-4.31a8.09,8.09,0,0,0,2.64.92c6,.53,6,.08,126.15-2.1C189.82,102.27,191.86,102.36,194.77,100.25Z"/><path class="cls-16" d="M194.75,100.28s-2.69,5.53-7.18,5.8S66.2,107.75,66.2,107.75s-4-1.2-5.15-4.28a8.45,8.45,0,0,0,2.65.92c6,.52,6.13.07,126.08-2.1C189.78,102.29,191.84,102.37,194.75,100.28Z"/><path class="cls-17" d="M194.72,100.3s-2.67,5.49-7.15,5.76-121.36,1.68-121.36,1.68-4-1.19-5.14-4.25a8.38,8.38,0,0,0,2.65.91c6,.53,6.29.08,126-2.09C189.75,102.31,191.81,102.39,194.72,100.3Z"/><path class="cls-18" d="M194.7,100.32s-2.67,5.45-7.14,5.73-121.35,1.68-121.35,1.68-3.94-1.18-5.12-4.22a8.48,8.48,0,0,0,2.66.91c5.94.52,6.45.08,126-2.09C189.71,102.33,191.79,102.4,194.7,100.32Z"/><path class="cls-19" d="M194.67,100.34s-2.65,5.41-7.12,5.69-121.34,1.69-121.34,1.69-3.91-1.17-5.1-4.2a8.49,8.49,0,0,0,2.67.92c5.91.52,6.6.07,125.89-2.09C189.67,102.35,191.76,102.41,194.67,100.34Z"/><path class="cls-20" d="M194.64,100.37s-2.64,5.36-7.09,5.65-121.33,1.69-121.33,1.69-3.88-1.16-5.09-4.17a8.76,8.76,0,0,0,2.68.92c5.88.51,6.75.07,125.83-2.09A9.13,9.13,0,0,0,194.64,100.37Z"/><path class="cls-21" d="M194.62,100.39s-2.63,5.32-7.08,5.61-121.32,1.7-121.32,1.7-3.85-1.15-5.07-4.14a8.67,8.67,0,0,0,2.69.91c5.86.52,6.91.07,125.77-2.09A9.2,9.2,0,0,0,194.62,100.39Z"/><path class="cls-22" d="M194.59,100.41s-2.62,5.28-7.06,5.58-121.3,1.69-121.3,1.69-3.83-1.13-5.06-4.11a8.68,8.68,0,0,0,2.7.92c5.83.51,7.06.07,125.7-2.09A9.3,9.3,0,0,0,194.59,100.41Z"/><path class="cls-23" d="M194.57,100.43s-2.61,5.24-7,5.54-121.3,1.7-121.3,1.7-3.79-1.12-5-4.08a8.79,8.79,0,0,0,2.71.92c5.8.51,7.21.07,125.64-2.09A9.34,9.34,0,0,0,194.57,100.43Z"/><path class="cls-24" d="M194.54,100.46s-2.6,5.19-7,5.49-121.29,1.71-121.29,1.71-3.76-1.11-5-4.06a8.79,8.79,0,0,0,2.71.92c5.78.51,7.38.07,125.58-2.08A9.46,9.46,0,0,0,194.54,100.46Z"/><path class="cls-25" d="M194.51,100.48s-2.58,5.15-7,5.46-121.28,1.71-121.28,1.71-3.73-1.1-5-4a8.89,8.89,0,0,0,2.72.92c5.75.5,7.53.07,125.51-2.08A9.59,9.59,0,0,0,194.51,100.48Z"/><path class="cls-26" d="M194.49,100.5s-2.58,5.1-7,5.42-121.27,1.72-121.27,1.72-3.7-1.09-5-4a9,9,0,0,0,2.73.92c5.72.5,7.69.06,125.45-2.08A9.71,9.71,0,0,0,194.49,100.5Z"/><path class="cls-27" d="M194.46,100.52s-2.56,5.06-7,5.39-121.26,1.72-121.26,1.72-3.67-1.08-5-4a9,9,0,0,0,2.74.93c5.69.49,7.84.06,125.38-2.08A9.73,9.73,0,0,0,194.46,100.52Z"/><path class="cls-28" d="M194.44,100.54s-2.56,5-6.94,5.35c-4.55.36-121.25,1.73-121.25,1.73s-3.64-1.07-5-4a9.2,9.2,0,0,0,2.75.92c5.67.5,8,.06,125.32-2.07A9.86,9.86,0,0,0,194.44,100.54Z"/><path class="cls-29" d="M194.41,100.57s-2.54,5-6.92,5.31c-4.54.35-121.24,1.72-121.24,1.72s-3.61-1-4.94-3.91a9.2,9.2,0,0,0,2.75.92c5.65.49,8.15.06,125.26-2.07A9.91,9.91,0,0,0,194.41,100.57Z"/><path class="cls-30" d="M194.38,100.59s-2.53,4.92-6.9,5.27c-4.54.37-121.22,1.73-121.22,1.73s-3.59-1-4.93-3.89a9.21,9.21,0,0,0,2.76.93c5.62.49,8.31.06,125.2-2.07A10,10,0,0,0,194.38,100.59Z"/><path class="cls-31" d="M194.36,100.61s-2.53,4.88-6.89,5.24c-4.53.37-121.21,1.73-121.21,1.73s-3.55-1-4.91-3.86a9.63,9.63,0,0,0,2.77.93c5.59.48,8.46,0,125.13-2.07A10.18,10.18,0,0,0,194.36,100.61Z"/><path class="cls-32" d="M194.33,100.64s-2.51,4.83-6.86,5.19c-4.54.38-121.21,1.74-121.21,1.74s-3.52-1-4.89-3.83a9.74,9.74,0,0,0,2.78.93c5.56.48,8.62,0,125.07-2.07A10.3,10.3,0,0,0,194.33,100.64Z"/><path class="cls-33" d="M194.31,100.66s-2.51,4.79-6.85,5.16c-4.54.38-121.19,1.74-121.19,1.74s-3.49-1-4.88-3.81a9.53,9.53,0,0,0,2.79.93c5.53.49,8.77.06,125-2.06A10.37,10.37,0,0,0,194.31,100.66Z"/><path class="cls-34" d="M194.28,100.68s-2.49,4.75-6.82,5.12c-4.54.39-121.19,1.75-121.19,1.75s-3.46-1-4.86-3.78a9.65,9.65,0,0,0,2.79.93c5.51.48,8.94,0,124.94-2.06A10.48,10.48,0,0,0,194.28,100.68Z"/><path class="cls-35" d="M194.26,100.7s-2.49,4.71-6.81,5.09c-4.54.39-121.18,1.75-121.18,1.75s-3.43-1-4.84-3.75a9.64,9.64,0,0,0,2.8.93c5.49.47,9.09,0,124.88-2.06A10.53,10.53,0,0,0,194.26,100.7Z"/><path class="cls-36" d="M194.23,100.73s-2.47,4.66-6.79,5c-4.53.4-121.16,1.75-121.16,1.75a8.61,8.61,0,0,1-4.83-3.72,9.75,9.75,0,0,0,2.81.93c5.46.48,9.24,0,124.81-2A10.68,10.68,0,0,0,194.23,100.73Z"/><path class="cls-37" d="M194.2,100.74s-2.46,4.63-6.76,5c-4.54.4-121.16,1.75-121.16,1.75a8.61,8.61,0,0,1-4.81-3.69,9.86,9.86,0,0,0,2.82.93c5.43.47,9.4,0,124.75-2.06A10.68,10.68,0,0,0,194.2,100.74Z"/><path class="cls-38" d="M194.18,100.77s-2.45,4.58-6.75,5c-4.53.42-121.14,1.76-121.14,1.76a8.62,8.62,0,0,1-4.8-3.66,10,10,0,0,0,2.82.93c5.41.47,9.56,0,124.69-2.06A10.75,10.75,0,0,0,194.18,100.77Z"/><path class="cls-39" d="M194.15,100.79s-2.44,4.54-6.72,4.93c-4.54.43-121.14,1.77-121.14,1.77a8.64,8.64,0,0,1-4.78-3.64,10.34,10.34,0,0,0,2.83.94c5.38.46,9.71,0,124.63-2.06A10.89,10.89,0,0,0,194.15,100.79Z"/><path class="cls-40" d="M194.13,100.81s-2.43,4.49-6.71,4.9c-4.54.43-121.13,1.77-121.13,1.77a8.64,8.64,0,0,1-4.76-3.61,10.08,10.08,0,0,0,2.84.93c5.35.47,9.87,0,124.56-2A11.06,11.06,0,0,0,194.13,100.81Z"/><path class="cls-41" d="M194.1,100.84s-2.42,4.45-6.69,4.85c-4.53.44-121.11,1.77-121.11,1.77a8.64,8.64,0,0,1-4.75-3.57,10.2,10.2,0,0,0,2.85.93c5.32.46,10,0,124.5-2A11.1,11.1,0,0,0,194.1,100.84Z"/><path class="cls-42" d="M194.08,100.86s-2.41,4.4-6.68,4.82c-4.53.44-121.1,1.78-121.1,1.78a8.62,8.62,0,0,1-4.73-3.56,10.2,10.2,0,0,0,2.86.94c5.3.46,10.18,0,124.43-2A11.27,11.27,0,0,0,194.08,100.86Z"/><path class="cls-43" d="M194.05,100.88s-2.4,4.36-6.65,4.78c-4.53.45-121.09,1.78-121.09,1.78a8.59,8.59,0,0,1-4.72-3.52,10.68,10.68,0,0,0,2.87.94c5.27.45,10.33,0,124.37-2A11.42,11.42,0,0,0,194.05,100.88Z"/><path class="cls-44" d="M194,100.9s-2.38,4.32-6.63,4.75c-4.53.45-121.08,1.78-121.08,1.78a8.62,8.62,0,0,1-4.7-3.49,10.56,10.56,0,0,0,2.87.93c5.25.46,10.49,0,124.31-2A11.4,11.4,0,0,0,194,100.9Z"/><path class="cls-45" d="M194,100.92s-2.38,4.28-6.61,4.71c-4.53.46-121.08,1.79-121.08,1.79A8.61,8.61,0,0,1,61.63,104a10.43,10.43,0,0,0,2.88.94c5.22.45,10.65,0,124.25-2A11.6,11.6,0,0,0,194,100.92Z"/><path class="cls-46" d="M194,101s-2.36,4.23-6.59,4.67c-4.53.46-121.07,1.79-121.07,1.79A8.65,8.65,0,0,1,61.65,104a10.92,10.92,0,0,0,2.89.94c5.19.45,10.8,0,124.18-2A11.78,11.78,0,0,0,194,101Z"/><path class="cls-47" d="M194,101s-2.36,4.19-6.58,4.63c-4.52.47-121,1.8-121,1.8A8.65,8.65,0,0,1,61.67,104a10.66,10.66,0,0,0,2.9.94c5.16.45,11,0,124.12-2A11.83,11.83,0,0,0,194,101Z"/><path class="cls-48" d="M193.92,101s-2.34,4.15-6.55,4.6c-4.53.48-121,1.79-121,1.79A8.61,8.61,0,0,1,61.69,104a10.78,10.78,0,0,0,2.91.94c5.14.45,11.11,0,124.05-2A12,12,0,0,0,193.92,101Z"/><path class="cls-49" d="M193.89,101s-2.33,4.1-6.53,4.55c-4.52.49-121,1.8-121,1.8A8.66,8.66,0,0,1,61.71,104a10.92,10.92,0,0,0,2.91.94c5.12.44,11.27,0,124-2A12.18,12.18,0,0,0,193.89,101Z"/><path class="cls-50" d="M193.87,101s-2.32,4.06-6.52,4.51c-4.52.5-121,1.81-121,1.81a8.65,8.65,0,0,1-4.6-3.33,10.78,10.78,0,0,0,2.92,1c5.09.44,11.43,0,123.93-2A12.22,12.22,0,0,0,193.87,101Z"/><path class="cls-51" d="M193.84,101.06s-2.31,4-6.49,4.48c-4.53.5-121,1.81-121,1.81a8.69,8.69,0,0,1-4.58-3.3,11.29,11.29,0,0,0,2.93,1c5.06.43,11.58,0,123.87-2A12.27,12.27,0,0,0,193.84,101.06Z"/><path class="cls-52" d="M193.82,101.08s-2.3,4-6.48,4.44c-4.52.51-121,1.82-121,1.82a8.71,8.71,0,0,1-4.57-3.27,11.14,11.14,0,0,0,2.94.94c5,.44,11.73,0,123.8-2A12.47,12.47,0,0,0,193.82,101.08Z"/><path class="cls-53" d="M193.79,101.1s-2.29,3.94-6.46,4.41c-4.52.51-121,1.82-121,1.82a8.72,8.72,0,0,1-4.55-3.24,11.26,11.26,0,0,0,2.95.94c5,.43,11.89,0,123.73-2A12.49,12.49,0,0,0,193.79,101.1Z"/><path class="cls-54" d="M193.76,101.13s-2.27,3.89-6.43,4.36c-4.52.52-121,1.83-121,1.83a8.75,8.75,0,0,1-4.54-3.22,11.28,11.28,0,0,0,3,1c5,.43,12,0,123.68-2A12.68,12.68,0,0,0,193.76,101.13Z"/><path class="cls-55" d="M193.74,101.15s-2.27,3.84-6.42,4.33c-4.52.53-121,1.82-121,1.82a8.71,8.71,0,0,1-4.52-3.18,11.53,11.53,0,0,0,3,.94c4.95.43,12.21,0,123.61-2A12.93,12.93,0,0,0,193.74,101.15Z"/><path class="cls-56" d="M193.71,101.17s-2.25,3.8-6.4,4.29c-4.51.54-121,1.83-121,1.83a8.76,8.76,0,0,1-4.5-3.15,11.5,11.5,0,0,0,3,.94c4.93.42,12.36,0,123.55-2A13.07,13.07,0,0,0,193.71,101.17Z"/><path class="cls-57" d="M193.69,101.19s-2.25,3.76-6.38,4.26c-4.52.54-120.95,1.83-120.95,1.83a8.76,8.76,0,0,1-4.49-3.13,11.5,11.5,0,0,0,3,.95c4.9.42,12.51,0,123.48-2A13.15,13.15,0,0,0,193.69,101.19Z"/><path class="cls-58" d="M193.66,101.22a9.47,9.47,0,0,1-6.36,4.21c-4.51.55-120.94,1.84-120.94,1.84a8.7,8.7,0,0,1-4.47-3.1,11.76,11.76,0,0,0,3,.94c4.87.43,12.67,0,123.42-2A13.36,13.36,0,0,0,193.66,101.22Z"/><path class="cls-59" d="M193.63,101.24a9.47,9.47,0,0,1-6.33,4.18c-4.52.55-120.94,1.84-120.94,1.84a8.69,8.69,0,0,1-4.45-3.08,11.77,11.77,0,0,0,3,.95c4.85.42,12.83,0,123.36-2A13.37,13.37,0,0,0,193.63,101.24Z"/><path class="cls-60" d="M193.61,101.26a9.48,9.48,0,0,1-6.32,4.14c-4.52.56-120.92,1.85-120.92,1.85a8.74,8.74,0,0,1-4.44-3,11.9,11.9,0,0,0,3,1c4.82.42,13,0,123.3-2A13.58,13.58,0,0,0,193.61,101.26Z"/><path class="cls-61" d="M193.58,101.29a9.46,9.46,0,0,1-6.3,4.1c-4.51.56-120.91,1.84-120.91,1.84a8.7,8.7,0,0,1-4.42-3,11.88,11.88,0,0,0,3,1c4.79.41,13.14,0,123.23-2A13.87,13.87,0,0,0,193.58,101.29Z"/><path class="cls-62" d="M193.56,101.31a9.47,9.47,0,0,1-6.28,4.06c-4.52.58-120.9,1.85-120.9,1.85a8.74,8.74,0,0,1-4.41-3,11.87,11.87,0,0,0,3,1c4.77.41,13.29,0,123.17-2A13.89,13.89,0,0,0,193.56,101.31Z"/><path class="cls-63" d="M193.53,101.33a9.44,9.44,0,0,1-6.26,4c-4.51.58-120.89,1.85-120.89,1.85a8.75,8.75,0,0,1-4.39-3,12.13,12.13,0,0,0,3,1c4.74.41,13.45,0,123.1-2A14.11,14.11,0,0,0,193.53,101.33Z"/><path class="cls-64" d="M193.5,101.35a9.42,9.42,0,0,1-6.24,4c-4.51.59-120.88,1.86-120.88,1.86A8.76,8.76,0,0,1,62,104.27a12.26,12.26,0,0,0,3,1c4.71.4,13.6,0,123-2A14.15,14.15,0,0,0,193.5,101.35Z"/><path class="cls-65" d="M193.48,101.37a9.4,9.4,0,0,1-6.22,3.95c-4.51.6-120.87,1.87-120.87,1.87A8.8,8.8,0,0,1,62,104.28a12.28,12.28,0,0,0,3,1c4.69.4,13.76,0,123-2A14.22,14.22,0,0,0,193.48,101.37Z"/><path class="cls-66" d="M193.45,101.4a9.42,9.42,0,0,1-6.2,3.91c-4.51.6-120.86,1.87-120.86,1.87A8.87,8.87,0,0,1,62,104.3a12.52,12.52,0,0,0,3.06,1c4.66.4,13.92,0,122.91-2A14.48,14.48,0,0,0,193.45,101.4Z"/><path class="cls-67" d="M193.43,101.42a9.4,9.4,0,0,1-6.18,3.87c-4.51.61-120.86,1.88-120.86,1.88a8.88,8.88,0,0,1-4.32-2.85,12.52,12.52,0,0,0,3.06,1c4.63.4,14.07,0,122.85-2A14.77,14.77,0,0,0,193.43,101.42Z"/><path class="cls-68" d="M193.4,101.44a9.41,9.41,0,0,1-6.16,3.84c-4.51.61-120.84,1.87-120.84,1.87a8.81,8.81,0,0,1-4.31-2.82,12.51,12.51,0,0,0,3.07,1c4.6.39,14.22,0,122.78-2A14.74,14.74,0,0,0,193.4,101.44Z"/><path class="cls-69" d="M193.37,101.47a9.37,9.37,0,0,1-6.14,3.79c-4.51.62-120.83,1.88-120.83,1.88a8.83,8.83,0,0,1-4.29-2.79,12.36,12.36,0,0,0,3.07,1c4.58.4,14.39,0,122.73-2A15.05,15.05,0,0,0,193.37,101.47Z"/><path class="cls-70" d="M193.35,101.49a9.42,9.42,0,0,1-6.12,3.76c-4.51.63-120.82,1.88-120.82,1.88a8.8,8.8,0,0,1-4.28-2.76,13,13,0,0,0,3.08.95c4.56.39,14.54,0,122.66-2A15.32,15.32,0,0,0,193.35,101.49Z"/><path class="cls-71" d="M193.32,101.51a9.37,9.37,0,0,1-6.1,3.72c-4.51.64-120.81,1.89-120.81,1.89a8.79,8.79,0,0,1-4.26-2.74,12.78,12.78,0,0,0,3.09,1c4.53.39,14.7,0,122.6-2A15.32,15.32,0,0,0,193.32,101.51Z"/><path class="cls-72" d="M193.3,101.53a9.47,9.47,0,0,1-6.09,3.69c-4.5.64-120.8,1.89-120.8,1.89a9,9,0,0,1-4.24-2.71,12.91,12.91,0,0,0,3.1,1c4.5.38,14.85,0,122.53-2A15.6,15.6,0,0,0,193.3,101.53Z"/><path class="cls-73" d="M193.27,101.55a9.38,9.38,0,0,1-6.06,3.65c-4.51.65-120.79,1.9-120.79,1.9a8.88,8.88,0,0,1-4.23-2.68,13,13,0,0,0,3.11,1c4.47.38,15,0,122.47-2A15.85,15.85,0,0,0,193.27,101.55Z"/><path class="cls-74" d="M193.25,101.58a9.46,9.46,0,0,1-6.05,3.6c-4.5.66-120.78,1.91-120.78,1.91a8.87,8.87,0,0,1-4.21-2.66,12.74,12.74,0,0,0,3.11,1c4.45.38,15.17,0,122.41-2A16,16,0,0,0,193.25,101.58Z"/><path class="cls-75" d="M193.22,101.6a9.45,9.45,0,0,1-6,3.57c-4.5.66-120.77,1.9-120.77,1.9a8.86,8.86,0,0,1-4.19-2.62,13.35,13.35,0,0,0,3.12,1c4.42.38,15.32,0,122.35-2A16.18,16.18,0,0,0,193.22,101.6Z"/><path class="cls-76" d="M193.19,101.62a9.43,9.43,0,0,1-6,3.53c-4.5.67-120.76,1.91-120.76,1.91a8.89,8.89,0,0,1-4.18-2.59,13.32,13.32,0,0,0,3.13,1c4.4.37,15.48,0,122.28-2A16.46,16.46,0,0,0,193.19,101.62Z"/><path class="cls-77" d="M193.17,101.64a9.47,9.47,0,0,1-6,3.5c-4.5.68-120.74,1.91-120.74,1.91a8.93,8.93,0,0,1-4.17-2.57,13,13,0,0,0,3.14,1c4.37.38,15.63,0,122.21-2A16.57,16.57,0,0,0,193.17,101.64Z"/><path class="cls-78" d="M193.14,101.67a9.47,9.47,0,0,1-6,3.45c-4.49.69-120.73,1.92-120.73,1.92a9,9,0,0,1-4.15-2.54,13.6,13.6,0,0,0,3.15,1c4.34.37,15.78,0,122.15-2A16.89,16.89,0,0,0,193.14,101.67Z"/><path class="cls-79" d="M193.12,101.69a9.51,9.51,0,0,1-6,3.42c-4.5.69-120.73,1.92-120.73,1.92a9,9,0,0,1-4.14-2.51,13.92,13.92,0,0,0,3.16,1c4.32.36,16,0,122.09-2A17.28,17.28,0,0,0,193.12,101.69Z"/><path class="cls-80" d="M193.09,101.71a9.51,9.51,0,0,1-5.93,3.38c-4.5.7-120.72,1.93-120.72,1.93a9,9,0,0,1-4.11-2.49,13.76,13.76,0,0,0,3.16,1c4.29.36,16.1,0,122-2A17.51,17.51,0,0,0,193.09,101.71Z"/><path class="cls-81" d="M193.06,101.73a9.5,9.5,0,0,1-5.9,3.35c-4.5.7-120.71,1.93-120.71,1.93a9,9,0,0,1-4.1-2.46,13.37,13.37,0,0,0,3.17,1c4.26.37,16.25,0,122-2A17.52,17.52,0,0,0,193.06,101.73Z"/><path class="cls-82" d="M193,101.76a9.56,9.56,0,0,1-5.89,3.3c-4.5.71-120.7,1.93-120.7,1.93a9,9,0,0,1-4.09-2.43,14,14,0,0,0,3.19,1c4.24.36,16.41,0,121.9-2A17.79,17.79,0,0,0,193,101.76Z"/><path class="cls-83" d="M193,101.78a9.56,9.56,0,0,1-5.87,3.27c-4.49.72-120.68,1.93-120.68,1.93a9.07,9.07,0,0,1-4.08-2.4,14.15,14.15,0,0,0,3.2,1c4.21.36,16.56,0,121.83-2A17.8,17.8,0,0,0,193,101.78Z"/><path class="cls-84" d="M193,101.8a9.57,9.57,0,0,1-5.85,3.23c-4.49.73-120.67,1.94-120.67,1.94a9.09,9.09,0,0,1-4.06-2.37,14.29,14.29,0,0,0,3.21,1c4.18.35,16.72,0,121.77-2A18,18,0,0,0,193,101.8Z"/><path class="cls-85" d="M193,101.82a9.62,9.62,0,0,1-5.83,3.2c-4.5.73-120.67,1.94-120.67,1.94a9.14,9.14,0,0,1-4-2.35,13.94,13.94,0,0,0,3.21,1c4.16.36,16.88,0,121.71-2A18.48,18.48,0,0,0,193,101.82Z"/><path class="cls-86" d="M192.93,101.85a9.65,9.65,0,0,1-5.81,3.15c-4.49.74-120.65,2-120.65,2a9,9,0,0,1-4-2.32,14.62,14.62,0,0,0,3.22,1c4.13.35,17,0,121.65-2A18.53,18.53,0,0,0,192.93,101.85Z"/><path class="cls-87" d="M192.91,101.87a9.7,9.7,0,0,1-5.79,3.12c-4.5.74-120.65,2-120.65,2a9.19,9.19,0,0,1-4-2.29,14.58,14.58,0,0,0,3.23,1c4.1.35,17.19,0,121.58-2A19,19,0,0,0,192.91,101.87Z"/><path class="cls-88" d="M192.88,101.89a9.72,9.72,0,0,1-5.77,3.08c-4.49.76-120.64,2-120.64,2a9,9,0,0,1-4-2.27,14,14,0,0,0,3.23,1c4.07.35,17.34,0,121.52-1.95A19.26,19.26,0,0,0,192.88,101.89Z"/><path class="cls-89" d="M192.86,101.91a9.74,9.74,0,0,1-5.76,3c-4.49.77-120.62,2-120.62,2a9,9,0,0,1-4-2.23,14.32,14.32,0,0,0,3.25,1c4,.34,17.5,0,121.45-2A19.38,19.38,0,0,0,192.86,101.91Z"/><path class="cls-90" d="M192.83,101.94a9.82,9.82,0,0,1-5.73,3c-4.49.77-120.62,2-120.62,2a9,9,0,0,1-4-2.2,15.07,15.07,0,0,0,3.25,1c4,.34,17.66,0,121.4-2A19.81,19.81,0,0,0,192.83,101.94Z"/><path class="cls-91" d="M192.8,102a9.8,9.8,0,0,1-5.71,3c-4.49.78-120.6,2-120.6,2a9.12,9.12,0,0,1-3.95-2.17,15.22,15.22,0,0,0,3.26,1c4,.34,17.81,0,121.33-2A20.21,20.21,0,0,0,192.8,102Z"/><path class="cls-92" d="M192.78,102a9.93,9.93,0,0,1-5.7,2.93c-4.48.78-120.59,2-120.59,2a9.11,9.11,0,0,1-3.93-2.15,15,15,0,0,0,3.27,1c4,.33,18,0,121.27-2A20,20,0,0,0,192.78,102Z"/><path class="cls-93" d="M192.75,102a9.91,9.91,0,0,1-5.67,2.89c-4.49.79-120.59,2-120.59,2a9.13,9.13,0,0,1-3.91-2.12,15.33,15.33,0,0,0,3.28,1c3.94.34,18.12,0,121.2-1.94A20.63,20.63,0,0,0,192.75,102Z"/><path class="cls-94" d="M192.73,102a10.07,10.07,0,0,1-5.66,2.85c-4.48.79-120.57,2-120.57,2a9.17,9.17,0,0,1-3.9-2.1,15.3,15.3,0,0,0,3.29,1c3.91.33,18.27,0,121.13-1.94A21.25,21.25,0,0,0,192.73,102Z"/><path class="cls-95" d="M192.7,102.05a10.06,10.06,0,0,1-5.63,2.81c-4.49.81-120.57,2-120.57,2a9.07,9.07,0,0,1-3.88-2.06,15.5,15.5,0,0,0,3.29,1c3.89.32,18.44,0,121.08-2A21,21,0,0,0,192.7,102.05Z"/><path class="cls-96" d="M192.68,102.07a10.21,10.21,0,0,1-5.62,2.78c-4.49.81-120.55,2-120.55,2a9.15,9.15,0,0,1-3.87-2,15.23,15.23,0,0,0,3.3,1c3.86.33,18.59,0,121-1.94A21.47,21.47,0,0,0,192.68,102.07Z"/><path class="cls-97" d="M192.65,102.09a10.21,10.21,0,0,1-5.6,2.74c-4.48.82-120.54,2-120.54,2a9.13,9.13,0,0,1-3.85-2,15,15,0,0,0,3.31,1c3.84.32,18.75,0,121-1.94A21.91,21.91,0,0,0,192.65,102.09Z"/><path class="cls-98" d="M192.62,102.12a10.34,10.34,0,0,1-5.57,2.7c-4.49.82-120.54,2-120.54,2a9.08,9.08,0,0,1-3.82-2,15.61,15.61,0,0,0,3.31,1c3.81.32,18.9,0,120.88-1.94A22,22,0,0,0,192.62,102.12Z"/><path class="cls-99" d="M192.6,102.14A10.33,10.33,0,0,1,187,104.8c-4.48.84-120.52,2-120.52,2a9.22,9.22,0,0,1-3.82-2,15.53,15.53,0,0,0,3.32,1c3.79.32,19.06,0,120.83-1.93A22.6,22.6,0,0,0,192.6,102.14Z"/><path class="cls-100" d="M192.57,102.16a10.4,10.4,0,0,1-5.54,2.62c-4.47.85-120.51,2-120.51,2a9.19,9.19,0,0,1-3.8-1.93,15.5,15.5,0,0,0,3.33,1c3.76.32,19.22,0,120.76-1.93A23,23,0,0,0,192.57,102.16Z"/><path class="cls-101" d="M192.55,102.18a10.53,10.53,0,0,1-5.52,2.59c-4.48.86-120.51,2-120.51,2a9.27,9.27,0,0,1-3.78-1.9,15.65,15.65,0,0,0,3.34,1c3.73.31,19.37,0,120.7-1.93A23.11,23.11,0,0,0,192.55,102.18Z"/><path class="cls-102" d="M192.52,102.21a10.65,10.65,0,0,1-5.5,2.54c-4.48.87-120.49,2-120.49,2a8.94,8.94,0,0,1-3.77-1.87,16.26,16.26,0,0,0,3.35,1c3.7.31,19.53,0,120.63-1.93A23.73,23.73,0,0,0,192.52,102.21Z"/><path class="cls-103" d="M192.49,102.23a10.83,10.83,0,0,1-5.48,2.51c-4.47.87-120.48,2-120.48,2a8.94,8.94,0,0,1-3.75-1.84,16.41,16.41,0,0,0,3.36,1c3.68.3,19.68,0,120.57-1.93A24.26,24.26,0,0,0,192.49,102.23Z"/><path class="cls-104" d="M192.47,102.25a11,11,0,0,1-5.46,2.47c-4.48.88-120.47,2-120.47,2a9,9,0,0,1-3.74-1.81,16,16,0,0,0,3.36,1c3.66.31,19.84,0,120.51-1.92A24.27,24.27,0,0,0,192.47,102.25Z"/><path class="cls-105" d="M192.44,102.27a11,11,0,0,1-5.44,2.44c-4.47.88-120.46,2-120.46,2A9,9,0,0,1,62.82,105a16.77,16.77,0,0,0,3.37,1c3.63.3,20,0,120.45-1.92A24.83,24.83,0,0,0,192.44,102.27Z"/><path class="cls-106" d="M192.42,102.29a11.29,11.29,0,0,1-5.42,2.4c-4.48.89-120.46,2-120.46,2a9,9,0,0,1-3.7-1.76,16.74,16.74,0,0,0,3.38,1c3.6.3,20.15,0,120.38-1.92A25.42,25.42,0,0,0,192.42,102.29Z"/><path class="cls-107" d="M192.39,102.32a11.47,11.47,0,0,1-5.4,2.36c-4.47.89-120.44,2-120.44,2A9,9,0,0,1,62.86,105a16.9,16.9,0,0,0,3.39,1c3.57.29,20.3,0,120.31-1.92A25.69,25.69,0,0,0,192.39,102.32Z"/><path class="cls-108" d="M192.36,102.34a11.62,11.62,0,0,1-5.38,2.32c-4.47.91-120.43,2-120.43,2a9,9,0,0,1-3.67-1.7,17,17,0,0,0,3.4,1c3.54.3,20.46,0,120.25-1.92A25.82,25.82,0,0,0,192.36,102.34Z"/><path class="cls-109" d="M192.34,102.36a11.84,11.84,0,0,1-5.36,2.29c-4.47.91-120.43,2-120.43,2A8.87,8.87,0,0,1,62.9,105a17,17,0,0,0,3.41,1c3.51.29,20.61,0,120.18-1.92A26.61,26.61,0,0,0,192.34,102.36Z"/><path class="cls-110" d="M192.31,102.38a12,12,0,0,1-5.34,2.25c-4.47.92-120.41,2-120.41,2s-1.18-.06-3.64-1.64a17.17,17.17,0,0,0,3.42,1c3.48.29,20.77,0,120.12-1.92A26.45,26.45,0,0,0,192.31,102.38Z"/><path class="cls-111" d="M192.29,102.41a12.37,12.37,0,0,1-5.33,2.21c-4.47.92-120.4,2-120.4,2s-1.14,0-3.62-1.61a16.89,16.89,0,0,0,3.42,1c3.47.29,20.93,0,120.06-1.91A27.58,27.58,0,0,0,192.29,102.41Z"/><path class="cls-112" d="M192.26,102.43a12.58,12.58,0,0,1-5.3,2.17c-4.47.93-120.39,2.05-120.39,2.05s-1.12,0-3.61-1.59a16.86,16.86,0,0,0,3.43,1c3.44.28,21.08,0,120-1.91A28.11,28.11,0,0,0,192.26,102.43Z"/><path class="cls-113" d="M192.23,102.45a12.73,12.73,0,0,1-5.28,2.13c-4.47.94-120.38,2.06-120.38,2.06s-1.09,0-3.59-1.56a17.5,17.5,0,0,0,3.44,1c3.41.28,21.24,0,119.93-1.91A28.11,28.11,0,0,0,192.23,102.45Z"/><path class="cls-114" d="M192.21,102.47a13.17,13.17,0,0,1-5.27,2.1c-4.46.94-120.37,2.05-120.37,2.05s-1,0-3.57-1.53a17.46,17.46,0,0,0,3.45,1c3.38.27,21.39,0,119.87-1.91A28.83,28.83,0,0,0,192.21,102.47Z"/></g><g class="cls-7"><path class="cls-8" d="M194.27,41.42s-2.9-5.81-7.47-5.93S65.35,36.66,65.35,36.66s-4.21,1.4-5.18,4.63a7.76,7.76,0,0,1,2.56-1c6.19-.69,4.88-.2,126.61-.82C189.34,39.5,191.31,39.32,194.27,41.42Z"/><path class="cls-9" d="M194.25,41.4s-2.9-5.77-7.45-5.9S65.35,36.67,65.35,36.67s-4.18,1.39-5.16,4.6a8,8,0,0,1,2.57-1c6.16-.68,5-.2,126.54-.82C189.3,39.48,191.28,39.31,194.25,41.4Z"/><path class="cls-10" d="M194.22,41.38s-2.88-5.73-7.43-5.86S65.36,36.69,65.36,36.69s-4.16,1.37-5.15,4.57a7.85,7.85,0,0,1,2.58-1c6.13-.69,5.19-.21,126.48-.83C189.27,39.46,191.26,39.3,194.22,41.38Z"/><path class="cls-11" d="M194.2,41.36s-2.88-5.69-7.41-5.82S65.36,36.7,65.36,36.7s-4.12,1.36-5.13,4.54a8,8,0,0,1,2.58-1c6.11-.68,5.35-.21,126.42-.83C189.23,39.44,191.23,39.28,194.2,41.36Z"/><path class="cls-12" d="M194.17,41.34s-2.86-5.65-7.39-5.79S65.36,36.71,65.36,36.71s-4.09,1.35-5.11,4.51a8.05,8.05,0,0,1,2.59-1c6.09-.68,5.51-.21,126.35-.83C189.19,39.42,191.21,39.27,194.17,41.34Z"/><path class="cls-13" d="M194.14,41.31s-2.85-5.6-7.37-5.74-121.4,1.15-121.4,1.15-4.07,1.34-5.1,4.48a8,8,0,0,1,2.6-1c6.06-.67,5.66-.21,126.29-.82C189.16,39.41,191.18,39.26,194.14,41.31Z"/><path class="cls-14" d="M194.12,41.29s-2.84-5.56-7.35-5.71-121.4,1.15-121.4,1.15-4,1.33-5.08,4.46a8.06,8.06,0,0,1,2.61-1c6-.67,5.81-.21,126.22-.82C189.12,39.39,191.16,39.24,194.12,41.29Z"/><path class="cls-15" d="M194.09,41.27s-2.83-5.51-7.33-5.67S65.38,36.74,65.38,36.74s-4,1.31-5.07,4.43a8.24,8.24,0,0,1,2.62-1c6-.67,6-.22,126.16-.83C189.09,39.37,191.13,39.23,194.09,41.27Z"/><path class="cls-16" d="M194.06,41.25s-2.81-5.47-7.31-5.64S65.38,36.75,65.38,36.75s-4,1.3-5,4.4a8.35,8.35,0,0,1,2.62-1c6-.67,6.13-.22,126.1-.83C189.05,39.35,191.11,39.22,194.06,41.25Z"/><path class="cls-17" d="M194,41.23s-2.8-5.43-7.29-5.6S65.38,36.77,65.38,36.77s-3.94,1.28-5,4.37a8.26,8.26,0,0,1,2.63-1c6-.66,6.28-.22,126-.83C189,39.33,191.08,39.21,194,41.23Z"/><path class="cls-18" d="M194,41.2s-2.79-5.38-7.27-5.56S65.39,36.78,65.39,36.78s-3.92,1.27-5,4.34a8.36,8.36,0,0,1,2.64-1c5.92-.66,6.44-.22,126-.83C189,39.31,191.05,39.19,194,41.2Z"/><path class="cls-19" d="M194,41.18s-2.77-5.34-7.24-5.52S65.39,36.79,65.39,36.79s-3.88,1.26-5,4.31a8.56,8.56,0,0,1,2.66-1c5.89-.65,6.59-.22,125.9-.83C188.94,39.29,191,39.18,194,41.18Z"/><path class="cls-20" d="M194,41.16s-2.77-5.3-7.23-5.48S65.4,36.8,65.4,36.8s-3.86,1.25-5,4.29a8.58,8.58,0,0,1,2.65-1c5.87-.66,6.75-.23,125.85-.83A9.17,9.17,0,0,1,194,41.16Z"/><path class="cls-21" d="M193.93,41.14s-2.75-5.26-7.21-5.45S65.4,36.81,65.4,36.81s-3.83,1.24-5,4.26a8.56,8.56,0,0,1,2.66-1c5.85-.65,6.9-.23,125.78-.83A9.27,9.27,0,0,1,193.93,41.14Z"/><path class="cls-22" d="M193.91,41.12s-2.75-5.22-7.19-5.41S65.4,36.82,65.4,36.82s-3.79,1.22-5,4.23a8.77,8.77,0,0,1,2.68-1c5.82-.65,7.06-.23,125.72-.83A9.31,9.31,0,0,1,193.91,41.12Z"/><path class="cls-23" d="M193.88,41.1s-2.73-5.18-7.17-5.38-121.3,1.11-121.3,1.11S61.64,38,60.46,41a8.87,8.87,0,0,1,2.69-1c5.79-.64,7.21-.23,125.65-.83A9.41,9.41,0,0,1,193.88,41.1Z"/><path class="cls-24" d="M193.85,41.07s-2.72-5.13-7.14-5.33-121.3,1.11-121.3,1.11S61.68,38,60.48,41a8.9,8.9,0,0,1,2.69-1c5.77-.64,7.38-.23,125.6-.83A9.55,9.55,0,0,1,193.85,41.07Z"/><path class="cls-25" d="M193.82,41.05s-2.7-5.09-7.12-5.3S65.42,36.86,65.42,36.86,61.71,38,60.5,41a9.1,9.1,0,0,1,2.7-1c5.74-.64,7.53-.24,125.53-.84A9.54,9.54,0,0,1,193.82,41.05Z"/><path class="cls-26" d="M193.8,41s-2.7-5-7.11-5.26-121.27,1.1-121.27,1.1S61.74,38,60.52,41a9.21,9.21,0,0,1,2.71-1c5.71-.64,7.68-.24,125.46-.83A9.63,9.63,0,0,1,193.8,41Z"/><path class="cls-27" d="M193.77,41s-2.68-5-7.08-5.23c-4.55-.23-121.27,1.1-121.27,1.1S61.78,38,60.54,41a9.1,9.1,0,0,1,2.72-1c5.68-.63,7.84-.24,125.4-.83A9.72,9.72,0,0,1,193.77,41Z"/><path class="cls-28" d="M193.75,41s-2.68-5-7.07-5.19c-4.55-.25-121.25,1.09-121.25,1.09S61.81,38,60.56,41a9.21,9.21,0,0,1,2.73-1c5.65-.63,8-.24,125.33-.83A9.89,9.89,0,0,1,193.75,41Z"/><path class="cls-29" d="M193.72,41s-2.66-4.9-7-5.14c-4.55-.26-121.25,1.08-121.25,1.08s-3.58,1.13-4.85,4a9.34,9.34,0,0,1,2.73-1c5.63-.62,8.15-.24,125.28-.83A9.9,9.9,0,0,1,193.72,41Z"/><path class="cls-30" d="M193.69,40.94s-2.65-4.86-7-5.11c-4.55-.26-121.23,1.08-121.23,1.08s-3.56,1.12-4.84,4a9.32,9.32,0,0,1,2.74-1c5.61-.62,8.31-.26,125.21-.84A10,10,0,0,1,193.69,40.94Z"/><path class="cls-31" d="M193.67,40.92s-2.64-4.82-7-5.07c-4.54-.27-121.22,1.08-121.22,1.08s-3.53,1.1-4.82,4a9.43,9.43,0,0,1,2.75-1c5.58-.62,8.46-.25,125.15-.84A10.18,10.18,0,0,1,193.67,40.92Z"/><path class="cls-32" d="M193.64,40.9s-2.63-4.78-7-5c-4.55-.27-121.22,1.08-121.22,1.08S62,38,60.64,40.88a9.56,9.56,0,0,1,2.75-1c5.56-.62,8.62-.26,125.09-.83A10.11,10.11,0,0,1,193.64,40.9Z"/><path class="cls-33" d="M193.61,40.88s-2.61-4.74-7-5C182.11,35.6,65.45,37,65.45,37S62,38,60.66,40.86a9.67,9.67,0,0,1,2.76-1c5.53-.61,8.78-.26,125-.83A10.22,10.22,0,0,1,193.61,40.88Z"/><path class="cls-34" d="M193.59,40.86s-2.6-4.7-6.94-5C182.1,35.61,65.45,37,65.45,37S62,38,60.68,40.85a9.68,9.68,0,0,1,2.77-1c5.5-.6,8.93-.26,125-.83A10.39,10.39,0,0,1,193.59,40.86Z"/><path class="cls-35" d="M193.56,40.83s-2.59-4.64-6.92-4.92C182.1,35.62,65.45,37,65.45,37S62.05,38,60.7,40.83a9.76,9.76,0,0,1,2.78-1c5.47-.61,9.08-.27,124.89-.84A10.55,10.55,0,0,1,193.56,40.83Z"/><path class="cls-36" d="M193.53,40.81s-2.57-4.6-6.9-4.89C182.09,35.63,65.46,37,65.46,37s-3.38,1-4.74,3.83a9.88,9.88,0,0,1,2.79-1c5.44-.6,9.24-.27,124.83-.84A10.55,10.55,0,0,1,193.53,40.81Z"/><path class="cls-37" d="M193.51,40.79s-2.57-4.56-6.88-4.85C182.08,35.64,65.47,37,65.47,37a8.63,8.63,0,0,0-4.73,3.81,9.91,9.91,0,0,1,2.79-1c5.42-.6,9.4-.27,124.77-.84A10.74,10.74,0,0,1,193.51,40.79Z"/><path class="cls-38" d="M193.48,40.77s-2.55-4.52-6.86-4.81c-4.54-.31-121.15,1-121.15,1a8.63,8.63,0,0,0-4.71,3.78,10,10,0,0,1,2.8-1c5.39-.59,9.55-.27,124.7-.84A10.87,10.87,0,0,1,193.48,40.77Z"/><path class="cls-39" d="M193.46,40.75s-2.55-4.48-6.84-4.78C182.07,35.65,65.47,37,65.47,37a8.62,8.62,0,0,0-4.69,3.74,10,10,0,0,1,2.81-1c5.36-.59,9.71-.27,124.64-.83A11,11,0,0,1,193.46,40.75Z"/><path class="cls-40" d="M193.43,40.72s-2.53-4.43-6.82-4.73c-4.54-.33-121.13,1-121.13,1a8.62,8.62,0,0,0-4.68,3.72,9.79,9.79,0,0,1,2.82-1c5.34-.59,9.86-.28,124.57-.84A11,11,0,0,1,193.43,40.72Z"/><path class="cls-41" d="M193.4,40.7s-2.52-4.39-6.8-4.7c-4.54-.33-121.12,1-121.12,1a8.63,8.63,0,0,0-4.66,3.69,10.26,10.26,0,0,1,2.82-1c5.32-.59,10-.28,124.52-.84A11.13,11.13,0,0,1,193.4,40.7Z"/><path class="cls-42" d="M193.38,40.68s-2.51-4.35-6.78-4.66c-4.54-.34-121.12,1-121.12,1a8.58,8.58,0,0,0-4.64,3.66,10.37,10.37,0,0,1,2.83-1c5.29-.58,10.18-.28,124.45-.84A11.31,11.31,0,0,1,193.38,40.68Z"/><path class="cls-43" d="M193.35,40.66s-2.5-4.31-6.76-4.63c-4.54-.34-121.1,1-121.1,1a8.62,8.62,0,0,0-4.63,3.63,10.49,10.49,0,0,1,2.84-1c5.26-.58,10.33-.28,124.39-.84A11.31,11.31,0,0,1,193.35,40.66Z"/><path class="cls-44" d="M193.32,40.64s-2.48-4.26-6.73-4.59c-4.54-.35-121.1,1-121.1,1a8.65,8.65,0,0,0-4.62,3.61,10.48,10.48,0,0,1,2.86-1c5.23-.57,10.48-.28,124.32-.84A11.44,11.44,0,0,1,193.32,40.64Z"/><path class="cls-45" d="M193.3,40.62s-2.47-4.22-6.72-4.56c-4.54-.35-121.08,1-121.08,1a8.66,8.66,0,0,0-4.61,3.57,10.37,10.37,0,0,1,2.86-1C69,39.08,74.4,39.37,188,38.81A11.66,11.66,0,0,1,193.3,40.62Z"/><path class="cls-46" d="M193.27,40.59s-2.46-4.17-6.7-4.51c-4.54-.36-121.07,1-121.07,1a8.66,8.66,0,0,0-4.59,3.54,10.86,10.86,0,0,1,2.87-1c5.18-.57,10.8-.29,124.2-.84A11.73,11.73,0,0,1,193.27,40.59Z"/><path class="cls-47" d="M193.24,40.57s-2.45-4.13-6.67-4.47c-4.54-.37-121.06,1-121.06,1a8.66,8.66,0,0,0-4.58,3.52,10.86,10.86,0,0,1,2.88-1c5.15-.57,11-.29,124.13-.84A11.75,11.75,0,0,1,193.24,40.57Z"/><path class="cls-48" d="M193.22,40.55s-2.44-4.09-6.66-4.44c-4.54-.38-121,1-121,1A8.71,8.71,0,0,0,61,40.61a10.84,10.84,0,0,1,2.89-1C69,39,75,39.31,187.91,38.76A11.93,11.93,0,0,1,193.22,40.55Z"/><path class="cls-49" d="M193.19,40.53s-2.42-4.05-6.64-4.4c-4.53-.39-121,1-121,1A8.65,8.65,0,0,0,61,40.59a11,11,0,0,1,2.9-1c5.1-.56,11.26-.29,124-.84A12.1,12.1,0,0,1,193.19,40.53Z"/><path class="cls-50" d="M193.16,40.51s-2.41-4-6.61-4.37c-4.54-.39-121,1-121,1A8.69,8.69,0,0,0,61,40.58a10.73,10.73,0,0,1,2.9-1c5.08-.56,11.42-.3,123.94-.85A12.25,12.25,0,0,1,193.16,40.51Z"/><path class="cls-51" d="M193.14,40.48s-2.4-4-6.6-4.32c-4.53-.4-121,1-121,1A8.7,8.7,0,0,0,61,40.56a11.24,11.24,0,0,1,2.91-1c5-.56,11.58-.3,123.88-.85A12.36,12.36,0,0,1,193.14,40.48Z"/><path class="cls-52" d="M193.11,40.46s-2.39-3.92-6.57-4.29c-4.54-.4-121,1-121,1A8.66,8.66,0,0,0,61,40.54a11.21,11.21,0,0,1,2.92-1c5-.55,11.73-.3,123.81-.85A12.52,12.52,0,0,1,193.11,40.46Z"/><path class="cls-53" d="M193.09,40.44s-2.38-3.87-6.56-4.25c-4.53-.41-121,1-121,1a8.71,8.71,0,0,0-4.48,3.34,11.33,11.33,0,0,1,2.93-1c5-.55,11.89-.3,123.75-.84A12.63,12.63,0,0,1,193.09,40.44Z"/><path class="cls-54" d="M193.06,40.42s-2.37-3.83-6.54-4.22c-4.53-.41-121,1-121,1a8.71,8.71,0,0,0-4.46,3.32,11.37,11.37,0,0,1,2.93-1c5-.54,12-.3,123.69-.84A12.65,12.65,0,0,1,193.06,40.42Z"/><path class="cls-55" d="M193,40.4s-2.35-3.79-6.51-4.18c-4.53-.42-121,1-121,1a8.76,8.76,0,0,0-4.45,3.29,11.22,11.22,0,0,1,2.94-1c4.94-.55,12.2-.31,123.63-.85A12.79,12.79,0,0,1,193,40.4Z"/><path class="cls-56" d="M193,40.38s-2.35-3.75-6.5-4.14c-4.53-.43-121,1-121,1a8.71,8.71,0,0,0-4.43,3.26,11.59,11.59,0,0,1,3-1c4.92-.54,12.36-.31,123.56-.85A13.05,13.05,0,0,1,193,40.38Z"/><path class="cls-57" d="M193,40.35s-2.33-3.7-6.47-4.1c-4.53-.43-121,1-121,1a8.7,8.7,0,0,0-4.42,3.24,11.59,11.59,0,0,1,3-1c4.89-.54,12.51-.31,123.49-.85A13.28,13.28,0,0,1,193,40.35Z"/><path class="cls-58" d="M193,40.33a9.47,9.47,0,0,0-6.45-4.06c-4.53-.45-120.95,1-120.95,1a8.76,8.76,0,0,0-4.4,3.21,11.75,11.75,0,0,1,3-1c4.87-.53,12.67-.31,123.44-.85A13.28,13.28,0,0,1,193,40.33Z"/><path class="cls-59" d="M192.93,40.31a9.48,9.48,0,0,0-6.44-4c-4.52-.45-120.94,1-120.94,1a8.72,8.72,0,0,0-4.38,3.17,11.88,11.88,0,0,1,3-1c4.84-.53,12.82-.31,123.37-.84A13.39,13.39,0,0,1,192.93,40.31Z"/><path class="cls-60" d="M192.9,40.29a9.45,9.45,0,0,0-6.41-4c-4.53-.46-120.93,1-120.93,1a8.74,8.74,0,0,0-4.37,3.14,11.56,11.56,0,0,1,3-1c4.81-.53,13-.32,123.31-.85A13.58,13.58,0,0,1,192.9,40.29Z"/><path class="cls-61" d="M192.87,40.27a9.43,9.43,0,0,0-6.39-4c-4.53-.46-120.92,1-120.92,1a8.77,8.77,0,0,0-4.35,3.12,12,12,0,0,1,3-1c4.78-.53,13.13-.32,123.24-.85A13.76,13.76,0,0,1,192.87,40.27Z"/><path class="cls-62" d="M192.85,40.24a9.44,9.44,0,0,0-6.37-3.91c-4.53-.47-120.91,1-120.91,1a8.79,8.79,0,0,0-4.34,3.09,12.14,12.14,0,0,1,3-1C69,38.83,77.52,39,187.4,38.5A13.92,13.92,0,0,1,192.85,40.24Z"/><path class="cls-63" d="M192.82,40.22a9.42,9.42,0,0,0-6.35-3.88c-4.53-.47-120.9.95-120.9.95a8.73,8.73,0,0,0-4.32,3.06,12.28,12.28,0,0,1,3-1C69,38.82,77.7,39,187.37,38.48A14.08,14.08,0,0,1,192.82,40.22Z"/><path class="cls-64" d="M192.79,40.2a9.41,9.41,0,0,0-6.33-3.84c-4.52-.48-120.89.94-120.89.94a8.82,8.82,0,0,0-4.31,3,12.41,12.41,0,0,1,3-1c4.7-.51,13.6-.33,123.05-.85A14.31,14.31,0,0,1,192.79,40.2Z"/><path class="cls-65" d="M192.77,40.18a9.46,9.46,0,0,0-6.31-3.81c-4.53-.48-120.88.94-120.88.94a8.84,8.84,0,0,0-4.3,3,12.07,12.07,0,0,1,3-1c4.67-.52,13.75-.34,123-.86A14.33,14.33,0,0,1,192.77,40.18Z"/><path class="cls-66" d="M192.74,40.16a9.41,9.41,0,0,0-6.29-3.77c-4.52-.5-120.87.93-120.87.93a8.9,8.9,0,0,0-4.28,3,12.69,12.69,0,0,1,3-1c4.66-.51,13.92-.34,122.93-.85A14.43,14.43,0,0,1,192.74,40.16Z"/><path class="cls-67" d="M192.72,40.13a9.43,9.43,0,0,0-6.27-3.72c-4.53-.51-120.87.93-120.87.93a8.83,8.83,0,0,0-4.26,2.95,12.68,12.68,0,0,1,3-1c4.63-.5,14.07-.34,122.87-.85A14.76,14.76,0,0,1,192.72,40.13Z"/><path class="cls-68" d="M192.69,40.11a9.41,9.41,0,0,0-6.25-3.69c-4.52-.51-120.85.93-120.85.93a8.86,8.86,0,0,0-4.25,2.92,12.82,12.82,0,0,1,3-1c4.6-.5,14.22-.34,122.8-.85A15,15,0,0,1,192.69,40.11Z"/><path class="cls-69" d="M192.66,40.09a9.4,9.4,0,0,0-6.23-3.65c-4.52-.52-120.84.92-120.84.92a8.83,8.83,0,0,0-4.23,2.89,12.78,12.78,0,0,1,3.06-1c4.57-.49,14.38-.34,122.73-.85A15,15,0,0,1,192.66,40.09Z"/><path class="cls-70" d="M192.64,40.07a9.42,9.42,0,0,0-6.21-3.62c-4.52-.52-120.83.92-120.83.92a8.85,8.85,0,0,0-4.22,2.86,12.59,12.59,0,0,1,3.07-1c4.54-.5,14.53-.35,122.67-.86A15.29,15.29,0,0,1,192.64,40.07Z"/><path class="cls-71" d="M192.61,40.05a9.41,9.41,0,0,0-6.19-3.58c-4.52-.53-120.82.91-120.82.91a8.9,8.9,0,0,0-4.2,2.84,12.63,12.63,0,0,1,3.07-1c4.52-.49,14.7-.35,122.61-.86A15.55,15.55,0,0,1,192.61,40.05Z"/><path class="cls-72" d="M192.58,40a9.39,9.39,0,0,0-6.16-3.55c-4.52-.53-120.81.91-120.81.91a8.92,8.92,0,0,0-4.19,2.81,13.24,13.24,0,0,1,3.08-1c4.49-.49,14.85-.35,122.55-.86A15.75,15.75,0,0,1,192.58,40Z"/><path class="cls-73" d="M192.56,40a9.43,9.43,0,0,0-6.15-3.5c-4.52-.54-120.8.9-120.8.9a8.94,8.94,0,0,0-4.17,2.78,13.2,13.2,0,0,1,3.09-1c4.46-.48,15-.35,122.48-.85A15.79,15.79,0,0,1,192.56,40Z"/><path class="cls-74" d="M192.53,40a9.39,9.39,0,0,0-6.13-3.46c-4.51-.56-120.79.9-120.79.9a8.92,8.92,0,0,0-4.15,2.75,13.19,13.19,0,0,1,3.1-1c4.44-.48,15.15-.35,122.42-.85A16,16,0,0,1,192.53,40Z"/><path class="cls-75" d="M192.5,40a9.41,9.41,0,0,0-6.1-3.43c-4.52-.56-120.78.9-120.78.9a8.94,8.94,0,0,0-4.14,2.72,13,13,0,0,1,3.1-1c4.42-.48,15.32-.36,122.36-.86A16.28,16.28,0,0,1,192.5,40Z"/><path class="cls-76" d="M192.48,39.94a9.41,9.41,0,0,0-6.09-3.39c-4.51-.57-120.77.89-120.77.89a8.87,8.87,0,0,0-4.12,2.69,13.17,13.17,0,0,1,3.11-1c4.39-.48,15.47-.36,122.29-.86A16.32,16.32,0,0,1,192.48,39.94Z"/><path class="cls-77" d="M192.45,39.92a9.45,9.45,0,0,0-6.06-3.36c-4.52-.57-120.76.89-120.76.89a8.91,8.91,0,0,0-4.11,2.67,13.66,13.66,0,0,1,3.12-1c4.36-.47,15.63-.36,122.23-.86A16.59,16.59,0,0,1,192.45,39.92Z"/><path class="cls-78" d="M192.42,39.89a9.46,9.46,0,0,0-6-3.31c-4.51-.58-120.75.88-120.75.88a8.94,8.94,0,0,0-4.09,2.64,13.62,13.62,0,0,1,3.13-1c4.33-.47,15.78-.36,122.16-.86A16.94,16.94,0,0,1,192.42,39.89Z"/><path class="cls-79" d="M192.4,39.87a9.5,9.5,0,0,0-6-3.28c-4.51-.58-120.73.88-120.73.88a9,9,0,0,0-4.08,2.61,13.81,13.81,0,0,1,3.13-1c4.31-.46,15.94-.36,122.11-.85A17.15,17.15,0,0,1,192.4,39.87Z"/><path class="cls-80" d="M192.37,39.85a9.5,9.5,0,0,0-6-3.24c-4.52-.6-120.73.87-120.73.87a9,9,0,0,0-4.06,2.58,13.59,13.59,0,0,1,3.14-1c4.28-.47,16.1-.37,122-.86A17.1,17.1,0,0,1,192.37,39.85Z"/><path class="cls-81" d="M192.35,39.83a9.54,9.54,0,0,0-6-3.21c-4.51-.6-120.72.88-120.72.88a9,9,0,0,0-4,2.55,13.58,13.58,0,0,1,3.15-1c4.25-.46,16.25-.37,122-.86A17.5,17.5,0,0,1,192.35,39.83Z"/><path class="cls-82" d="M192.32,39.81a9.55,9.55,0,0,0-6-3.17c-4.51-.61-120.7.87-120.7.87a9,9,0,0,0-4,2.52,14.05,14.05,0,0,1,3.16-1c4.23-.46,16.4-.37,121.91-.86A17.74,17.74,0,0,1,192.32,39.81Z"/><path class="cls-83" d="M192.29,39.79a9.55,9.55,0,0,0-5.94-3.14c-4.51-.61-120.7.87-120.7.87a8.94,8.94,0,0,0-4,2.49,14.2,14.2,0,0,1,3.17-1c4.19-.45,16.56-.37,121.84-.86A17.76,17.76,0,0,1,192.29,39.79Z"/><path class="cls-84" d="M192.27,39.76a9.62,9.62,0,0,0-5.93-3.09c-4.51-.62-120.69.86-120.69.86a9,9,0,0,0-4,2.47,14.24,14.24,0,0,1,3.17-1c4.18-.45,16.72-.37,121.79-.86A18.31,18.31,0,0,1,192.27,39.76Z"/><path class="cls-85" d="M192.24,39.74a9.59,9.59,0,0,0-5.9-3.05c-4.51-.63-120.68.85-120.68.85a9.07,9.07,0,0,0-4,2.44,14.15,14.15,0,0,1,3.19-1c4.15-.45,16.87-.38,121.72-.86A18.39,18.39,0,0,1,192.24,39.74Z"/><path class="cls-86" d="M192.21,39.72a9.65,9.65,0,0,0-5.88-3c-4.51-.63-120.67.85-120.67.85a9.1,9.1,0,0,0-4,2.41,14.3,14.3,0,0,1,3.2-1c4.12-.45,17-.38,121.66-.86A18.65,18.65,0,0,1,192.21,39.72Z"/><path class="cls-87" d="M192.19,39.7a9.67,9.67,0,0,0-5.87-3c-4.5-.65-120.65.84-120.65.84a9.15,9.15,0,0,0-4,2.39,14.64,14.64,0,0,1,3.21-1.05C69,38.46,82.1,38.52,186.51,38A18.77,18.77,0,0,1,192.19,39.7Z"/><path class="cls-88" d="M192.16,39.68a9.72,9.72,0,0,0-5.84-3c-4.51-.65-120.65.85-120.65.85a9.08,9.08,0,0,0-3.94,2.35,14.84,14.84,0,0,1,3.21-1C69,38.44,82.28,38.5,186.48,38A19.12,19.12,0,0,1,192.16,39.68Z"/><path class="cls-89" d="M192.13,39.66a9.71,9.71,0,0,0-5.82-2.91c-4.5-.66-120.63.84-120.63.84a9.17,9.17,0,0,0-3.93,2.32,15,15,0,0,1,3.22-1c4-.43,17.5-.38,121.47-.86A19.42,19.42,0,0,1,192.13,39.66Z"/><path class="cls-90" d="M192.11,39.63a9.8,9.8,0,0,0-5.8-2.87c-4.51-.66-120.63.84-120.63.84a9.06,9.06,0,0,0-3.91,2.29,14.74,14.74,0,0,1,3.23-1c4-.44,17.65-.39,121.4-.87A20.08,20.08,0,0,1,192.11,39.63Z"/><path class="cls-91" d="M192.08,39.61a9.83,9.83,0,0,0-5.78-2.83c-4.5-.67-120.62.83-120.62.83a9.05,9.05,0,0,0-3.89,2.27A14.53,14.53,0,0,1,65,38.83c4-.43,17.8-.39,121.34-.87A20,20,0,0,1,192.08,39.61Z"/><path class="cls-92" d="M192.06,39.59a9.91,9.91,0,0,0-5.77-2.8c-4.5-.67-120.6.83-120.6.83a9.07,9.07,0,0,0-3.88,2.24,15.31,15.31,0,0,1,3.24-1c4-.43,18-.39,121.28-.86A20.29,20.29,0,0,1,192.06,39.59Z"/><path class="cls-93" d="M192,39.57a10,10,0,0,0-5.74-2.76c-4.5-.69-120.6.82-120.6.82a9.16,9.16,0,0,0-3.86,2.21,15.47,15.47,0,0,1,3.25-1.05c3.93-.42,18.12-.4,121.22-.86A20.6,20.6,0,0,1,192,39.57Z"/><path class="cls-94" d="M192,39.55a10,10,0,0,0-5.72-2.72c-4.5-.7-120.59.81-120.59.81a9.15,9.15,0,0,0-3.84,2.19,15.45,15.45,0,0,1,3.26-1.06c3.91-.42,18.27-.39,121.15-.86A20.62,20.62,0,0,1,192,39.55Z"/><path class="cls-95" d="M192,39.52a10.12,10.12,0,0,0-5.69-2.68c-4.51-.7-120.58.82-120.58.82a9.12,9.12,0,0,0-3.83,2.15,15,15,0,0,1,3.27-1.05c3.88-.42,18.43-.41,121.08-.87A21.14,21.14,0,0,1,192,39.52Z"/><path class="cls-96" d="M192,39.5a10.18,10.18,0,0,0-5.68-2.64c-4.5-.71-120.57.81-120.57.81a9.15,9.15,0,0,0-3.81,2.12,15.18,15.18,0,0,1,3.27-1c3.86-.42,18.59-.41,121-.87A21.69,21.69,0,0,1,192,39.5Z"/><path class="cls-97" d="M191.92,39.48a10.29,10.29,0,0,0-5.66-2.61c-4.5-.71-120.55.81-120.55.81a9,9,0,0,0-3.8,2.1,15.77,15.77,0,0,1,3.28-1.06c3.83-.41,18.74-.41,121-.87A22.06,22.06,0,0,1,191.92,39.48Z"/><path class="cls-98" d="M191.89,39.46a10.29,10.29,0,0,0-5.63-2.57c-4.5-.72-120.55.8-120.55.8a9.06,9.06,0,0,0-3.78,2.07,15.93,15.93,0,0,1,3.29-1.06c3.8-.41,18.9-.41,120.9-.87A22.06,22.06,0,0,1,191.89,39.46Z"/><path class="cls-99" d="M191.87,39.44a10.39,10.39,0,0,0-5.62-2.54c-4.5-.74-120.54.8-120.54.8a9.08,9.08,0,0,0-3.76,2,15.87,15.87,0,0,1,3.3-1.06c3.77-.4,19-.41,120.83-.86A22.3,22.3,0,0,1,191.87,39.44Z"/><path class="cls-100" d="M191.84,39.41a10.44,10.44,0,0,0-5.59-2.49c-4.5-.75-120.53.79-120.53.79a9.16,9.16,0,0,0-3.75,2,15.59,15.59,0,0,1,3.31-1c3.74-.4,19.21-.42,120.76-.87A23,23,0,0,1,191.84,39.41Z"/><path class="cls-101" d="M191.82,39.39a10.58,10.58,0,0,0-5.58-2.46c-4.5-.75-120.52.79-120.52.79a9.14,9.14,0,0,0-3.73,2,15.63,15.63,0,0,1,3.31-1.06c3.72-.4,19.37-.42,120.71-.87A23.65,23.65,0,0,1,191.82,39.39Z"/><path class="cls-102" d="M191.79,39.37A10.67,10.67,0,0,0,186.23,37c-4.49-.76-120.5.79-120.5.79A9,9,0,0,0,62,39.69a15.78,15.78,0,0,1,3.32-1.06c3.7-.39,19.52-.42,120.64-.87A23.55,23.55,0,0,1,191.79,39.37Z"/><path class="cls-103" d="M191.76,39.35A10.7,10.7,0,0,0,186.23,37c-4.5-.77-120.5.78-120.5.78A9.1,9.1,0,0,0,62,39.67a16.59,16.59,0,0,1,3.33-1.06c3.67-.39,19.67-.42,120.58-.87A24.08,24.08,0,0,1,191.76,39.35Z"/><path class="cls-104" d="M191.74,39.33A10.93,10.93,0,0,0,186.22,37c-4.49-.77-120.48.78-120.48.78a8.9,8.9,0,0,0-3.69,1.9,16.4,16.4,0,0,1,3.33-1.07c3.65-.38,19.84-.42,120.52-.87A24.66,24.66,0,0,1,191.74,39.33Z"/><path class="cls-105" d="M191.71,39.31A11,11,0,0,0,186.22,37c-4.5-.78-120.48.77-120.48.77a9,9,0,0,0-3.68,1.87,16.26,16.26,0,0,1,3.35-1.06c3.62-.39,20-.43,120.46-.87A24.23,24.23,0,0,1,191.71,39.31Z"/><path class="cls-106" d="M191.68,39.28A11.32,11.32,0,0,0,186.21,37c-4.49-.78-120.47.77-120.47.77a9,9,0,0,0-3.65,1.84,16.26,16.26,0,0,1,3.35-1.06c3.59-.38,20.14-.43,120.39-.87A25.06,25.06,0,0,1,191.68,39.28Z"/><path class="cls-107" d="M191.66,39.26A11.47,11.47,0,0,0,186.2,37c-4.49-.8-120.45.76-120.45.76a9,9,0,0,0-3.64,1.81,16.42,16.42,0,0,1,3.36-1.06c3.56-.38,20.3-.43,120.32-.87A25.82,25.82,0,0,1,191.66,39.26Z"/><path class="cls-108" d="M191.63,39.24A11.68,11.68,0,0,0,186.2,37c-4.49-.8-120.45.76-120.45.76a9.07,9.07,0,0,0-3.63,1.79,17,17,0,0,1,3.38-1.07c3.53-.37,20.45-.43,120.26-.87A26.3,26.3,0,0,1,191.63,39.24Z"/><path class="cls-109" d="M191.6,39.22a11.78,11.78,0,0,0-5.41-2.16c-4.49-.81-120.44.75-120.44.75a9.07,9.07,0,0,0-3.61,1.76,17.24,17.24,0,0,1,3.38-1.07c3.51-.37,20.62-.43,120.2-.87A26.31,26.31,0,0,1,191.6,39.22Z"/><path class="cls-110" d="M191.58,39.2a12,12,0,0,0-5.4-2.12c-4.48-.82-120.42.75-120.42.75s-1.18.08-3.6,1.72a16.91,16.91,0,0,1,3.39-1.06c3.48-.37,20.77-.44,120.14-.88A27,27,0,0,1,191.58,39.2Z"/><path class="cls-111" d="M191.55,39.17a12.31,12.31,0,0,0-5.37-2.08c-4.49-.82-120.42.75-120.42.75s-1.14.07-3.58,1.7a16.89,16.89,0,0,1,3.4-1.07C69,38.1,86.5,38,185.65,37.59A28,28,0,0,1,191.55,39.17Z"/><path class="cls-112" d="M191.53,39.15a12.63,12.63,0,0,0-5.36-2c-4.48-.83-120.4.74-120.4.74s-1.12.06-3.57,1.67a16.82,16.82,0,0,1,3.41-1.07c3.43-.36,21.07-.44,120-.87A28.33,28.33,0,0,1,191.53,39.15Z"/><path class="cls-113" d="M191.5,39.13a12.86,12.86,0,0,0-5.33-2c-4.49-.83-120.4.74-120.4.74s-1.08,0-3.55,1.64a17.76,17.76,0,0,1,3.41-1.07c3.41-.36,21.24-.44,120-.87A28.34,28.34,0,0,1,191.5,39.13Z"/><path class="cls-114" d="M191.47,39.11a13.14,13.14,0,0,0-5.31-2c-4.49-.84-120.38.73-120.38.73s-1.06,0-3.54,1.62a17.73,17.73,0,0,1,3.42-1.08c3.38-.35,21.39-.44,119.88-.87A28.92,28.92,0,0,1,191.47,39.11Z"/></g><path class="cls-115" d="M234.88,97.89l.73-.08a4.35,4.35,0,0,1,7.09-.76l.73-.08a1,1,0,0,0,1-1l.34-6.82a1,1,0,0,0-1.16-.81L232.9,89.45a1,1,0,0,0-1,1l1.78,6.59A1,1,0,0,0,234.88,97.89Z"/><path class="cls-115" d="M239,96.12a3.34,3.34,0,1,0,3.93,2.93A3.47,3.47,0,0,0,239,96.12Z"/><polygon class="cls-115" points="231.38 103.39 232.65 103.25 232.77 104.44 232.92 104.55 233.34 104.5 233.47 104.36 233.34 103.18 234.61 103.04 234.73 102.91 234.69 102.54 234.54 102.43 233.27 102.56 233.14 101.37 233 101.26 232.57 101.31 232.45 101.45 232.58 102.64 231.32 102.77 231.2 102.91 231.24 103.28 231.38 103.39"/><path class="cls-115" d="M220.27,14.91l1.12,7.39a1.2,1.2,0,0,0,1.33,1.05l10.17-1.55a1.19,1.19,0,0,0,1-1.39l-1.48-9.68A1.18,1.18,0,0,0,231,9.68l-7.93,1.21,0,.11.4,2.63a.75.75,0,0,1-.6.88l-2.63.4Z"/><polygon class="cls-115" points="226.11 110.13 227.99 108.06 226.14 108.09 226.09 108.14 226.11 110.13"/><path class="cls-115" d="M226.13,107.52l2.11,0h0l-.07-5.93a.94.94,0,0,0-.92-1l-8.16.1a.94.94,0,0,0-.9,1l.09,7.77a1,1,0,0,0,.92,1l6.36-.07,0-.09,0-2.11A.6.6,0,0,1,226.13,107.52Zm-6-.66,0-4.23a.23.23,0,0,1,.25-.2l.24.2.05,4.23-.24.2A.23.23,0,0,1,220.13,106.86Zm1.49,1.37-.06-5.55.24-.27a.25.25,0,0,1,.25.26l.06,5.56a.25.25,0,0,1-.24.27Zm2,0-.25.27-.24-.26-.07-5.56.24-.27.25.26Z"/><polygon class="cls-115" points="215.13 122.51 216.03 130.93 220.68 126.83 215.14 122.38 215.13 122.51"/><path class="cls-115" d="M216.93,131.11a.92.92,0,0,0-.62.33l8.62,4.78,7.39-6.52a.9.9,0,0,0-.66-.17Z"/><polygon class="cls-115" points="227.04 126.13 232.47 129.14 231.56 120.75 231.51 120.6 227.04 126.13"/><polygon class="cls-115" points="223.34 124.47 223.64 124.35 223.95 124.41 226.44 125.79 230.99 120.17 230.64 120.15 215.9 121.73 215.54 121.84 221.19 126.38 223.34 124.47"/><polygon class="cls-115" points="204.74 22.97 213.16 22.87 209.53 17.88 204.61 22.93 204.74 22.97"/><path class="cls-115" d="M214,6.63l-5.55,8.08,5.75,7.92a.93.93,0,0,0,.23-.63l-.17-14.73A.91.91,0,0,0,214,6.63Z"/><polygon class="cls-115" points="212.94 6.44 204.55 6.53 204.4 6.57 209.44 11.52 212.94 6.44"/><polygon class="cls-115" points="204.12 22.48 209.13 17.33 207.46 15.02 207.36 14.72 207.45 14.42 209.06 12.08 203.93 7.04 203.87 7.39 204.04 22.12 204.12 22.48"/><path class="cls-115" d="M168.53,131.63a3.46,3.46,0,0,1,.75-2.2l-1.65-2.28-4.86,5,.12,0,5.69-.07A3.91,3.91,0,0,1,168.53,131.63Z"/><path class="cls-115" d="M170,128.78a3,3,0,0,1,1.62-.53,3,3,0,0,1,.8.12l-.14-11.69a.85.85,0,0,0-.26-.63l-5.47,8Z"/><polygon class="cls-115" points="170.99 115.86 162.71 115.95 162.56 115.99 167.54 120.88 170.99 115.86"/><polygon class="cls-115" points="162.28 131.7 167.23 126.61 165.58 124.33 165.48 124.03 165.57 123.73 167.16 121.43 162.09 116.46 162.03 116.8 162.2 131.34 162.28 131.7"/><path class="cls-115" d="M169.17,130.62a2.46,2.46,0,1,0,2.42-2.68A2.57,2.57,0,0,0,169.17,130.62Zm3.58-.88L173,131l-2.2,0v.57h-.45l0-1.79h.45v.58l1.63,0-.13-.6Z"/><path class="cls-115" d="M203.33,44.42a5.82,5.82,0,1,0,11.61-.13,5.82,5.82,0,1,0-11.61.13Zm6.3-3.54,3,3.92a.83.83,0,0,1-.11,1.09.68.68,0,0,1-1-.12L209.1,42.6l-2.29,3.22a.66.66,0,0,1-1,.14.76.76,0,0,1-.28-.6.81.81,0,0,1,.14-.47l2.84-4a.72.72,0,0,1,.55-.3A.68.68,0,0,1,209.63,40.88Z"/><path class="cls-115" d="M212.21,111.21c-.05-4.36-3.37-7.86-7.41-7.82s-7.28,3.63-7.23,8,3.37,7.87,7.41,7.82S212.26,115.58,212.21,111.21Zm-9.82,1.4,1.62,0-.08-7.27,1.78,0,.08,7.27,1.63,0L205,117.29Z"/><path class="cls-115" d="M59.23,12.53c.29,2.68,3.59,4.67,6.2,4.39s5.42-2.93,5.13-5.6S63.71.89,63.71.89,59,10,59.23,12.53Zm10.09-1.16a4.49,4.49,0,0,1-8.9,1,4.49,4.49,0,0,1,8.9-1Z"/><path class="cls-115" d="M227.84,60c2.44,0,4.53-2.85,4.5-5.23s-2.18-5.16-4.62-5.13-10,5.3-10,5.3S225.49,60,227.84,60Zm.06-8.35a3.18,3.18,0,1,1-2.9,3.2A3.06,3.06,0,0,1,227.9,51.62Z"/><path class="cls-115" d="M145.19,26.79c-.2-.08-.81.1-.9,0l-.64-.41c-.62-.14-.68,0-1.19-.14-.34-.1-1.68-.63-1.74-.64l-.66-.84a.83.83,0,0,1-.1-.69c.14-.31.08-.28.2-.39l1.24-.06,1.38,0s.86-.67,1-.59.19-.3.45-.52,0-.38-.09-.54a4.64,4.64,0,0,1-.24-1.19c0-.23.74-.47.95-.63s.8.18,1,.2.38.56.47.64l.69.31.42,1.53-.25.76-.32.61-.22,1.31.91.33a5,5,0,0,0,.17-.68,3.76,3.76,0,0,1,0-1.05c.09-.41.36-.24.36-.24l.7-.22-.31-.19,0-.8c0-.08-.17-.35-.31-.44a2.5,2.5,0,0,1-.63-.91c-.16-.41.43-.57.43-.57l.64.34.25.57L149,22a.82.82,0,0,1,.4.54c.08.31,0,.94.13,1.29s.27.23.27.23l.37.8A9.17,9.17,0,0,0,153,18.13a9.28,9.28,0,0,0-2.28-6l0,.13.65,1.95s-.27.09.19.64,0,.76,0,.9l-.83.77s0-2.16,0-2.39a4.27,4.27,0,0,0-.68-1s-.62,1-.21,1.44.2,1.1,0,1.82-1.19.06-1.22-.85a3.47,3.47,0,0,0-1-1.83l-.91-1.54a.79.79,0,0,0-.39-1c-.71-.37-1,.89-1.07,1.09s-.21,1.06-.28,1.23-.11.68-.18,1-.54,1.08-.69,1.72-1.23,1.4-1.23,1.4l-2-.68s-.14,0-.35-.26-1.28-1.16-1.28-1.16l-1.91.07a3.11,3.11,0,0,1,.31-1.13c.24-.35,1.63-.6,1.63-.6s2.21,0,2.37-.26a5.64,5.64,0,0,1,1.88-1.19c.38-.07.47.34.47.34h.56l.63-1.87s.34-1.12.69-1.12a.77.77,0,0,0,.43-.2,7.21,7.21,0,0,0-1.68-.17c-4.54.05-8.17,4.07-8.11,9s3.78,8.83,8.31,8.78a7.92,7.92,0,0,0,1-.09Zm5.59-3.28-.36.3a4.41,4.41,0,0,1-.37-.64,6.17,6.17,0,0,0-.24-.57c0-.05.13-.13.49-.2S150.78,23.51,150.78,23.51Z"/><path class="cls-115" d="M150.5,128.35l-.66-.34-.39,1.88L141,127l1.44-4.33,3.16,1.17,1.29.46c.23-.15.49-.33.79-.51l-2-.75-3.1-1.14-.71-4.15,7.61,3.66.3,1.16.65-.35-.28-1.06,1.21-4.16-9.07-5-1.12,4.58-.13.52,0,.28.81,4.78-1.77,5.33,9.88,3.37Zm-7.77-15.21,7.76,4.27-.94,3.23-6.18-3-1.57-.76Z"/><path class="cls-115" d="M150.51,123c-.22.11-.44.24-.65.36-.44.25-.88.52-1.28.77l-.81.51c-.62.4-1,.69-1,.69s1.56,1,3.18,1.9l.66.35a7.44,7.44,0,0,0,2.56.94c1.54,0,2.85-1.8,2.83-3.3s-1.37-3.25-2.91-3.23A7.44,7.44,0,0,0,150.51,123Zm4.53,2.23a1.86,1.86,0,1,1-1.87-2A1.94,1.94,0,0,1,155,125.24Z"/><path class="cls-115" d="M211.42,66.56a3.14,3.14,0,1,0-3.1,3.41A3.28,3.28,0,0,0,211.42,66.56Z"/><path class="cls-115" d="M214.9,66.52a6.63,6.63,0,1,0-6.53,7.21A6.9,6.9,0,0,0,214.9,66.52Zm-11.26.13a4.66,4.66,0,1,1,4.7,5A4.85,4.85,0,0,1,203.64,66.65Z"/><path class="cls-115" d="M218,92.41l-.1-8.94a.93.93,0,0,0-.9-1h-.56l.1,8.1a1.41,1.41,0,0,1-1.32,1.46l-7.76.09v.36a.93.93,0,0,0,.9,1l8.75-.1A.92.92,0,0,0,218,92.41Z"/><path class="cls-115" d="M215.18,91.11a.45.45,0,0,0,.44-.48l-.1-8.94a.45.45,0,0,0-.45-.47l-8.76.1a.47.47,0,0,0-.44.48l.11,8.94a.47.47,0,0,0,.45.48Z"/><path class="cls-115" d="M45.51,104.18,45.94,99l4.4-2.16-4.45-2.06-.55-5.19-3.18,3.93-4.74-1,2.48,4.49-2.38,4.55,4.72-1.16ZM41,96.92l-1.64-3,3.13.69L44.63,92,45,95.48l2.94,1.36L45,98.27l-.28,3.44-2.17-2.55-3.11.76Z"/><path class="cls-115" d="M71.23,32.17l4.12-.44-.52-4.82a1.71,1.71,0,0,1,1.62-1.76l5.46-.58v-.08a1.09,1.09,0,0,0-1.27-.86l-7.95.85-2.37-1.93.41,2.14-.29,0a1.1,1.1,0,0,0-1.06,1.11L70,31.31A1.08,1.08,0,0,0,71.23,32.17Z"/><path class="cls-115" d="M76.53,25.83a1,1,0,0,0-1,1l.53,4.95a1,1,0,0,0,1.15.77l9.21-1a1,1,0,0,0,1-1l-.53-4.95a1,1,0,0,0-1.15-.78l-.26,0,0-2L83.7,25.06Z"/><path class="cls-115" d="M26,62.23l.9.75a1.25,1.25,0,0,0,1.66-.11l.39-.4.12-.16-2.62-2.16-.15.13-.39.4A1,1,0,0,0,26,62.23Z"/><polygon class="cls-115" points="29.74 61.6 29.76 61.61 39.29 51.74 36.64 49.55 27.11 59.42 27.12 59.43 29.74 61.6"/><polygon class="cls-115" points="41.35 47.14 37.33 48.84 39.98 51.03 41.35 47.14"/><polygon class="cls-115" points="29.7 97.31 28.07 99 28.52 100.28 29.87 98.87 31.14 99.92 29.78 101.33 31.21 101.6 32.84 99.9 32.44 98.76 36.74 94.3 38.02 94.54 39.65 92.85 39.2 91.57 37.85 92.97 36.58 91.93 37.94 90.52 36.51 90.25 34.88 91.94 35.28 93.09 30.98 97.55 29.7 97.31"/><path class="cls-115" d="M51.64,32.49l1,2.86,2.13,0,.94-2.91c.16-.06.31-.14.46-.21l2.59,1.26,1.48-1.65L59,29a5,5,0,0,0,.18-.5l2.65-1.09,0-2.3-2.69-1a5,5,0,0,0-.2-.49l1.16-2.79-1.52-1.61L56,20.56l-.46-.2-1-2.86-2.13,0-1,2.91a4.54,4.54,0,0,0-.45.21L48.4,19.38,46.91,21l1.24,2.78c-.07.16-.13.33-.19.5L45.32,25.4l0,2.3,2.7,1c.06.16.12.33.19.49L47.08,32l1.52,1.61,2.57-1.33A4.73,4.73,0,0,0,51.64,32.49Zm-1.59-6a3.54,3.54,0,1,1,3.58,3.77A3.69,3.69,0,0,1,50.05,26.47Z"/><path class="cls-115" d="M50.5,61.64c1.36-1.5,1.31-3.07-1.39-5.91,2.63-2.9,2.65-4.47,1.25-5.94s-3.64-.89-4.5-.39C42.72,51.21,40,55.84,40,55.84s2.82,4.56,6,6.3C46.88,62.61,49.14,63.15,50.5,61.64Z"/><path class="cls-115" d="M203.13,139.54l3-3.34a4.67,4.67,0,0,0,3,1.05,5.4,5.4,0,1,0-5.05-5.33A5.65,5.65,0,0,0,205,135l-3,3.36a.91.91,0,0,0-.22.6.85.85,0,0,0,.24.6A.74.74,0,0,0,203.13,139.54Zm5.91-11.6a3.94,3.94,0,1,1-3.58,4A3.79,3.79,0,0,1,209,127.94Z"/><rect class="cls-115" x="96.62" y="112.68" width="4.44" height="2.36" transform="translate(-1.31 1.15) rotate(-0.66)"/><rect class="cls-115" x="96.66" y="115.8" width="6.47" height="2.36" transform="translate(-1.35 1.17) rotate(-0.66)"/><rect class="cls-115" x="96.69" y="118.92" width="8.88" height="2.36" transform="translate(-1.39 1.18) rotate(-0.66)"/><polyline class="cls-115" points="107.71 124.34 107.68 121.98 96.72 122.11 96.74 124.46 107.71 124.34"/><polyline class="cls-115" points="110.21 127.44 110.18 125.08 96.75 125.24 96.78 127.6 110.21 127.44"/><path class="cls-115" d="M105.19,25.83c0-4.34-3.36-7.83-7.37-7.79s-7.25,3.62-7.2,8S94,33.83,98,33.78,105.24,30.17,105.19,25.83Zm-14,.16a6.72,6.72,0,1,1,13.4-.16,6.72,6.72,0,1,1-13.4.16Z"/><path class="cls-115" d="M96.27,27.3l2.82,3-.07.07a.59.59,0,0,0,0,.78.49.49,0,0,0,.72.05L102.7,28a.59.59,0,0,0-.06-.78.49.49,0,0,0-.72-.05l-.07.08-2.82-3a3,3,0,0,0-.74-1.91L96.6,24.2,94.48,22l-.65-.22.22.69,2.12,2.24-1.69,1.86A2.65,2.65,0,0,0,96.27,27.3Z"/><path class="cls-115" d="M252.27,80.41a2.54,2.54,0,0,0,1.82-1.06l4.6,1.84a2.25,2.25,0,0,0-.08.82,2.3,2.3,0,0,0,.25.78l-4.11,2.78a2.53,2.53,0,0,0-2-.65,2.3,2.3,0,1,0,2.71,2,2.09,2.09,0,0,0-.25-.79l4.11-2.77a2.55,2.55,0,0,0,2,.65,2.3,2.3,0,1,0-.49-4.57A2.56,2.56,0,0,0,259,80.52l-4.61-1.84a2,2,0,0,0,.08-.81,2.49,2.49,0,1,0-2.22,2.54Z"/><path class="cls-115" d="M226.14,73.08l-2.34.25.4,3.8,2.35-.25.34,3.15,15.31-1.65-1.08-10.1L225.8,69.93l.34,3.15m14.17-3.88.91,8.46-13.53,1.45-.91-8.45,13.53-1.46"/><polyline class="cls-115" points="228.24 78.46 230.68 78.19 229.9 70.92 227.45 71.18 228.24 78.46"/><polyline class="cls-115" points="231.51 78.11 233.95 77.84 233.17 70.56 230.73 70.83 231.51 78.11"/><rect class="cls-115" x="234.39" y="70.32" width="2.46" height="7.32" transform="translate(-6.55 25.58) rotate(-6.13)"/><rect class="cls-115" x="237.66" y="69.97" width="2.46" height="7.32" transform="translate(-6.5 25.93) rotate(-6.13)"/><polygon class="cls-115" points="248.7 117.68 239.25 118.69 237.73 112.8 238.51 120.11 247.88 119.1 248.04 120.52 251.07 120.19 250.93 118.88 249.6 119.02 248.7 117.68"/><polygon class="cls-115" points="249.03 117.05 249.93 118.39 252.38 118.13 249.67 109.61 237.88 110.87 239.74 118.05 249.03 117.05"/><path class="cls-115" d="M48.6,121.84l8.19-.09-2.34-9.35-5.92.07c-.07-.29-.86-3.63-3.06-3.17-1.88.4-1.71,3.17.06,4.45a1.81,1.81,0,0,0,1.3.42l6.48-.07,1.51,6-4.52,0c-.07-.29-.86-3.62-3.06-3.16-1.88.39-1.71,3.15.06,4.44A1.8,1.8,0,0,0,48.6,121.84Z"/><polygon class="cls-115" points="238.25 33.96 243.11 20.19 251.86 31.88 238.25 33.96"/><polygon class="cls-115" points="188.13 11.62 191.75 18.22 195.22 11.54 188.13 11.62"/><polygon class="cls-115" points="188.22 19.08 191.84 25.68 195.31 19 188.22 19.08"/><rect class="cls-115" x="188.31" y="26.58" width="7.09" height="0.68" transform="translate(-0.3 2.23) rotate(-0.66)"/><path class="cls-115" d="M31.58,79.31a3.55,3.55,0,0,1-2.28-.69l-1,1.23a5.22,5.22,0,0,0,6.59-.37l-1.12-1.11a3.51,3.51,0,0,1-2.2.94"/><path class="cls-115" d="M31.8,83.24a7.9,7.9,0,0,0,4.87-2l-1.13-1.13a6.19,6.19,0,0,1-3.82,1.59,6.12,6.12,0,0,1-4-1.16l-1,1.25a7.85,7.85,0,0,0,5.05,1.44"/><path class="cls-115" d="M31.94,85.6A10.59,10.59,0,0,0,38.4,83l-1.12-1.12a9,9,0,0,1-11.07.62l-1,1.24a10.59,10.59,0,0,0,6.72,1.89"/><path class="cls-115" d="M30.47,77.15a1.44,1.44,0,0,0,2-.11L31.4,76Z"/><path class="cls-115" d="M32,45.51,30.2,43.66a7.43,7.43,0,0,1,2.44-2.72A6.61,6.61,0,0,1,36,39.81l1,2.65,4.26-1.32s-.93-3.71-2.56-4.3a9.41,9.41,0,0,0-7.66,1.33A10.88,10.88,0,0,0,26.51,45c-.3,1.88,2.76,4.34,2.76,4.34Z"/><path class="cls-115" d="M12.49,50.92l6.35,3.37-.38-6.71,6.3,3.13.28-.48-6.23-3.09,5.9-3.81-.33-.43-6,3.85L18,40.09l-5.93,4.06,5.79,3.07Zm5.72,2.42-4.67-2.48,4.36-3Zm-.38-6.77-4.67-2.48,4.36-3Z"/><line class="cls-115" x1="42.55" y1="70.72" x2="42.55" y2="70.72"/><line class="cls-115" x1="42.69" y1="82.85" x2="42.69" y2="82.85"/><path class="cls-115" d="M12.8,93.57v-1h-.53c-.32,0-.59-.33-.6-.74a.69.69,0,0,1,.58-.76h.54l0-3.52H12.2a.78.78,0,0,1,0-1.51h.54V85A1.74,1.74,0,0,0,11,83.26l.14,12.12A1.72,1.72,0,0,0,12.8,93.57Z"/><path class="cls-115" d="M10.88,83.44.51,83.56.65,95.68,11,95.56ZM8.63,92v.71L3,92.81V92l5,0v0l-.54-1.06L8,90.7ZM3.77,86.11a2.8,2.8,0,0,0-.34,1.35c0,1.07.64,1.39,1.11,1.38.8,0,1.13-.8,1.12-1.6v-.46h.58v.47c0,.6.31,1.36,1,1.35.45,0,.85-.32.84-1.08a2.38,2.38,0,0,0-.39-1.22l.56-.23a3.14,3.14,0,0,1,.45,1.6c0,1.2-.64,1.76-1.33,1.77A1.44,1.44,0,0,1,6,88.31H6A1.52,1.52,0,0,1,4.53,89.7c-.9,0-1.7-.75-1.72-2.22a3.35,3.35,0,0,1,.36-1.59Z"/><path class="cls-115" d="M12.18,86.37c-.15,0-.27.2-.27.43s.13.43.28.42l1.67,0c.15,0,.28-.19.27-.43s-.13-.42-.28-.42Z"/><path class="cls-115" d="M12.24,91.39c-.15,0-.28.2-.27.43s.13.43.28.43l1.67,0c.15,0,.27-.2.27-.43s-.13-.43-.28-.43Z"/><path class="cls-115" d="M82.34,116.43l0,1.89c-1.92,1-3.23,2.3-3.2,4.76l0,1.25,4.55,0v.14a.91.91,0,0,0,.88.93h.69a.9.9,0,0,0,.85-.94v-.15l4.56,0,0-1.25c0-2.47-1.37-3.7-3.3-4.69l0-1.89c0-.33-.31-.46-.69-.45L83,116C82.65,116,82.34,116.1,82.34,116.43Z"/><path class="cls-115" d="M85,128.22a3.6,3.6,0,0,0,2.78-1.4l-.31-.34a3.14,3.14,0,0,1-5,.06l-.31.35A3.63,3.63,0,0,0,85,128.22Z"/><path class="cls-115" d="M85,130.58a5.76,5.76,0,0,0,4.29-2.05l-.31-.34a5.22,5.22,0,0,1-8,.09l-.31.35A5.73,5.73,0,0,0,85,130.58Z"/><path class="cls-115" d="M85.06,133.18A8.06,8.06,0,0,0,91,130.41l-.31-.35a7.49,7.49,0,0,1-11.3.13l-.31.35A8,8,0,0,0,85.06,133.18Z"/><polygon class="cls-115" points="18.23 73.26 17.46 73.31 17.14 73.32 16.82 73.34 16.8 72.89 16.57 68.87 10.44 69.21 10.66 73.24 10.69 73.68 10.37 73.7 10.05 73.72 9.28 73.76 13.93 76.51 18.23 73.26"/><path class="cls-115" d="M14.1,79.67c4.37-.25,7.73-3.73,7.51-7.78s-4-7.13-8.33-6.88a7.65,7.65,0,0,0-7.51,7.77C6,76.83,9.73,79.91,14.1,79.67ZM8.22,73.52l.26-.16L10,73.27,9.79,69c0-.13.13-.24.31-.25l6.76-.37c.18,0,.33.08.33.2l.24,4.25L19,72.77l.28.13-.07.25-5,3.81-.39,0L8.31,73.76Z"/><path class="cls-115" d="M133,137a7.21,7.21,0,0,0,14.29-1.54,6.44,6.44,0,0,0-3.14-4.82,4.93,4.93,0,0,1-9.11,1A6.47,6.47,0,0,0,133,137Zm7-2.09a2.38,2.38,0,1,1-2.29,2.63A2.47,2.47,0,0,1,140,134.91Z"/><path class="cls-115" d="M133.64,126.09c-.07-5.84-4.5-10.52-9.9-10.45s-9.73,4.84-9.66,10.67,4.5,10.52,9.91,10.46S133.71,131.92,133.64,126.09ZM127,131a1.63,1.63,0,1,1-1.65-1.74A1.69,1.69,0,0,1,127,131Zm.9-4.78a2.14,2.14,0,1,1-2.16-2.28A2.23,2.23,0,0,1,127.86,126.17Zm-1-4.58a1.63,1.63,0,1,1-1.65-1.73A1.7,1.7,0,0,1,126.85,121.59Zm-5.74-3.68c1.16,0,2.13,1.65,2.16,3.72a5.82,5.82,0,0,1-.36,2.12,4,4,0,0,0-1.76-2.37Zm-.61,3.62c1.37.13,2.48,2.17,2.51,4.68s-1,4.58-2.4,4.74Zm.76,9.55a3.89,3.89,0,0,0,1.68-2.3,5.9,5.9,0,0,1,.44,2.2c0,2.06-.91,3.75-2.08,3.76Z"/><path class="cls-115" d="M172,29.81,172,26c1.81-1.24,6.2-4.28,6.26-4.41s.42-1.46-1.15-1-3.74,1-5.15,1.26l-.06-4.76a.83.83,0,0,0-.13-.42l1.41-1.07s.27-.72-.37-.51a16.51,16.51,0,0,1-1.72.43,15.89,15.89,0,0,1-1.73-.39c-.64-.19-.35.52-.35.52l1.46,1a1,1,0,0,0-.11.41l.06,4.76c-1.42-.26-3.77-.73-5.22-1.14s-1.2.85-1.12,1,4.57,3.1,6.38,4.29l.05,3.83a.79.79,0,0,0,.78.82A.81.81,0,0,0,172,29.81Z"/><path class="cls-115" d="M191.17,130.53l1.73-1.39,0-4.15-1.77-1.34,0-3.59-8.45.1.16,14.05,8.45-.1Zm-2-7.86,0-1.86h1l0,1.86Zm-5.62,4.5a3.54,3.54,0,0,1,3.35-3.7,3.17,3.17,0,0,1,1.61.42,3.8,3.8,0,0,1,.07,6.46,3.19,3.19,0,0,1-1.59.45A3.55,3.55,0,0,1,183.51,127.17Z"/><path class="cls-115" d="M189.69,128.1a3,3,0,0,0-1.86-2.8,2.56,2.56,0,0,0-1-.18,3,3,0,0,0,.07,6,2.68,2.68,0,0,0,.95-.2A3,3,0,0,0,189.69,128.1Z"/><polygon class="cls-115" points="192.11 132.83 192.1 131.77 191.4 131.43 191.42 133.18 192.11 132.83"/><polygon class="cls-115" points="73.69 127.63 71.25 123.19 67.07 123.24 64.73 127.74 73.69 127.63"/><rect class="cls-115" x="64.91" y="110.83" width="8.34" height="12.68" transform="translate(-1.35 0.81) rotate(-0.66)"/><path class="cls-115" d="M35.23,109.52a.68.68,0,0,0-.76-.58l-10.27.58a.68.68,0,0,0-.69.65l.42,7.51L35.65,117Z"/><polygon class="cls-115" points="24.4 120.88 24.97 122.61 27.58 121.86 26.01 120.42 24.4 120.88"/><polygon class="cls-115" points="33.87 120.05 32.3 118.61 29.97 119.28 31.54 120.72 33.87 120.05"/><polygon class="cls-115" points="28.4 121.62 30.72 120.96 29.15 119.52 26.83 120.19 28.4 121.62"/><path class="cls-115" d="M236.73,43.73,236.31,55l-.12,3.28,0,.6L253,59.5l0-.63.09-2.42.45-12.09Zm13.18,7.56-2.81,3.85-5-8.06-4.89,6.71.34-9.25,15.15.56-.37,10.08Z"/><path class="cls-115" d="M126,29l1,.72a1.22,1.22,0,0,0-.08.43,1,1,0,1,0,2.09,0A1.1,1.1,0,0,0,127.9,29a1,1,0,0,0-.67.3l-.92-.69A8.21,8.21,0,0,0,128,24.86l.36.12,1.52,0a.78.78,0,0,0,.74-.82l0-1.64a.78.78,0,0,0-.75-.8l-1.52,0-.37.12a7.53,7.53,0,0,0-7.28-6.34c-4.06.05-7.31,3.65-7.26,8s3.39,7.9,7.44,7.85A7,7,0,0,0,126,29Zm2.49,1.13a.57.57,0,1,1-1.13,0,.59.59,0,0,1,.56-.62A.58.58,0,0,1,128.48,30.13Zm1.36-7.71.08.09,0,1.64-.08.09-1.52,0-.09-.09,0-1.64.08-.09Zm-15.3,1.09A6.22,6.22,0,1,1,127,23.36a6.22,6.22,0,1,1-12.41.15Z"/><path class="cls-115" d="M121.43,23.79l3.79-.05V23l-3.79.05a.84.84,0,0,0-.35-.37l0-4.1h-.66l0,4.1a.82.82,0,0,0-.41.74.79.79,0,0,0,.77.81A.77.77,0,0,0,121.43,23.79Z"/><polyline class="cls-116" points="106.65 53.84 106.65 59.91 106.65 61.2 106.65 67.26"/><rect class="cls-116" x="105.18" y="56.88" width="2.94" height="7.35"/><polyline class="cls-116" points="101.31 59.08 101.31 62.9 101.31 63.7 101.31 67.52"/><rect class="cls-116" x="99.84" y="60.99" width="2.94" height="4.63"/><polyline class="cls-116" points="111.41 59.08 111.41 62.41 111.41 63.11 111.41 66.44"/><rect class="cls-116" x="109.94" y="60.74" width="2.94" height="4.04"/><polyline class="cls-116" points="116.34 52.8 116.34 59.11 116.34 60.45 116.34 66.76"/><rect class="cls-116" x="114.87" y="55.96" width="2.94" height="7.65"/><polyline class="cls-116" points="96.14 59.11 96.14 62.92 96.14 63.73 96.14 67.55"/><rect class="cls-116" x="94.67" y="61.02" width="2.94" height="4.63"/><polygon class="cls-116" points="160.76 69.91 157.94 66.16 155.12 62.4 160.42 61.37 165.72 60.34 163.24 65.13 160.76 69.91"/><path class="cls-116" d="M160.77,70l-1.54-1.65c-.55-.6-1.1-1.24-1.62-1.9s-1-1.23-1.43-1.87-.87-1.3-1.3-2l-.27-.42.45,0c.9-.11,1.8-.2,2.68-.38s1.77-.35,2.64-.59,1.74-.47,2.62-.68,1.75-.41,2.63-.6l1-.21-.43.92Q165,63,163.65,65.34c-.48.83-1,1.68-1.48,2.44Zm0-.1c.4-.91.74-1.78,1.07-2.6s.66-1.58,1-2.35q1.13-2.44,2.46-4.8l.53.71c-.89.15-1.78.3-2.67.43s-1.79.22-2.68.35-1.79.26-2.67.44-1.75.41-2.62.65l.18-.47c.52.59,1,1.18,1.53,1.79s.93,1.26,1.39,1.89.8,1.21,1.19,1.86S160.28,69.13,160.76,69.86Z"/><line class="cls-116" x1="76.57" y1="87.41" x2="92.86" y2="68.9"/><path class="cls-116" d="M76.54,87.38a30.55,30.55,0,0,1,3.79-4.87c.74-.72,1.52-1.4,2.23-2.15a24.67,24.67,0,0,0,2-2.38c1.21-1.68,2.53-3.25,3.88-4.8a46.25,46.25,0,0,1,4.43-4.31l.08.07a46.15,46.15,0,0,1-3.71,4.94c-1.36,1.54-2.76,3.05-4.27,4.46a24.94,24.94,0,0,0-2.12,2.24c-.65.79-1.22,1.66-1.84,2.48a30,30,0,0,1-4.35,4.38Z"/><line class="cls-116" x1="102.84" y1="79.39" x2="92.86" y2="68.9"/><path class="cls-116" d="M102.8,79.42A10.51,10.51,0,0,1,100,77.05c-.37-.47-.67-1-1.06-1.48a9.22,9.22,0,0,0-1.33-1.24A21.45,21.45,0,0,1,95,71.89a16.29,16.29,0,0,1-2.15-3l.08-.07a15.83,15.83,0,0,1,2.84,2.29A22.32,22.32,0,0,1,98.05,74a9.61,9.61,0,0,0,1.16,1.39c.44.41,1,.74,1.43,1.13a10.39,10.39,0,0,1,2.23,2.88Z"/><line class="cls-116" x1="119.57" y1="71.86" x2="102.84" y2="79.39"/><path class="cls-116" d="M119.59,71.91a16.7,16.7,0,0,1-4,2.21c-.73.25-1.49.43-2.2.71a14.5,14.5,0,0,0-2,1A36.74,36.74,0,0,1,107.24,78a26.15,26.15,0,0,1-4.38,1.45l0-.1a26.47,26.47,0,0,1,4-2.32,35.78,35.78,0,0,1,4.29-1.64,15.84,15.84,0,0,0,2.14-.84c.68-.35,1.32-.8,2-1.18a17.31,17.31,0,0,1,4.33-1.55Z"/><line class="cls-116" x1="128.31" y1="83.85" x2="119.57" y2="71.86"/><path class="cls-116" d="M128.27,83.88a10.73,10.73,0,0,1-2.48-2.78c-.32-.53-.55-1.13-.89-1.65A9.44,9.44,0,0,0,123.72,78a24.13,24.13,0,0,1-2.4-2.85,17,17,0,0,1-1.79-3.28l.08-.06a17.36,17.36,0,0,1,2.58,2.71,25,25,0,0,1,2,3.16,9.41,9.41,0,0,0,1,1.56c.39.48.89.89,1.3,1.35a11.15,11.15,0,0,1,1.89,3.22Z"/><line class="cls-116" x1="156.77" y1="66.29" x2="128.31" y2="83.85"/><path class="cls-116" d="M156.8,66.33a54.37,54.37,0,0,1-6.92,4.7c-1.23.67-2.49,1.28-3.7,2s-2.35,1.49-3.49,2.29c-2.28,1.63-4.61,3.15-7,4.62s-4.84,2.78-7.38,4l-.05-.09c2.21-1.73,4.52-3.29,6.87-4.8s4.78-2.87,7.25-4.17c1.23-.66,2.45-1.34,3.61-2.1s2.28-1.62,3.43-2.41a56.73,56.73,0,0,1,7.31-4.09Z"/><text class="cls-117" transform="translate(72.38 84.85)">UnderVisa</text><text class="cls-118" transform="translate(138.11 67.18) scale(0.68 1)">Master Traders</text><text class="cls-119" transform="translate(172.83 71.71)">TM</text></g></g></svg>