<svg xmlns="http://www.w3.org/2000/svg" viewBox="0 0 51.32 47.03"><defs><style>.cls-1{fill:#f05161;}.cls-1,.cls-2,.cls-3,.cls-4,.cls-5,.cls-6{fill-rule:evenodd;}.cls-2,.cls-3{opacity:0.5;}.cls-3{fill:#fff;}.cls-4{fill:#fdb940;}.cls-5{fill:#e74c3c;}.cls-6{fill:#42536c;}</style></defs><title>engranajes</title><g id="Capa_2" data-name="Capa 2"><g id="_6_personas" data-name="6 personas"><g id="Controlling"><g id="Correction"><g id="Active"><g id="Active1"><path class="cls-1" d="M36.24,29.81a7.27,7.27,0,0,1,2.21,1.27l3.06-1.26,2.06,3.56L41,35.51a7.09,7.09,0,0,1,.12,1.31A7.33,7.33,0,0,1,41,38L43.7,40l-2.06,3.56-3.08-1.14a7.35,7.35,0,0,1-2.18,1.32L36,47H31.83l-.55-3.21a7.15,7.15,0,0,1-2.21-1.27L26,43.81,24,40.25l2.56-2.13a8,8,0,0,1-.11-1.3,7.36,7.36,0,0,1,.09-1.16L23.82,33.6,25.88,30,29,31.18a7.23,7.23,0,0,1,2.18-1.32l.43-3.25h4.12Z"/><path class="cls-2" d="M33.76,42.17a5.36,5.36,0,1,0-5.36-5.35,5.36,5.36,0,0,0,5.36,5.35Z"/><path class="cls-3" d="M33.76,40.37a3.55,3.55,0,1,0-3.55-3.55,3.56,3.56,0,0,0,3.55,3.55Z"/></g><g id="Active-2" data-name="Active"><path class="cls-4" d="M36.15,4.27a10.84,10.84,0,0,1,3.7.79l3.74-3.18L48.12,6l-2.65,4.16a11.49,11.49,0,0,1,1.15,3.47l4.7,1.68-1.28,6-4.86-.21A11.05,11.05,0,0,1,42.7,23.9l.87,4.79-5.81,1.87-2.23-4.27a10.84,10.84,0,0,1-3.69-.79l-3.75,3.17-4.52-4.09,2.65-4.17a11.46,11.46,0,0,1-.76-1.79A10.92,10.92,0,0,1,25.07,17l-4.7-1.68,1.28-6,4.86.21A10.85,10.85,0,0,1,29,6.66l-.86-4.79L33.93,0Z"/><path class="cls-2" d="M35.84,23.91a8.63,8.63,0,1,0-8.63-8.63,8.65,8.65,0,0,0,8.63,8.63Z"/><path class="cls-3" d="M37.46,20.29a5.26,5.26,0,1,0-6.62-3.4,5.28,5.28,0,0,0,6.62,3.4Z"/></g></g><g id="Active-3" data-name="Active"><g id="Active1-2" data-name="Active1"><path class="cls-5" d="M15.44,33.34a5.7,5.7,0,0,1,1.94-.44l1.07-2.34,3.06.94-.34,2.57a6.06,6.06,0,0,1,.76.68,7.46,7.46,0,0,1,.56.7l2.6-.23.72,3.11-2.36,1a5.75,5.75,0,0,1-.54,1.9l1.47,2.08L22,45.47l-2-1.53a5.59,5.59,0,0,1-1.93.44L17,46.72,14,45.78l.34-2.57a6.06,6.06,0,0,1-.76-.68,6.23,6.23,0,0,1-.56-.71l-2.6.24L9.67,39,12,38a5.87,5.87,0,0,1,.54-1.91L11.1,34l2.34-2.17Z"/><path class="cls-2" d="M20.57,41.68a4.16,4.16,0,1,0-5.88-.21,4.16,4.16,0,0,0,5.88.21Z"/><path class="cls-3" d="M19.62,40.66a2.76,2.76,0,1,0-3.9-.15,2.77,2.77,0,0,0,3.9.15Z"/></g><g id="Active-4" data-name="Active"><path class="cls-6" d="M9.11,12.49A8.39,8.39,0,0,1,12,12.05l1.84-3.33,4.39,1.72-.77,3.74a8.69,8.69,0,0,1,1.79,2.19l3.86-.08L23.82,21l-3.57,1.19a8.32,8.32,0,0,1-1,2.74l2,3.23L17.5,31.07l-2.78-2.48a8.19,8.19,0,0,1-2.89.44L10,32.36l-4.4-1.72.77-3.74a8.69,8.69,0,0,1-1.79-2.19l-3.86.08L0,20.12l3.57-1.19a8.24,8.24,0,0,1,1-2.74L2.64,13l3.68-3Z"/><path class="cls-2" d="M14.28,26.78a6.67,6.67,0,1,0-8.61-3.87,6.68,6.68,0,0,0,8.61,3.87Z"/><path class="cls-3" d="M14.45,23.72a4.07,4.07,0,1,0-5.72-.63,4.08,4.08,0,0,0,5.72.63Z"/></g></g></g></g></g></g></svg>