<svg xmlns="http://www.w3.org/2000/svg" xmlns:xlink="http://www.w3.org/1999/xlink" viewBox="0 0 960 490" id="el_mzOXYJb1G"><style>@-webkit-keyframes kf_el_50yyk4GihW_an_-Rm2tOI0r{0%{-webkit-transform: translate(319.8500061035156px, 14.020000457763672px) translate(-319.8500061035156px, -14.020000457763672px) translate(0px, 0px);transform: translate(319.8500061035156px, 14.020000457763672px) translate(-319.8500061035156px, -14.020000457763672px) translate(0px, 0px);}16.67%{-webkit-transform: translate(319.8500061035156px, 14.020000457763672px) translate(-319.8500061035156px, -14.020000457763672px) translate(500px, 0px);transform: translate(319.8500061035156px, 14.020000457763672px) translate(-319.8500061035156px, -14.020000457763672px) translate(500px, 0px);}66.67%{-webkit-transform: translate(319.8500061035156px, 14.020000457763672px) translate(-319.8500061035156px, -14.020000457763672px) translate(0px, 0px);transform: translate(319.8500061035156px, 14.020000457763672px) translate(-319.8500061035156px, -14.020000457763672px) translate(0px, 0px);}100%{-webkit-transform: translate(319.8500061035156px, 14.020000457763672px) translate(-319.8500061035156px, -14.020000457763672px) translate(0px, 0px);transform: translate(319.8500061035156px, 14.020000457763672px) translate(-319.8500061035156px, -14.020000457763672px) translate(0px, 0px);}}@keyframes kf_el_50yyk4GihW_an_-Rm2tOI0r{0%{-webkit-transform: translate(319.8500061035156px, 14.020000457763672px) translate(-319.8500061035156px, -14.020000457763672px) translate(0px, 0px);transform: translate(319.8500061035156px, 14.020000457763672px) translate(-319.8500061035156px, -14.020000457763672px) translate(0px, 0px);}16.67%{-webkit-transform: translate(319.8500061035156px, 14.020000457763672px) translate(-319.8500061035156px, -14.020000457763672px) translate(500px, 0px);transform: translate(319.8500061035156px, 14.020000457763672px) translate(-319.8500061035156px, -14.020000457763672px) translate(500px, 0px);}66.67%{-webkit-transform: translate(319.8500061035156px, 14.020000457763672px) translate(-319.8500061035156px, -14.020000457763672px) translate(0px, 0px);transform: translate(319.8500061035156px, 14.020000457763672px) translate(-319.8500061035156px, -14.020000457763672px) translate(0px, 0px);}100%{-webkit-transform: translate(319.8500061035156px, 14.020000457763672px) translate(-319.8500061035156px, -14.020000457763672px) translate(0px, 0px);transform: translate(319.8500061035156px, 14.020000457763672px) translate(-319.8500061035156px, -14.020000457763672px) translate(0px, 0px);}}@-webkit-keyframes kf_el_LoKa6FlQUd_an_JIEOtMWo3{0%{opacity: 0.6;}16.67%{opacity: 0;}66.67%{opacity: 0.4;}100%{opacity: 0.4;}}@keyframes kf_el_LoKa6FlQUd_an_JIEOtMWo3{0%{opacity: 0.6;}16.67%{opacity: 0;}66.67%{opacity: 0.4;}100%{opacity: 0.4;}}@-webkit-keyframes kf_el_A-pVMSYWM5_an_9xRHAnMpT{0%{-webkit-transform: translate(448.3800048828125px, 32.619998931884766px) translate(-448.3800048828125px, -32.619998931884766px) translate(0px, 0px);transform: translate(448.3800048828125px, 32.619998931884766px) translate(-448.3800048828125px, -32.619998931884766px) translate(0px, 0px);}16.67%{-webkit-transform: translate(448.3800048828125px, 32.619998931884766px) translate(-448.3800048828125px, -32.619998931884766px) translate(-400px, 0px);transform: translate(448.3800048828125px, 32.619998931884766px) translate(-448.3800048828125px, -32.619998931884766px) translate(-400px, 0px);}66.67%{-webkit-transform: translate(448.3800048828125px, 32.619998931884766px) translate(-448.3800048828125px, -32.619998931884766px) translate(0px, 0px);transform: translate(448.3800048828125px, 32.619998931884766px) translate(-448.3800048828125px, -32.619998931884766px) translate(0px, 0px);}100%{-webkit-transform: translate(448.3800048828125px, 32.619998931884766px) translate(-448.3800048828125px, -32.619998931884766px) translate(0px, 0px);transform: translate(448.3800048828125px, 32.619998931884766px) translate(-448.3800048828125px, -32.619998931884766px) translate(0px, 0px);}}@keyframes kf_el_A-pVMSYWM5_an_9xRHAnMpT{0%{-webkit-transform: translate(448.3800048828125px, 32.619998931884766px) translate(-448.3800048828125px, -32.619998931884766px) translate(0px, 0px);transform: translate(448.3800048828125px, 32.619998931884766px) translate(-448.3800048828125px, -32.619998931884766px) translate(0px, 0px);}16.67%{-webkit-transform: translate(448.3800048828125px, 32.619998931884766px) translate(-448.3800048828125px, -32.619998931884766px) translate(-400px, 0px);transform: translate(448.3800048828125px, 32.619998931884766px) translate(-448.3800048828125px, -32.619998931884766px) translate(-400px, 0px);}66.67%{-webkit-transform: translate(448.3800048828125px, 32.619998931884766px) translate(-448.3800048828125px, -32.619998931884766px) translate(0px, 0px);transform: translate(448.3800048828125px, 32.619998931884766px) translate(-448.3800048828125px, -32.619998931884766px) translate(0px, 0px);}100%{-webkit-transform: translate(448.3800048828125px, 32.619998931884766px) translate(-448.3800048828125px, -32.619998931884766px) translate(0px, 0px);transform: translate(448.3800048828125px, 32.619998931884766px) translate(-448.3800048828125px, -32.619998931884766px) translate(0px, 0px);}}@-webkit-keyframes kf_el_0yqSU384gl_an_mvPeOpa8z{16.67%{opacity: 0;}66.67%{opacity: 0.6;}0%{opacity: 0;}100%{opacity: 0.6;}}@keyframes kf_el_0yqSU384gl_an_mvPeOpa8z{16.67%{opacity: 0;}66.67%{opacity: 0.6;}0%{opacity: 0;}100%{opacity: 0.6;}}@-webkit-keyframes kf_el_188iFRldbK_an_3PIU_s1JO{0%{opacity: 1;}16.67%{opacity: 0;}66.67%{opacity: 1;}100%{opacity: 1;}}@keyframes kf_el_188iFRldbK_an_3PIU_s1JO{0%{opacity: 1;}16.67%{opacity: 0;}66.67%{opacity: 1;}100%{opacity: 1;}}@-webkit-keyframes kf_el_CSuD5YbFVT__an_VZ4BGtxxQ{16.67%{-webkit-transform: translate(0px, -12.859375px) translate(0px, 12.859375px) translate(0px, 0px);transform: translate(0px, -12.859375px) translate(0px, 12.859375px) translate(0px, 0px);}34.44%{-webkit-transform: translate(0px, -12.859375px) translate(0px, 12.859375px) translate(-300px, -100px);transform: translate(0px, -12.859375px) translate(0px, 12.859375px) translate(-300px, -100px);}66.67%{-webkit-transform: translate(0px, -12.859375px) translate(0px, 12.859375px) translate(0px, 0px);transform: translate(0px, -12.859375px) translate(0px, 12.859375px) translate(0px, 0px);}0%{-webkit-transform: translate(0px, -12.859375px) translate(0px, 12.859375px) translate(0px, 0px);transform: translate(0px, -12.859375px) translate(0px, 12.859375px) translate(0px, 0px);}100%{-webkit-transform: translate(0px, -12.859375px) translate(0px, 12.859375px) translate(0px, 0px);transform: translate(0px, -12.859375px) translate(0px, 12.859375px) translate(0px, 0px);}}@keyframes kf_el_CSuD5YbFVT__an_VZ4BGtxxQ{16.67%{-webkit-transform: translate(0px, -12.859375px) translate(0px, 12.859375px) translate(0px, 0px);transform: translate(0px, -12.859375px) translate(0px, 12.859375px) translate(0px, 0px);}34.44%{-webkit-transform: translate(0px, -12.859375px) translate(0px, 12.859375px) translate(-300px, -100px);transform: translate(0px, -12.859375px) translate(0px, 12.859375px) translate(-300px, -100px);}66.67%{-webkit-transform: translate(0px, -12.859375px) translate(0px, 12.859375px) translate(0px, 0px);transform: translate(0px, -12.859375px) translate(0px, 12.859375px) translate(0px, 0px);}0%{-webkit-transform: translate(0px, -12.859375px) translate(0px, 12.859375px) translate(0px, 0px);transform: translate(0px, -12.859375px) translate(0px, 12.859375px) translate(0px, 0px);}100%{-webkit-transform: translate(0px, -12.859375px) translate(0px, 12.859375px) translate(0px, 0px);transform: translate(0px, -12.859375px) translate(0px, 12.859375px) translate(0px, 0px);}}@-webkit-keyframes kf_el_VUXJzcoxgdu_an_hCy6lwihL{34.44%{-webkit-transform: translate(0px, -12.984375px) rotate(361deg) translate(0px, 12.984375px);transform: translate(0px, -12.984375px) rotate(361deg) translate(0px, 12.984375px);}0%{-webkit-transform: translate(0px, -12.984375px) rotate(361deg) translate(0px, 12.984375px);transform: translate(0px, -12.984375px) rotate(361deg) translate(0px, 12.984375px);}100%{-webkit-transform: translate(0px, -12.984375px) rotate(361deg) translate(0px, 12.984375px);transform: translate(0px, -12.984375px) rotate(361deg) translate(0px, 12.984375px);}}@keyframes kf_el_VUXJzcoxgdu_an_hCy6lwihL{34.44%{-webkit-transform: translate(0px, -12.984375px) rotate(361deg) translate(0px, 12.984375px);transform: translate(0px, -12.984375px) rotate(361deg) translate(0px, 12.984375px);}0%{-webkit-transform: translate(0px, -12.984375px) rotate(361deg) translate(0px, 12.984375px);transform: translate(0px, -12.984375px) rotate(361deg) translate(0px, 12.984375px);}100%{-webkit-transform: translate(0px, -12.984375px) rotate(361deg) translate(0px, 12.984375px);transform: translate(0px, -12.984375px) rotate(361deg) translate(0px, 12.984375px);}}@-webkit-keyframes kf_el_VUXJzcoxgdu_an_1LmqxkWhS{0%{-webkit-transform: translate(0px, -12.984375px) translate(0px, 12.984375px) translate(200px, 290px);transform: translate(0px, -12.984375px) translate(0px, 12.984375px) translate(200px, 290px);}34.44%{-webkit-transform: translate(0px, -12.984375px) translate(0px, 12.984375px) translate(200px, 200px);transform: translate(0px, -12.984375px) translate(0px, 12.984375px) translate(200px, 200px);}66.67%{-webkit-transform: translate(0px, -12.984375px) translate(0px, 12.984375px) translate(200px, 290px);transform: translate(0px, -12.984375px) translate(0px, 12.984375px) translate(200px, 290px);}100%{-webkit-transform: translate(0px, -12.984375px) translate(0px, 12.984375px) translate(200px, 290px);transform: translate(0px, -12.984375px) translate(0px, 12.984375px) translate(200px, 290px);}}@keyframes kf_el_VUXJzcoxgdu_an_1LmqxkWhS{0%{-webkit-transform: translate(0px, -12.984375px) translate(0px, 12.984375px) translate(200px, 290px);transform: translate(0px, -12.984375px) translate(0px, 12.984375px) translate(200px, 290px);}34.44%{-webkit-transform: translate(0px, -12.984375px) translate(0px, 12.984375px) translate(200px, 200px);transform: translate(0px, -12.984375px) translate(0px, 12.984375px) translate(200px, 200px);}66.67%{-webkit-transform: translate(0px, -12.984375px) translate(0px, 12.984375px) translate(200px, 290px);transform: translate(0px, -12.984375px) translate(0px, 12.984375px) translate(200px, 290px);}100%{-webkit-transform: translate(0px, -12.984375px) translate(0px, 12.984375px) translate(200px, 290px);transform: translate(0px, -12.984375px) translate(0px, 12.984375px) translate(200px, 290px);}}@-webkit-keyframes kf_el_y8bs-NOxwSp_an_meHRd2hiK{16.67%{-webkit-transform: translate(245.69000244140625px, 168.75px) translate(-245.69000244140625px, -168.75px) translate(0px, 1px);transform: translate(245.69000244140625px, 168.75px) translate(-245.69000244140625px, -168.75px) translate(0px, 1px);}26.67%{-webkit-transform: translate(245.69000244140625px, 168.75px) translate(-245.69000244140625px, -168.75px) translate(100px, 100px);transform: translate(245.69000244140625px, 168.75px) translate(-245.69000244140625px, -168.75px) translate(100px, 100px);}66.67%{-webkit-transform: translate(245.69000244140625px, 168.75px) translate(-245.69000244140625px, -168.75px) translate(0px, 0px);transform: translate(245.69000244140625px, 168.75px) translate(-245.69000244140625px, -168.75px) translate(0px, 0px);}0%{-webkit-transform: translate(245.69000244140625px, 168.75px) translate(-245.69000244140625px, -168.75px) translate(0px, 1px);transform: translate(245.69000244140625px, 168.75px) translate(-245.69000244140625px, -168.75px) translate(0px, 1px);}100%{-webkit-transform: translate(245.69000244140625px, 168.75px) translate(-245.69000244140625px, -168.75px) translate(0px, 0px);transform: translate(245.69000244140625px, 168.75px) translate(-245.69000244140625px, -168.75px) translate(0px, 0px);}}@keyframes kf_el_y8bs-NOxwSp_an_meHRd2hiK{16.67%{-webkit-transform: translate(245.69000244140625px, 168.75px) translate(-245.69000244140625px, -168.75px) translate(0px, 1px);transform: translate(245.69000244140625px, 168.75px) translate(-245.69000244140625px, -168.75px) translate(0px, 1px);}26.67%{-webkit-transform: translate(245.69000244140625px, 168.75px) translate(-245.69000244140625px, -168.75px) translate(100px, 100px);transform: translate(245.69000244140625px, 168.75px) translate(-245.69000244140625px, -168.75px) translate(100px, 100px);}66.67%{-webkit-transform: translate(245.69000244140625px, 168.75px) translate(-245.69000244140625px, -168.75px) translate(0px, 0px);transform: translate(245.69000244140625px, 168.75px) translate(-245.69000244140625px, -168.75px) translate(0px, 0px);}0%{-webkit-transform: translate(245.69000244140625px, 168.75px) translate(-245.69000244140625px, -168.75px) translate(0px, 1px);transform: translate(245.69000244140625px, 168.75px) translate(-245.69000244140625px, -168.75px) translate(0px, 1px);}100%{-webkit-transform: translate(245.69000244140625px, 168.75px) translate(-245.69000244140625px, -168.75px) translate(0px, 0px);transform: translate(245.69000244140625px, 168.75px) translate(-245.69000244140625px, -168.75px) translate(0px, 0px);}}#el_mzOXYJb1G *{-webkit-animation-duration: 3s;animation-duration: 3s;-webkit-animation-iteration-count: infinite;animation-iteration-count: infinite;-webkit-animation-timing-function: cubic-bezier(0, 0, 1, 1);animation-timing-function: cubic-bezier(0, 0, 1, 1);}#el_c7qhtRStEt{isolation: isolate;}#el_188iFRldbK{fill: #6d5d4d;mix-blend-mode: overlay;-webkit-animation-fill-mode: backwards;animation-fill-mode: backwards;opacity: 1;-webkit-animation-name: kf_el_188iFRldbK_an_3PIU_s1JO;animation-name: kf_el_188iFRldbK_an_3PIU_s1JO;-webkit-animation-timing-function: cubic-bezier(0, 0, 1, 1);animation-timing-function: cubic-bezier(0, 0, 1, 1);}#el_A-pVMSYWM5{fill: #d62828;}#el_50yyk4GihW{fill: #00557a;}#el_LoKa6FlQUd{fill-rule: evenodd;mix-blend-mode: multiply;opacity: 0.6;fill: url(#linear-gradient);visibility: hidden;-webkit-animation-fill-mode: backwards;animation-fill-mode: backwards;-webkit-animation-name: kf_el_LoKa6FlQUd_an_JIEOtMWo3;animation-name: kf_el_LoKa6FlQUd_an_JIEOtMWo3;-webkit-animation-timing-function: cubic-bezier(0, 0, 1, 1);animation-timing-function: cubic-bezier(0, 0, 1, 1);}#el_0yqSU384gl{fill-rule: evenodd;mix-blend-mode: multiply;opacity: 0;fill: url(#linear-gradient-2);-webkit-animation-fill-mode: backwards;animation-fill-mode: backwards;-webkit-animation-name: kf_el_0yqSU384gl_an_mvPeOpa8z;animation-name: kf_el_0yqSU384gl_an_mvPeOpa8z;-webkit-animation-timing-function: cubic-bezier(0, 0, 1, 1);animation-timing-function: cubic-bezier(0, 0, 1, 1);}#el_ziZUexmTu7{font-size: 29.24px;fill: #ced309;font-family: Courgette-Regular, Courgette;-webkit-transform: translate(422.21px, 343.04px) scale(0.74, 1);transform: translate(422.21px, 343.04px) scale(0.74, 1);}#el_rgfy0iunHh{fill: #fff;}#el_priwmlMI4Y{fill: #fff;}#el_roDsk3-BoOP{fill: #d62828;stroke: #d62828;stroke-miterlimit: 10;stroke-width: 4px;}#el_fEH-kNnQohB{fill: #d62828;-webkit-transform: translate(-1.71px, 3.72px) rotate(-0.56deg);transform: translate(-1.71px, 3.72px) rotate(-0.56deg);}#el_NgQRZcrmaZS{stroke-miterlimit: 10;stroke-width: 4px;fill: #003049;stroke: #003049;}#el_u5hOd7F3inu{fill: #003049;-webkit-transform: translate(-1.83px, 3.49px) rotate(-0.56deg);transform: translate(-1.83px, 3.49px) rotate(-0.56deg);}#el_FHYrBTfOPBI{stroke-miterlimit: 10;stroke-width: 4px;fill: #003049;stroke: #003049;}#el_twxIBbxygzc{fill: #003049;-webkit-transform: translate(-1.8px, 3.94px) rotate(-0.56deg);transform: translate(-1.8px, 3.94px) rotate(-0.56deg);}#el_w4vgiDqP9ob{fill: #d62828;stroke: #d62828;stroke-miterlimit: 10;stroke-width: 4px;}#el_bfZRR6q_Wia{fill: #d62828;stroke: #d62828;stroke-miterlimit: 10;stroke-width: 4px;-webkit-transform: translate(-1.66px, 4.15px) rotate(-0.56deg);transform: translate(-1.66px, 4.15px) rotate(-0.56deg);}#el_s1SFq6DorXO{fill: #d62828;stroke: #d62828;stroke-miterlimit: 10;stroke-width: 4px;}#el_eC2CRDhyQKJ{fill: #d62828;-webkit-transform: translate(-1.84px, 3.26px) rotate(-0.56deg);transform: translate(-1.84px, 3.26px) rotate(-0.56deg);}#el_y8bs-NOxwSp{opacity: 0.6;fill: url(#linear-gradient-2);}#el_UzzXFy1Vu4Q{fill: #f77f00;}#el_-_iIrZrvEwx{fill: #f77f00;}#el_84UbC6Ileey{fill: #994900;}#el_Nyh-JqxkMx5{fill: #f77f00;}#el_QEcp6muLhdZ{fill: #994900;}#el_Fe1VoRQ9kF2{fill: #f77f00;}#el_Swt-n-7XipI{fill: #994900;}#el_3IwwvmR0dfp{fill: #f77f00;}#el__5MbB3wCsKQ{fill: #994900;}#el_6GbyEyLMErK{fill: #f77f00;}#el_RF-6j84jAZi{fill: #994900;}#el_C9DvY7utaVq{fill: #f77f00;}#el_VUXJzcoxgdu{fill: #00557a;font-size: 110.9px;font-family: BerlinSansFB-Reg, Berlin Sans FB;-webkit-transform: matrix(1,, -0.01,, 0.01,, 1,, 227.15,, 292.21);transform: matrix(1,, -0.01,, 0.01,, 1,, 227.15,, 292.21);}#el_cln7-8ouqyu{fill: #d62828;}#el_CSuD5YbFVT_{fill: #003049;font-family: BerlinSansFB-Reg, Berlin Sans FB;font-size: 38.87px;-webkit-transform: translate(526.8px, 206.25px) rotate(-0.56deg) scale(0.68, 1);transform: translate(526.8px, 206.25px) rotate(-0.56deg) scale(0.68, 1);}#el_kFTeJGZhWTO{fill: #d62828;font-size: 7.91px;font-family: MyriadPro-Regular, Myriad Pro;-webkit-transform: translate(683.41px, 227.18px);transform: translate(683.41px, 227.18px);}#el_y8bs-NOxwSp_an_4ojsCo1bF{-webkit-transform: translate(245.69000244140625px, 168.75px) rotate(0deg) translate(-245.69000244140625px, -168.75px);transform: translate(245.69000244140625px, 168.75px) rotate(0deg) translate(-245.69000244140625px, -168.75px);}#el_y8bs-NOxwSp_an_meHRd2hiK{-webkit-animation-fill-mode: backwards;animation-fill-mode: backwards;-webkit-transform: translate(245.69000244140625px, 168.75px) translate(-245.69000244140625px, -168.75px) translate(0px, 1px);transform: translate(245.69000244140625px, 168.75px) translate(-245.69000244140625px, -168.75px) translate(0px, 1px);-webkit-animation-name: kf_el_y8bs-NOxwSp_an_meHRd2hiK;animation-name: kf_el_y8bs-NOxwSp_an_meHRd2hiK;-webkit-animation-timing-function: cubic-bezier(0.42, 0, 0.58, 1);animation-timing-function: cubic-bezier(0.42, 0, 0.58, 1);}#el_VUXJzcoxgdu_an_1LmqxkWhS{-webkit-animation-fill-mode: backwards;animation-fill-mode: backwards;-webkit-transform: translate(0px, -12.984375px) translate(0px, 12.984375px) translate(200px, 290px);transform: translate(0px, -12.984375px) translate(0px, 12.984375px) translate(200px, 290px);-webkit-animation-name: kf_el_VUXJzcoxgdu_an_1LmqxkWhS;animation-name: kf_el_VUXJzcoxgdu_an_1LmqxkWhS;-webkit-animation-timing-function: cubic-bezier(0, 0, 1, 1);animation-timing-function: cubic-bezier(0, 0, 1, 1);}#el_VUXJzcoxgdu_an_hCy6lwihL{-webkit-animation-fill-mode: backwards;animation-fill-mode: backwards;-webkit-transform: translate(0px, -12.984375px) rotate(361deg) translate(0px, 12.984375px);transform: translate(0px, -12.984375px) rotate(361deg) translate(0px, 12.984375px);-webkit-animation-name: kf_el_VUXJzcoxgdu_an_hCy6lwihL;animation-name: kf_el_VUXJzcoxgdu_an_hCy6lwihL;-webkit-animation-timing-function: cubic-bezier(0, 0, 1, 1);animation-timing-function: cubic-bezier(0, 0, 1, 1);}#el_CSuD5YbFVT__an_VZ4BGtxxQ{-webkit-animation-fill-mode: backwards;animation-fill-mode: backwards;-webkit-transform: translate(0px, -12.859375px) translate(0px, 12.859375px) translate(0px, 0px);transform: translate(0px, -12.859375px) translate(0px, 12.859375px) translate(0px, 0px);-webkit-animation-name: kf_el_CSuD5YbFVT__an_VZ4BGtxxQ;animation-name: kf_el_CSuD5YbFVT__an_VZ4BGtxxQ;-webkit-animation-timing-function: cubic-bezier(0, 0, 1, 1);animation-timing-function: cubic-bezier(0, 0, 1, 1);}#el_0yqSU384gl_an_zMi4JV300{-webkit-transform: translate(483.40997314453125px, 42.88999938964844px) translate(-483.40997314453125px, -42.88999938964844px) translate(-100px, 0px);transform: translate(483.40997314453125px, 42.88999938964844px) translate(-483.40997314453125px, -42.88999938964844px) translate(-100px, 0px);}#el_A-pVMSYWM5_an_9xRHAnMpT{-webkit-animation-fill-mode: backwards;animation-fill-mode: backwards;-webkit-transform: translate(448.3800048828125px, 32.619998931884766px) translate(-448.3800048828125px, -32.619998931884766px) translate(0px, 0px);transform: translate(448.3800048828125px, 32.619998931884766px) translate(-448.3800048828125px, -32.619998931884766px) translate(0px, 0px);-webkit-animation-name: kf_el_A-pVMSYWM5_an_9xRHAnMpT;animation-name: kf_el_A-pVMSYWM5_an_9xRHAnMpT;-webkit-animation-timing-function: cubic-bezier(0, 0, 1, 1);animation-timing-function: cubic-bezier(0, 0, 1, 1);}#el_50yyk4GihW_an_-Rm2tOI0r{-webkit-animation-fill-mode: backwards;animation-fill-mode: backwards;-webkit-transform: translate(319.8500061035156px, 14.020000457763672px) translate(-319.8500061035156px, -14.020000457763672px) translate(0px, 0px);transform: translate(319.8500061035156px, 14.020000457763672px) translate(-319.8500061035156px, -14.020000457763672px) translate(0px, 0px);-webkit-animation-name: kf_el_50yyk4GihW_an_-Rm2tOI0r;animation-name: kf_el_50yyk4GihW_an_-Rm2tOI0r;-webkit-animation-timing-function: cubic-bezier(0, 0, 1, 1);animation-timing-function: cubic-bezier(0, 0, 1, 1);}</style><defs><linearGradient id="linear-gradient" x1="607.25" y1="91.9" x2="476.38" y2="91.9" gradientTransform="matrix(-1, 0, 0, 1, 922.77, 0)" gradientUnits="userSpaceOnUse"><stop offset="0" stop-color="#72c953"/><stop offset="0.22" stop-color="#6cbf4c"/><stop offset="0.59" stop-color="#5ca33b"/><stop offset="1" stop-color="#477d23"/></linearGradient><linearGradient id="linear-gradient-2" x1="446.22" y1="-9.69" x2="355.24" y2="123.4" gradientTransform="matrix(-1, 0, 0, 1, 922.77, 0)" gradientUnits="userSpaceOnUse"><stop offset="0.05" stop-color="#da242f"/><stop offset="0.24" stop-color="#d0202c"/><stop offset="0.56" stop-color="#b41423"/><stop offset="0.98" stop-color="#870114"/><stop offset="1" stop-color="#840013"/></linearGradient></defs><title>OSotoroMundoUnder</title><g id="el_c7qhtRStEt"><g id="el_LzNGthW7S3" data-name="Capa 1"><path id="el_188iFRldbK" d="M118.58,113.06c1.75,0,2,.62,3.46,0s5.91-3.49,7.41-3.88,2.46.12.25,1.33-6.63,3.82-5.84,3.62a55.56,55.56,0,0,0,6.2-2.6c3.17-1.47,2.88-.82,3.7-2.39l1.25-2.38s5,5.06,5.49,5.25.64,0,.89-.65.78-1.5,1.49-1.21.11,1.51.54,1.67,1.14,0,2.45-.46.65-1.37.65-1.37-.15,0,1.39-.16,6.34,1.6,7.76,2.15,5.74,1,7,1.4,1.67-.68,3.34.2,2.93,2,1.68,2.67-4.38,1.08-2.78,1.47a24.89,24.89,0,0,0,6.34.81c2.32-.06,6.49-.91,7.77-.91s2.06.79,3.28,2.77,2.17,2.78,2.63,2.94-.46-1-.21-1.93a7.58,7.58,0,0,0-.53-3.55c-.29-.65,0-1-.57-1.92s-1.5-.79.21-1.6,2.89-2,5-1.76,2.64,2.84,4.42,3,2.11.88,5.17,1.11,1.78,0,5.2.26,2.18-.36,2.88-2.09,1.5-2,2.32-2,3.71.46,3.71.82-1.21,2.22-.61,3.13a14.44,14.44,0,0,0,3.07,2.41s-.53-2.08-.53-2.31-.19-1.86.17-2.16,2.39.17,3.67-2.28-.85-2.31-.85-2.31-.79,0-.4-1,2.68-1.63,2.68-1.63.14.46-.15-.36-1.78-.65-3.38-.75-2.71-.32-3-1.66a38.74,38.74,0,0,1-.39-6.07c0-1.92,1.57-1.24,1.85-2.31a27.5,27.5,0,0,0-.45-7.4c-.4-1.08.56-3.4.78-4.93s1.82-.85,1.82-.85c-.29-.52.45-2,2.6-2.6s6.2,0,6.2,0-.36,0-1.36,1.3-.35,3.53-1.85,5.12S217,88.18,217,88.18s1.18,2.64.67,3.49a10.2,10.2,0,0,0-.81,2.57s3.35.91,3.53,3,1.85,2.45,2.24,4.37-1.64,3.53-1.21,3.82.57.42,1.78.49,2.85.29,2.85.29a2,2,0,0,0-.07,2c.6,1,.14,1.7.21,2.8s.75,2.06,1,1.86a16.54,16.54,0,0,0,1.9-4.3c.28-1.27.49-2,1.06-2a6.22,6.22,0,0,1,2.71,2.35c.22.62.36,1.47-.71,3.17s-1,2.47,0,3.13a13.75,13.75,0,0,0,2.64,1.23c1.67.79,1.35.72,2.39.43s-.43-2.87-.33-2.94,2.46-.32,1.93-1.63-1.07-2,0-2.6,1.9-1.18,1.9-1.18a12.26,12.26,0,0,1-1.4-3.07c-.78-2.18.68-1.59,3.75-1.36s3.2,1.27,4.85,2.08.6,1.11,1.13,2.42-1.35,1.49-1.35,1.49-1.25.23-1,1.24a17.7,17.7,0,0,0,1.75,3.79c.89,1.56-.26,2.64-1.65,3.91a6.76,6.76,0,0,1-4.66,1.66c-1.65,0-2.35.69-2.46.23s-.9-.88-1.78-.68-2.93,1-2.21,1.23,2.6.2,1.82,1.64-1.47,1.43-3,1.27-3-.17-4-.23l-5.91-.36a34.1,34.1,0,0,0,6,2.81,13.1,13.1,0,0,0,5.41.32s-1.07,2-2.35,4-2.5,1.17-3.56,1.3-1.71,1-3.71,1.24-6.16-.56-5.52-.26.92.81,2.06,1a4.91,4.91,0,0,1,2.86,1.17c1,.81-.65,1-2,1.24a2.8,2.8,0,0,0-2.28,1.27c-.6.82-2.85,4-3.56,5a10.5,10.5,0,0,0-1.64,4.53c-.29,1.92-2,4.24-1.21,4.73s3.56.55,4.74,1.27,2.49,4.24,3.38,5.57,1.61,2.36,2.6,1.31,3-.78,4.82-.13a28.25,28.25,0,0,1,6.8,4.37c1.18,1.14,3.24.94,5.56,1.27s2.57,1.18,2.57,1.18,2.42.12,1.42,1.13-1.28,0-.29,1.73a7.6,7.6,0,0,1,.69,5.12c-.29,1.15,3.18.57,4.65,1.42s1.54,4.29,2.29,3.87,2-1.18,2.14-2.09a18,18,0,0,0-.18-3.68c-.15-1.57-.53-4.44-1.32-5.58s1.41-1.6,1.06-2.09-.27-1.47,1.22-1.86,1.61,0,2.42-.65,1-3.52,1.11-4.57a11,11,0,0,0-.61-4.13,25.88,25.88,0,0,0-2.35-4.15c-.53-.58-1.21-.75.25-2.57s.61-1.44.39-2-.53-1.93-.81-3.17.6-2.61.07-4.37-1.11-1.36-1-1.76,3.49-.29,6,0a14.49,14.49,0,0,0,4.2-.26,8.73,8.73,0,0,1,3.38,1.57c1.39.88,1.93.65,2.64,1.73s1.1,1.66,2.56,1.59a8.16,8.16,0,0,1,3,.62s-1,.59-.86,2.52a26.93,26.93,0,0,1-.18,4.1c0,.78.44.82,1.11.91s2.5,1.7,4.38,2.35,2.38.46,3-1,.75-1.37,1.5-1.47,1,.16,1.31-.16-.57-1-.35-2a7.19,7.19,0,0,1,2.1-3.2c.85-.78,1.46.78,2.21,2.22s3.35,6.09,4.1,7.63,1.71,1.63.82,3.06-1.32,2.06.07,2.71,2.64,1.8,2.53,2.87-.39,1.11.07,1.4,2.14-.58,3.35-.06a11.74,11.74,0,0,1,3.53,1.86c.85.84.79,1.14-.43,1.56a22.15,22.15,0,0,0-3,1.21c-.6.36-1.56,1-1.53,1.59s-.25,1.47.71.76a13.1,13.1,0,0,1,3.67-1.77c1.14-.32.29,0,1.32-.16s2,.49,3.46.88,1,1.27.68,2.09a2.43,2.43,0,0,0-.11,2.51c.57.91-.25,1.73-1.5,2.84s-2.17,1.27-4.2,1.53-3,1.47-4.42,2.77-2.14,1-4.2,1.08-1.25-1-1.89-.79a8.54,8.54,0,0,1-2.78,1.05c-1.32.13-5.78.19-7.49.68s-1.17,1.63-1.6,2.58-1.11.55-2.39,1-2.82,2.29-4.31,4.83a15.86,15.86,0,0,1-3.52,4.11,11.16,11.16,0,0,0,3.55-2.61c1-1.24,5.35-4.17,6.67-5.08s4.17-2.26,4.85-2.06,2.35,1.47,2.35,2.12-.5,1.18-1.71,2.28-2.82,0-2.71.46a3.09,3.09,0,0,0,1.89,1.73c.93.22.88,1.34.88,1.89s-.53,1.27,1.61,3a6.62,6.62,0,0,0,5.2,1.8c1.57-.1.75.52,1.4.45s.78-1.27,1-2.25a4,4,0,0,1,1.14-2.32c.57-.42,1-1.2,1.18.3s-.65,3.55-1.47,4-.64,1-.64,1.5-.92.49-3.13,1.69-2.92,1.51-3.31,1.34-1.22.2-2.28,1.15-2.21,2.21-3,2.18-1.47-.36-.4-1.44,1.43-2.57,2.5-3.1a4.37,4.37,0,0,1,2.45-.45c.89,0,.47-.52,1.18-1s-.54-.37-1.75-.56-.28-1.24-.28-1.24l-1.25.66a16.43,16.43,0,0,1-2.39,1c-.49.06-.39.39-.53.58a7.43,7.43,0,0,1-1.93.33s-.92,1.86-2.31,2.12-.42.17-1.43.59-.81-.49-1-.23a6.51,6.51,0,0,1-1.49,1.3c-1.11.82-1.76,1.08-2.53,4.05a7.08,7.08,0,0,0,.1,4.5c0,.45-1.39-.3-1.78.06a6.42,6.42,0,0,1-2.46,1.8c-1.18.32-3.49.91-4,1.46s-.57,1.34-.82,2.48a24.33,24.33,0,0,1-1.63,3.82,1.81,1.81,0,0,0-.65-1.86c-1-.79-.81-1.5-.81-1.5a4.76,4.76,0,0,0,.14,2.18c.36,1.11,1.07,2.22.75,3.43s-.93,2.7-1.68,3.13.18-.82.18-1.79-.5-1-.82-1.54-.32-1.73.25-3.39-.53-.65-1.18.46-1.1,3.16-.11,4.5-.64,1.2,0,3.13-.81,2.87-.54,3.16,1.07-.13,1.43.82-.71.52-1.06.78-.19.62,0,1.14.64.19.46.36a3.9,3.9,0,0,1-1.6,1.11c-.92.29-1-.17-1.57.49s-1,1.24-1.6,2-1,.49-1.68,1-.89.94-1.68,1.59a19.3,19.3,0,0,0-3.52,2.94c-1,1.27-.71,1.59-1.18,3.65s1.18,5.64,2.22,9,1.46,2.45,1.31,3.53a5.75,5.75,0,0,1-1.36,3.12c-.74.76-1.16-.52-2.2-1.27s-.22-1.27-1.21-2.83a5.46,5.46,0,0,1-1-3.26,14,14,0,0,0-.81-4c-.54-1.24-1.68-2.8-3.39-2.18s-1.28.33-2.21.06-3.38-1.23-4.63-.58-5.2-.2-6,0-1.42.26-1.42.81-.35.65,1.11,1,1.24.82,1.14,1.44-1.18-.32-1.75-.55-1.11.45-2.1.45-1.18-.94-2.07-1.07a7.43,7.43,0,0,1-2.1-.33,7.69,7.69,0,0,0-3-.81c-1,.06-4.85,2.57-6.67,3.91s-3.21,2.64-3.63,3.71-.47,1.18,1,2.78.78,1.34.49,2.25-1.14,2-2.17,4.37-.43,3.49.82,5.74a21.08,21.08,0,0,0,3.35,4.82,11.75,11.75,0,0,0,2.56,2.32,3.41,3.41,0,0,1,1.43.88c.39.39.28.55,1.64.19a16.3,16.3,0,0,1,3.31-.88,3.57,3.57,0,0,1,2.39.53c.53.48.61.19.61-.07a6.14,6.14,0,0,1,.57-1.5,13.88,13.88,0,0,0,1.63-3c.22-1,.22-2.94,1.47-3.07a33.41,33.41,0,0,1,6.34-.59c2.42.17,1.35,1.34.72,2.58s-.9,1.37-.9,2.32.29.94-.5,1.5-.28-.33-.6.22a4.84,4.84,0,0,1-1.32,1.21c.14-.13.5.95.5,1.47s-.11.78-.11,2-2.53,2.58-2.53,2.58a5.07,5.07,0,0,0,2.28.52,10.62,10.62,0,0,1,4.42.65c1.42.66,4.13-.52,6.13.46s1.29,1.56,1.42,2.48a27,27,0,0,1,.22,4.76c-.15.71-1.08,2.74-1.57,4.18s1.42,2.47,3.21,3.65a15,15,0,0,0,4.28,1.95c.91.26,2.63-1.37,5.77-1.17a4.93,4.93,0,0,1,4.2,2.8,13,13,0,0,1,1.78-3.85c1.43-2.21,1.49-2.87,3.42-3.58s2.57-.85,5.71-1.83,2.56-.26,4.19-.13a46.88,46.88,0,0,1,9.2,1.56c3.77,1.11,9.55,1.44,11.76,2.35s3.2,3.46,5.49,5.55,5.13,4,6.34,5,8,1.9,9.48,2.48,3.56,3,3.7,4.43,1.64,2.16,3.7,3,2.72,1.82,4.07,4.43.93,3.33,2.78,4,14.68,4,17.89,5.28,7.26,4.57,8.34,5,3-.33,3.84.13-.5,2.93.57,4.69,1.14,1.9.5,3.2-3.2,4.44-4.2,6-3.14,2.54-4.35,3.2-2.28,0-1.21,1.3.07,2.41-.86,3.59.08,1-.21,4.82,0,7.89-.43,9.52-2.92-1.43-5.77,2.09-3.63,6.19-5.34,6.59a22.66,22.66,0,0,0-7.06,3.59,8.39,8.39,0,0,0-2.5,3.51c-.85,1.83-1.7,5.55-2.63,7.83s-2.42,3.59-5.85,6.65-4.91,6.2-7.13,8.62-1.63,1.88-2.09,2.34c-1.18,1.17-6-1.88-4.79-.2.93,1.24-.52,0,.26,1.18s1.35,1.63-.36,3.71-3.68,1.68-5,2-3.38-1.37-3.52-.52-.92,2.95-2,3.47-3.92,1.31-3.85,1.63c1.35,6.18,4.12,6.83,1.19,6.54-8-.77-2.3-2.64-7.89,8.85-.86,1.77-1.71.85-1.57,2.94s0,3.65,1.15,4.95.35,1.25-1.58,3-2.06,1.51-3.84,4.18-3.49,2.54-2.85,4.57.78,5,1.85,8,3.28,2.48,6.77,4.57,3.92,1,5.63,1.5-1.21.65-4.28,1.17-5.06,1.11-7.2.66-7.19-3.33-8.9-4.57-4.49-3.46-5.49-5.6-1.71-4.31-3-7.25-.36-4.76.21-11.21,1-11.48,1.93-14.94,3.77-18.85,4.55-22.82,4.43-20.16,4.71-22.7a59,59,0,0,1,1.07-7c.57-2.55.21-7.7.21-8s-.21-.46-1-2.87a7.23,7.23,0,0,0-3.84-4.43c-1.78-1.05-3.64-2.35-5.06-3.33a21.73,21.73,0,0,1-4.57-4.11c-1.42-1.76-2.78-5.35-3.49-6.85a91.81,91.81,0,0,0-5.77-10.1c-2.42-3.53-2.57-3.59-3.78-7.31s1.07-3.78,1.5-5.87,1.85-4.17,3.42-7.11,3.64-3.78,4.85-6.39.29-2.61-.15-5.15.15-2.15-.64-3.52-1.21-3.06-1.92-3.52-1.78-.78-2.42-.07-1.78,2.81-2.5,2.94-1-.66-1.42-1.11-2.49-.46-2.93-.92-1.49-.52-2.2-.84a32.26,32.26,0,0,1-4.28-2.41,5.53,5.53,0,0,1-1.78-3.92c0-1.69-1.49-2.35-4.85-4.69s-4.77-2.68-8.84-3.66-5.69-3.78-7.05-4.56-1.21-1.63-4.21-1.31-6.62-1.3-8.91-2.21-6.34-1.57-8.05-2.68-4.7-1.5-6-4.17-1.07-1.63-.57-4-2.92-4.3-5-6.52-3.63-2.54-4.71-5.28-2.63-2.61-4.7-4.57-2.14-4.43-3-6.65-6.55-5.42-6.55-5.42,1.49,3.72,2.13,5.23a57.27,57.27,0,0,0,3.85,7.76c1.71,2.67,3.21,3.32,4.77,6s.08,4.31-.5,3.27-2.85-1.51-2.85-2.74a6.15,6.15,0,0,0-1.06-3c-.5-1-2.71-2.09-4.85-3.79s-3.63-2.48-2.28-2.48,3.28,1.24,2.92.46-2.78-3.2-3.92-4.89-1.5-3.59-2.64-6.45-5.34-5.61-7.41-5.81-2.63-1.17-3.35-3.26-.85-4.31-1.78-5.94-4.92-7.1-5-9.19-1.22-8.15.21-11.55,1.06-11,.85-12.45-2.78-4.37-2.78-5.48,1.5-.45,2.64-.13,3.56,1.31,3.56,1.31a30.77,30.77,0,0,0-3-4.57,16.57,16.57,0,0,0-6-3c-1.49-.33-3.42-.85-4.2-2.09s-1.64-2.87-2.21-3.91-3-2.28-3.56-3.39-.43-3.26-1.21-4.37a2.77,2.77,0,0,0-3.22-1.31c-1.28.46-1.7-.65-2.7-2.28a7.27,7.27,0,0,0-3.85-2.61c-.64-.19-2.85-3.06-3-3.78s-3.64-4.5-4.77-5.28-12.19-4.3-12.47-4.3-3.5.45-4.35.19-3.78-2.74-5.27-3.26-2.58.58-3.28,2.22-4.21,4.43-6.13,5.67-3.5,1.37-3.35.72a11.63,11.63,0,0,1,.71-3.26c.64-1.57,1-2,3-3s1.92-1,1.14-1-1.35-.13.22-1,2.2-1,2.13-1.83-3.42,1-5.56,2.74A19.24,19.24,0,0,0,72.58,157c-1.85,3,.21,1.89-1.35,3.85s-6.91,5.93-8.48,7.43-8,4.83-10.7,5.61-3.7,1.11-5,2.15-4.49,1.37-3.43.65,3.07-2.35,4.43-3.13a59.41,59.41,0,0,1,6-2.61,19.66,19.66,0,0,0,5.57-3.84A35.38,35.38,0,0,0,63.18,162c1-1.56,1.2-2.28-.86-1.63a8.92,8.92,0,0,1-5.27,0c-1.07-.39-3.86,1.24-4.85.52s.07-2.21-.57-2.94-2.85-.25-4.28-.52-3.42-1.37-3.42-3.32-1.42-3.66-.64-5.15,1.93-1.9,3.21-2.74a18.79,18.79,0,0,1,5.55-2,4.16,4.16,0,0,0,2.36-1.37c.64-.65-1.5-3-1.5-3s.36-.26,1.21-.78.22-1.63-1.28-1.44-4.7,1.7-6.7,2.22-4.7.2-4.63-.65.5-1.37-.21-2-1.29-1.37-.58-1.7,5.14-2.74,5.14-2.74a6.36,6.36,0,0,0,3.27,1.89c1.71.2,5.35-2.93,5.35-2.93C52.2,130.34,52.7,130,52.7,130s-3.71-.07-4.56-.59a3.72,3.72,0,0,1-1.36-2.48c-.21-.91-3.84-1.63-2.85-3.13s2.85-2,4.06-3.52,2.28-4.3,5.78-5.87,7.7-3,9.55-4.3,2.71-.07,3.42.13,5.13-.2,6.84-.2,2,1.89,2.57,2.35,15.6.91,15.6.91,12.76.2,15.32.92,7.2,2.6,7.2,2.6C117.09,116.42,116.84,113.06,118.58,113.06ZM289.94,37.41s-1.28,5.21-6.41,6.65a138,138,0,0,0-15,5.74c-.43.26.57,3.13,1.85,4.56s2.49,2.41,3.63,3.85,3.14,1.3,4.71,2.81,2.71,1,7,1,3.13.39,7.9.65,9.77.65,11.41,2.09,4,7,5.49,10.43,4.13,9,4.13,9.52S313,89.38,313,90s.85,1.76,1.64,2.67.35,1.63.21,2.48.86,3,1,3.26,2.28-2.09,3.63-2.48,4.71,2.35,4.71,4.24c0,4.29,1.19,2.83-5.91,7.89-.94.67-1.86,5.8-1.14,8.28s2.41,5.42,3.77,8.94,5.34,8.48,6.63,10.76,1.64,5.41,4.48,6.13,5.57,1.69,7.63,2.15,3.42,1.11,4.42-.78,3-9.07,4.63-14.28-.14-6.79,3.71-8,10-3.52,11.61-4.24,1.36-5.87,5-7.56,4.14-1.57,7.7-2.68a49.17,49.17,0,0,0,12.11-5.8c3.57-2.48,4.57-1.18,5.85-3.46s-1.28-5.61-1.57-9S394.27,85,395,82s1.07-5.09,3.85-7.17,4.27-3.26,3.78-5.22-1.93-4.89-1.93-7,.51-.92-.64-3.92-1.14-3.39-.07-6.19,3.92-2.09,3.71-3.33-4.56-3.13-4.63-6.59.78-4.5,1.49-5.34,8-6.53,8.48-7-.14-2,3.42-3.65,4.78-2.8,6.13-3.32,3.49-.46-.64-1.64-5.06-1.69-7.77-1.37-3.63,1.83-8.48,2.29a43.55,43.55,0,0,0-10.33,2.67s1.64-1.43.21-2.8,3.71-5.88,4.57-6.4-6.71-2.34-10.63-3.06-11.61-3-16-2.67-10.9.26-13.11,1-1.93,3.53-4.42,3.66-7.12-1.44-10.69-.92-9.27,2.94-9.91,3.07,2.22,1.83,4.07,2.21,4.27,4.18,4.27,4.18-5-1.63-10.05-3-11,0-13,.59a33.88,33.88,0,0,1-8.91,1.89c-4.13.19-8.83,3.52-11.19,5.08S286.81,33.62,285,34.6s-1.14,1.44.85,2S289.94,37.41,289.94,37.41ZM184.33,91.32c.56,2.39.56,5.82-.77,4.35s-2.42-4.48-4.56-3.27-4.46.88-4.08.62,0-1.57-1.14-2-1.76.21-2.9.87-4.75,1.52-3.28.39,1-1.74.47-3-4.27.92-6.27,2.31-3.18,3.52-4.37,5-.33,2.35,1.48,2.87,4.7.87,2.28,1.74-4.28,1.47-3,2.21,3.37.87,5.51.61,3.94-.82,7.37.09a21.88,21.88,0,0,0,5.45.87,10.94,10.94,0,0,1-3.56,1.17c-2.28.39-6.46,0-8.6.39s-5.51,1-4.66,1.74a8.92,8.92,0,0,0,4.47,2.92c3,.91,3.47,0,5.23.47s.81,2.39,1.28,2.7,3.81-.26,7.13-.87,2.09-1.13,4.7-1.78,2.71-2.61,4.23-3,.43,1,2.23,1.44.81.56,2.76.87,1.57,1,3.46.91,4.14-1.39,3.85-1.61a1.6,1.6,0,0,1-.37-1.65c.18-.87-1.91.17-2.67.61s-.7-1.18.91-2,3,0,4,0,.1-2.69-1.62-3.13-2.47-1.48-5-2.87-1.23-2-2-3.82-2.37-7.22-3.8-8.18-2.95-.7-4.37-1.65A9.47,9.47,0,0,0,184.33,91.32Zm-39.44-3.7c.62,1.74.71.66-.52,2.57s-.53,2.61-1.38,4-3.13,3.35-2.42,4.3,3,1.53,3.94,2.27,1.9,2.26,3.61,1.69a19.21,19.21,0,0,0,3.47-1.56c1.19-.61,2.18-1.31,2.13-2.83s-.09-2.26.39-2.13,1.23.83,1.61-.17a9.25,9.25,0,0,1,1.86-3.09c.8-.78,3.13-1.56,4.22-2.48s2.95-1.91,3.47-2.69-1-1.39-1.85-1.74-1.94-1.74-4-1.74-3.23,1.57-3.14.87-1.42-1-2.27-1.35a7.53,7.53,0,0,0-4.37-.48,31.06,31.06,0,0,0-6,1.09C141.76,84.71,144.28,85.88,144.89,87.62Zm61.86,20.83c-.29.39-1.52.78-2.28,1.65s1.61.39,2.37.65,1.34,1,1.95,1.22a11.51,11.51,0,0,0,5.33-.3c1.37-.65,1.51-.87,1.37-1.18a20.92,20.92,0,0,0-4.85-3.95c-2-1.05-2-1.09-2.46-.83S207,108.06,206.75,108.45Zm-9-20.35c-1.29.63-2.23,1.39-.05,2.48a37.38,37.38,0,0,1,4.37,2.91c1.47.92,2.09,3.52,5.18,2.35s4.33-2.56,4.76-3.78-.43-1.48-1.19-2.61-1-1.61-2.52-1.44-2.09.18-2.09.18A8.6,8.6,0,0,1,209,86.06c1.71-.83.29-1.39,1.09-2.17s-2-1.18-3.27-.88-1.29-.08-3.33-.17-5.27,1.74-5.13,2.39,1.66.4,3.09,1.18,1.85.69.42,2.91-2.18-.52-2.65-.87S199.1,87.45,197.77,88.1Zm-9.12-4c-2.14.2-2.86,1.65-2,1.87s1.33-.22,2.6,1.13,2.43,2.09,2.95-.13S191.93,83.8,188.65,84.1ZM154.34,67.28c-2.38,1.86-2.85,3.34-4.69,4.52s-1.43,2.17-.81,2.82,2.47,0,3.32-.48,1.56-1.52,2.09-.86,2.71-2.22,3.57-3.18a7.32,7.32,0,0,1,2.42-1.91c.24,0-.81,1.13-.43,2s2.09,1,3.61-.61.14-3,1.33-4.21,2.18-1-.14-2.13a3.43,3.43,0,0,0-4.28.69C159.86,64.54,159,63.62,154.34,67.28Zm14.49,3c-1.35.07-1.94.26-4.18,1.22s-3.18,3.43-3.7,4.78.24,1.35,2.28,2.13,4.89-.21,5.56-2.09,1.48.44,1.09,1.4,1.43.08,2.29-.35a13.49,13.49,0,0,1,3.6-.61,12.93,12.93,0,0,1-4.33,2.43,29.88,29.88,0,0,1-4.65,1.22c-.62.09.58,1,3.18,1.52s4.19-1.56,7.94-2.95,3.57-1.65,4.8-1.31,2.56-.61,4.09-1,2.13.21,2.8-2,1.85-4.35-.28-4.48-2.29-.13-2.57,2.26-.48.91-.48.91-1.42-2.08-2.28-3.17-1.47-2.78-2.42-3.7-1.38.39-2.85,2-.29,2.22,1.18,2.91,2.52,2.49,1.81,3-1.52-.08-4.23.22-2.61-.82-3.37-1.17,1.28-1.09-1.62-2.26S169.79,70.19,168.83,70.23Zm-8.78,2.26c.3-.5-3.61,2.26-4.21,3.16s.6.74,1.79.69S159.05,74.17,160.05,72.49Zm7.5-5.76c-1,.43-1,.76.62.94s2.52-.53,2.18-1.18S168.34,66.39,167.55,66.73Zm8.11-8.26c-1,.18-4.14,1.24-4.31,1.76a4.15,4.15,0,0,0,.5,2.55c.48.89.65,1,3.3.32s4.5-2,3.61-2.28a19,19,0,0,0-2.2-.74c-.79-.11.69-.52,2.44-1.06S181.36,57.54,175.66,58.47Zm-9,1.37c-.75.34-1,.35.55.94s3.25.54,3,.06A2.65,2.65,0,0,0,166.65,59.84Zm6.13-4.28a4.26,4.26,0,0,0-2.16,2c-.33.42,1.68-.3,2.61-.52s1.14.33,2-.46,2.69,0,4.31-.32,1.87-1.39,1.51-2.3S177,53.9,172.78,55.56Zm16.1,3.94c-.44.2-.28.89.1,1.69s.48.61,1.28.91a6.46,6.46,0,0,1,1.81,1.13c.19.2.3.26.64-.52s-.17-.65-1.07-1.69S190,59,188.88,59.5Zm5.49,6.82a2.8,2.8,0,0,0-2.37.59c-.45.21.24.71.54,1.65s.05,1.24,1.86,1.37,2.35-.2,2.49-1.33S195.51,66.63,194.37,66.32Zm7,2c-1.12-.8-1.66-1.45-2.8-1s-.19,1-.19,1.33,1.38,0,1.4.69.45,1.05-1.21,1.14-2.12,0-2.76.5,1.24-.07,1.81.67,1.54.83,3.13.59l3.76-.59a12.62,12.62,0,0,0-1.65,1.84c-.47.77-.66,1.85.17,2.4s.93-.57,3.24-.61,3-1.22,3-1.22a2.14,2.14,0,0,1-.46-1.63,4.25,4.25,0,0,0,0-1.39,8.89,8.89,0,0,1,1.14.92s-.16-.68-.5-1.9-.06-1.3-.43-3-.28-2-2-2-2.91.63-4.34.63-2,.26-1,.78,1.19,1.15,1.69,1.74.4,2,.43,1.94S201.38,68.36,201.38,68.36Zm-8.67,6.2-.07,0a2,2,0,0,0-1,1.68c0,.57,1,.25,2.55-.3S195,73.84,192.71,74.56Zm22.43-3A11.75,11.75,0,0,0,212,74.1c-.76.85-.1,1,1.88,1.93s4.08,1.18,5,.16S218.46,69.82,215.14,71.6ZM224.3,64c-2.53.24-1.74.61-4.66-.33a27.79,27.79,0,0,0-7.59-1c-1,0-.53.45.5,2.12S213.87,67,216,66.49s3.89-.87,5.45,1.34,2.39,2.9,1.11,3.72-.68,2.11.07,3.81S225.09,77,227.47,77s17.5-.22,19.86-.65,4.44-2.38,5.7-3.26,1.92-2.25.21-3.26a13.41,13.41,0,0,0-6.06-2c-1.93,0-3.56,1-6.48,1.27s-2.29,1.67-4.92,1.73-1.36,1.21-4.6-.1-5.63-2.93-4.09-3.16,2.77-.42,1.92-1.14S226.65,63.79,224.3,64ZM194.09,51.88c1.57.53,2,.92.21,1.37s-3.1,1.66-1.35,1.44,3.24.16,5.48.52,2.07.13,3.07,1.37,2.06,1.24,3.6.88,1.74-.46.75-1.53-2-3.07-3.39-3.85-2.49-1.89-3.85-1.76-1.67.16-2.85-1.4-2.1-.82-3.81-.39-2.26,1.62-2.92,2.15C187.67,51.76,192.52,51.36,194.09,51.88Zm20.53-16c-1.86,2.28-3.36,4.2-1.26,4.43s3-.16,3.17.49-.35,1.11-3.49,1.11-2.17.68-.42,2.71,1.92,1.33,4.59,1.27,3.57-1,5.78-.46,2.88,1.11.89,1.7-6.71,1.69-5.64,2.67,4.39,3.33,5.89,3.56,1.81-1,5.06-.62,2.46.68,2.81-.2,2.14-3.13,2.49-4,1.26-1.33,3-1.72,2.34-.95.67-1.54-3.56-.85-3.38-1.3,1.21-1.79.49-2.48-1.84-.65-2.78-1-1.95-2-3.13-2.74-2.21-.78-3.64-1.86-3.7-3.7-6.55-3.55C217.29,32.52,216.47,33.62,214.62,35.91ZM211,55c-.72.36-2.5.43-1.18,1.5s1,1.11,2.64.49a13.25,13.25,0,0,0,4.31-2.61c.21-.46-1.68-1.33-3-1.72s-2.17-1.41-4.84-2.13C205.06,49.47,211.69,54.62,211,55Zm87.17-33.92c-2.94-.78-13.49-2.78-16.91-2s-3.23-1.74-8-1.13-12.06.26-14.34.61,1.13,1.3,2.37,2.08-5.89-.87-11.31.61-8.93,2.26-3.13,4.44,6.55,2.78,6.55,2.78-7.41-1.3-10.54-2.52-1.42-1.13-7.32.52S224,29,224.24,30.71s4.74,4.09,7.69,4.7,9-.87,9.51-1-2.39,2.35-2.39,2.35,3-.61,6.46-1.48,6.09-1.82,9.32-2.95a28.14,28.14,0,0,0,3.8-1.48s-5.6,4.26-9.5,5.74a43.73,43.73,0,0,1-11.31,2.52c-2.38.08-2,1.56.38,2.78s4.18,3.83,5.42,4.7A3.62,3.62,0,0,1,245,48.8a6.68,6.68,0,0,0-7.79,0c-4.09,2.87-3.52,4.35-2.47,4.69s4.66.7,5.32,1.92,5.41-1.13,5.41-1.13-2.36,2.95-4.65,2.95-2.18-1.91-5.51-1.56-3.14,1.13-1.71,2.26,2.57,1.48.09,2.61-3.6,1.47-3.7,2.87,3.23,1.39,5.32,1.39,4.09-.18,7.89-.26,3.32-1.31,4.75-1.31,2.85.44,2.28,1.83.56.52,4.75-1,2.27-3.74,2-4.52-1.81-1-2.76-1.48,2.85-4.26,2.28-5.56,4.66-.26,7-3.31,1.52-5.3-.19-5.82,3.14-.18,4.65-1,4.85-1.91,6.18-3.56,1.81-2.26-1.42-1.91,4.65-1.4,8.45-3.83,8.18-5.31,9.13-6,1.81-.35-2.67-.09-9.78-.34-6.83-.69,11.68-1.4,14-3.05A28.18,28.18,0,0,1,298.15,21.06ZM245,81.41c-4.76-.44-11.69-1.57-13.11,2.43A124.61,124.61,0,0,0,228,98.36c-.19,1.65,5.7,4.09,9.79,4.26s10.74.44,9.41-.52-.19-1.48,3.61-1.3S255,100,255,99.23s.66,1,3.33,2.35,4.94,5.3,7.32,7.56,7.69,5.31,6.64,7,1.14,7.82-7,9.22-8.64.43-8.55,2.26.47,2.61,3.7,2.61,7.7-2.61,9.22-.7a9.74,9.74,0,0,0,4.94,3c1.33.44-1.61,1.22-2.37,1.48s1.62.52,6.27,2.7,10.26,2.43,7.5.87-4.08-4.44-5.32-5.39-.09-.18,2.1.34a14.13,14.13,0,0,1,5.13,3c.94.79,1.42-.25,2.08-3.3s-.28-3-4-5.48-4.84-4.34-5.22-6.08,1.9-2.09,2.85-3.31,3.61,2.18,5.42,4.18,3.32,5.47,4.75,3a31.39,31.39,0,0,0,2.75-9.48c0-1.3-1.42.09-7.5-2.86s-9.22-4.09-9.79-4.09,1.62-1.13,4.28-2.44,3.8-1.13-1.91-6.43-7.31-6.43-11-6.78-4.75-4.18-7.41-5.48-8.83,1.56-10.65,2S251.31,90.19,249,87,245,81.41,245,81.41Zm4.27,0c-2.36.27,1.43,4.52,4.47,4.69s5.6-1.3,6.27-1.48S252.93,81,249.22,81.41Zm-10.66,43.13a21.61,21.61,0,0,0-1.5,5.34,9.44,9.44,0,0,1-.78,3.13c-.36,1.11,1.14-.19,2.13,1.44s.57,2.08,2.35.19a5.65,5.65,0,0,1,6.28-1.76c2.49.78,4.41,1.11,3.56-.39s-2-1.37-3.71-3.39a10,10,0,0,0-5.12-3.32C239.62,125,239.41,122.51,238.56,124.54ZM256.49,276.9c-.74-1.51-1.85-3.95-6.46-4.79s-6.19.84-7.89,1.4,1.59.85,3.79,0,3.87-.17,4.17.21-.74.63-1.11.22-.45,1,2,1.89,3.09,1.3,3.34,2.35a6.46,6.46,0,0,0,.8,2.48c.56.87.77,1.24-.27,1.62s-.67.34.09.8a10.23,10.23,0,0,0,4.49,1.43c2.18.18,2.89.58,1.38-1.38S256.72,277.38,256.49,276.9Zm6.9,9.55a3.38,3.38,0,0,1,.77,3.23c-.09.69-1.38.16-3.77-.46s-2-.32.06.78,3.41.83,3.32,2.3,1.9.13,2.79-.72.82-.09,4.5.45,4.44,1.2,3.85-.39,1.7-1.46-1.58-3S262,285.07,263.39,286.45Zm-10.49.91c-1.39-1.51-3.13-1.73-3.14-.45s.47,1.21,1.75,1.56S253.79,288.32,252.9,287.36Zm26.76,6.54c-1.51-.51-1.81.61-.81,1.54s2.54.61,4.06.53S282.3,294.79,279.66,293.9Zm-17.33-182c-2,.83-3.17,1.4-1.43,3.65s2.78,3.65,3.45,2S265.71,110.51,262.33,111.92Zm-16,24.14c-3,.48-4,.56-3.52,2.22s1.28,1.39,3.32.39S249.61,135.54,246.33,136.06Zm6.26,2.52c-.51.15-.66,1.3,0,2.35s1.95-.35,2.52-1.61S254.5,138,252.59,138.58ZM219.72,58.32c-2.85.09-7.13,1.09-4.75,1.13a67.64,67.64,0,0,0,8.18.3c3.84-.21,4.22-.47,4.31-2.3S225,58.15,219.72,58.32ZM201.9,43c-2.9.89-2.18,1.48,1.24,3s3.51.78,3.14-2S203.61,42.45,201.9,43ZM405,115.75c-3.6,1-4.81.4-5.49,2.19s-2.09.83-2.91,1-2,5.23-2.53,4.49a13.59,13.59,0,0,1-1.61-2.88c-.83-1.71.28-1.41-1.31-3.22s-4.71-1.61-4.93-.87,2.16,1.37,1.35,2.21a40.61,40.61,0,0,1-3.48,2.47c-.73.61,1.41.34,2.76,0s2.26,1,2.82,1.91-.62,1.83-1.21,2.28,2,.34,3,.52,1.55,1,.85,2.16,3,.16,5.08,0,2.6,1.39,5.7.43,4.59-.89,7.42-2.95,2.62-1.58,4.5-2.91,1.42-1.74,1.51-3.21,1.24.42.79-1.81-2.75-1.62-4.38-1.79-1.56-1.42-2.37-1.82S408.64,114.75,405,115.75ZM645.53,307.31a6.65,6.65,0,0,0-.39,2.3c0,1.18-.13,2.44,0,3.61s.16,2,.83,2.26a2.26,2.26,0,0,0,2.21,0c1.09-.51,2.12-1.4,1.57-2.74a36.29,36.29,0,0,0-2.17-4.2C647,307.57,645.81,306.31,645.53,307.31Zm-.88-1.62c.12.51.29.4.52.74s.51.05.17-.41-.29-.51-.29-.51-.42-.14-.42.27M747.24,375.1s-.08.08-.11.12c-2,1.94-3.73,1.4-7.08,2.42s-9.34,4.44-9.77,5.94,0,1.69-.42,1.5a5.29,5.29,0,0,1-1.15-1.11,7,7,0,0,0-.71,3.45c.22,1.63,1,2.61.93,4.7s-.86,3.32-.78,4.76,2.49,4.17,3.13,5.87,1.07,1.24,1.42,4.3,2,4.76.36,6.4-2.85,1.3-.85,3,3.63,2.81,6.83,1.7,2.36-2.09,4.85-2.61,3-1,5.14-1.17,3.63.06,4.42-1.44.21-1.43,2.34-2.48,1.93-1.3,3.36-1.56,2.34.72,4.27-.78.5-1.63,4.77-1.63a20.71,20.71,0,0,1,7.63,1.1c1.57.53,4.13,1.9,4.77,2.87s1.5,2.16,1.78,2.16.65.06,1.64-.92a44.8,44.8,0,0,1,3.85-2.93,6.84,6.84,0,0,1-.78,2.87,3.61,3.61,0,0,0-.65,2.28c0,.39,1.64-1.24,1.86-1.3s.43,2.87.64,3.13.86.13,1.5,1a10.86,10.86,0,0,1,2.14,3.14c.64,1.63,3.35,3.25,5.06,3.52a14.43,14.43,0,0,0,4.49-.07c1.28-.2,1.35-1.69,2.7-1.11s-.07,1.83,3.14,1.57,4.06-1.31,5.35-2.15,1.42,1.17,3.06-1.05,1.93-1.69,2.21-4.37.21-3.19,1.78-5.74,1.93-1.3,3-5,2.42-7.24,2.28-10.3.06-1.05-.65-4.5-.21-3.07-2.49-4.5-2.85-1-3.42-3.07.14-2.61-.93-2.61-2,.46-2.64-.91-.56-1.89-1.78-3.2-2.35-1-4.56-2-1.07-1.23-1.07-2.93.13-3.5-1.63-4.28-.72.43-.72-2.35,0-2.39-1.42-2.87-1.91-.43-2.81-2.13-2.08-4.48-2.51-5.61-1,.13-1.52,1a8.62,8.62,0,0,0-1.38,4.34c0,1.7.76,2.66.76,4.92s-1.61,4.52-2.62,5.82-1.8.14-2.66-.21-1-1.61-2.84-2.48-5.14-1.65-6.66-3-.48-1.39,0-2.79a7.18,7.18,0,0,1,2.28-3.43c1.14-.91.81-1.26-.61-2s-3.42-.83-5.85-.83-3.85-.17-3.71,1.17,1.57,1.87-.47,1.48-3.8-.56-4.7.39-1.1,1.53-1.62,3.57.14,2.17-.71,2.17-4.23-1.61-5.37-2.08-1.75-.44-3.09.78a72.79,72.79,0,0,1-7.65,6.13C748.88,370,749,369.75,747.24,375.1Zm-63.4-58.78c-1-.14-1.57-.4-.33,1.17a18.28,18.28,0,0,0,2.76,3c1.18,1.08,1.61-.79,2.51,1.3s.58,2.13,1.48,2.91,1.66,1,1.9,1.79a5.33,5.33,0,0,0,1.56,2.86c1,.87,1,.74,1.66,2.44s1.58,2.91,2,4.34,3.18,2.79,4.56,4.53,3.71,4.26,4.09,3.57,1.37,0,2.09-.26,1-1.27,1.42-3.7-.43-3.57-1.09-4.14-1.9-.69-2.23-1.21-.91-2.3-1.71-2.87-1,.05-1-1.35,1-1.26-.23-2a6.38,6.38,0,0,1-1.72-1.74c-.37-.39-2.93-1-3.6-1.7s-3.47-1.95-4.8-3.26-2.8-2.34-3.23-3.3S688.21,316.88,683.84,316.32Zm27.65,28c-1.14,0-1.71-.65-2.47.69s-.66,1.35.52,1.35,1,.61.91.78-.57-.13,1.85.83,4.14.57,4.8.21.9.88,4.23,1.4,5.08-.31,7.22.22,1.62-.27.09-1.39-1.38-.53-2.9-1.61-3.65-1.13-4.65-1.31.85,1-2.18.65-1.95.27-3.52-.73-1.57-1.18-2.62-1.35S711.49,344.36,711.49,344.36Zm24.14,4.78c-.86.26-2.61.74-1.81,1.09s.19.56,2.71.35,4.71-.53,5-1.05-.42-.17-1.47-.48-1,.22-2.37.39A3.06,3.06,0,0,1,735.63,349.14Zm8.83-.17c-1.68.2-1.47.56-.14.95a6.88,6.88,0,0,0,3.57.31,16.11,16.11,0,0,1,3-.83c1.85-.3,2.47-.26,3.94-.43l1.47-.18s-.14-.3-1.14-.26-1.7.09-2.7.09-2.71.87-3.42.82-2.09-.47-2.43-.25S746.27,348.75,744.46,349ZM754,351.1l-.06,0c-1.18.79-1.23,1-1.12,1.64a1.18,1.18,0,0,1-.13.91,5.09,5.09,0,0,0,3.05-1.39,5,5,0,0,1,2.72-1.76,10.35,10.35,0,0,0,2.89-1.92,8.54,8.54,0,0,1-2.24.13,4.28,4.28,0,0,0-2.72.91C756,350,756.73,350.05,754,351.1Zm-9.93.68c-1.24-.87-2.44-.75-2.53-.21s-1.08.51.67,1.14,3.41,1.47,3.28.6S744.57,352.15,744,351.78Zm-11.36-36.25c-.71,1,.67.74-.38,1.61s-1.85.48-2.89,1.78a14.83,14.83,0,0,1-3.28,2.7c-.66.48-2.81,1-3.76,2.31a1.23,1.23,0,0,0,.34,1.95s-.58.26-2.09-.3-1.62-1.27-1.62-1.27-1.09,0-1.7,1.57-1,1.78.13,2.74-.76,1-.52,1.65.24,1.87.9,2,.81-.61,1.62.39.14,3.83,1.19,4,1.8-.3,2.7.09a3.33,3.33,0,0,0,2.76.34,4.14,4.14,0,0,1,3.09.35,10.13,10.13,0,0,0,3.94,1c1.1-.08,1.28.18,1.47-1.35s0-2.95,1.38-4.13,1.38-1.17,1.47-2.26a6.11,6.11,0,0,1,.91-3.35c.8-1.13,1.28.66,1.71-.21s.85-.87.61-1.31-1.47-.43-1.94-1.26.14-1.26-.43-3-.9-1-.1-2,1.47-1.13,1.57-1.87.42-.79,1.43-1.48-.16-.37-1.11-1.07-2.73-3.3-3.84-3.28C735.65,311.89,733.39,314.53,732.68,315.53Zm140.39,92.31c-.46-.34-.85-.09.2,1.13s1.13.86,1.79.91,1.25,2.43,1.62,3a10.39,10.39,0,0,0,1.09,1.35,12.76,12.76,0,0,1,.05,3.78c-.33,1.18-1,1.7-1.28,2.79s1.09.78,2,1.13.71.34.38,1.3-1.33,1.39-1.33,1.57,2,1.25,2.94.08,2.57-2.91,3-4.17-.76-.7.61-1.61,1.19-.48,1.91-1.61,1.46-2.3.66-2.91-1.71.73-2.43,1a2.52,2.52,0,0,1-2.27-.18c-1-.47-1.19-.47-1.57-1.34a4.73,4.73,0,0,0-.86-1.35s-.29,1.47-1,1-.53-1-1-1.83-.52-1.08-.86-1.69,0-1.79-1.7-2S873.5,408.14,873.07,407.84Zm.28,15.78a18.43,18.43,0,0,0-2.51,2.74,12.11,12.11,0,0,0-1.76,3.08c-.38.87-1.75,1.92-4,3.09s-3.14,1.65-3.9,2.74-3.47,4.48-3.8,4.87,1.28.78,2.95.78,4.27,1.48,5.69,0,2.85-5.13,3.76-6.44a16.63,16.63,0,0,1,3.18-3c1.42-1.26,3.8-3.61,3.8-4.52a8.2,8.2,0,0,0-.62-2.39,1.79,1.79,0,0,1-1.76.87C873.12,425.23,873.35,423.62,873.35,423.62Zm-11.2,16.7c-1.67-.87-2,.75-2.26,2.41s.72.25,2.17-.5S862.79,440.65,862.15,440.32Zm-56.49-11.4c-1.88-.61-1.57,1.13-1.29,2.44a9.64,9.64,0,0,0,1.38,3.43c.72,1.09,3.37,1.48,4.42,1s1.8-2.09,2.85-3.61a6.44,6.44,0,0,0,1.33-4.17c-.19-.91-1.52.82-2.38,1.22s-2,1.39-3.61.95A13.24,13.24,0,0,1,805.66,428.92ZM782,335.58c-1.52.34-2.28-1-3.52-3.48s-2.19-2.87-5.32-1.74-2.66.87-.57,1.65,2.38,1,2.66,1,3.33.44,2.66.87-3.51.87-1.71,2.09,1,.35,5.8,2.7,5.51.6,7,3.65,1.52,2.52.29,3.3-2.86,1.57-2.19,1.65a43.76,43.76,0,0,0,5.13.53c3.23.17.19,2,3.8,2s4.56-1.13,6-2.79,1.71-.78,4.75-.08,4.08,3.3,7.89,4.35,5.41,2.43,3,.25-3.24-3.73-6.47-6.26-3.42-2.78-4.37-4.69-4.27-4.17-8-5.65-5.83-1.69-10.17-2.87S783.52,335.23,782,335.58Zm-25-8.7c-1.42,1-1.6.38-2.66-.27s-.77,1.36-3.14.27-3.25-1.62-5.8.22-.94,2.6-1,3.9-2.13,5-2.9,6.33-.76,1.84-.17,2.71,1.42.54,1.77,1,0,3.85-.41,5,1,1.35,2.49,1,.17-.44.17-1.63.71-1.73.71-3.95V338.2s.42-.22,1,.54,1.31,2.87,2,4,1.3,1.89,2.31,1.13,2-1.62,2-1.62-2-.6-2-1.25.83-1.19-.54-3.36-2.06-2.27-.35-2.38S752,333.43,753,333a5.16,5.16,0,0,1,2.42-.33,2.67,2.67,0,0,0-2.54-.6,20.56,20.56,0,0,0-4.21,1.36c-1.29.7-2.42,1.14-2.66-.16a8.86,8.86,0,0,1-.23-3.42c.17-1.78,2.24-.43,3.78-.86s1.54-.33,4.91-.11,3.61-.54,4.62-1.89a13.35,13.35,0,0,0,1.59-2.93S758.42,325.91,757,326.88Zm8-4.74c.3-.54-2.47,1.87-3,2.35s0,1.17.37,1.87.29,3.08.43,3.61,1.57,1,1.57,1a5,5,0,0,1,.48-2.35c.52-.74,0-1.65,0-3S764.09,323.75,765,322.14Zm-5.46,14.28c-2.18-.82-3-.28-3,.84s-.24,1.67,2.08,1.67S763.56,337.93,759.53,336.42Zm4.34-.73c-.54.16-1.1,1.85-.8,2.85s.67.34,1.9.12,1-1.18,2.57-1.29a16.71,16.71,0,0,1,4.7,1.06s.68-.78-1.77-2.29S766.92,334.74,763.87,335.69ZM720.4,280.38l-2.52.07c-.33,0-1.09.82-1.64,1.15s-.54.78-.16,1.63,1,.89,2.09,1.17.69-.45,1.47-.74a2,2,0,0,0,1.17-1.6,2.31,2.31,0,0,1,.88-1.13c.19-.22-.62-1-.62-1A4.65,4.65,0,0,0,720.4,280.38Zm25.73,3c-.86-.62-1.33,1.57-1.57,2.7s-.52,1.87-.1,2.69.24,1.09.24,1.09l-1.23-.91a7.63,7.63,0,0,0-.33,1.95c0,.92-.39,1.31,1,2s1.9.31,2.09,1.31.19,1.43,1.14,1.6a3.89,3.89,0,0,1,2.42,1.18c.38.61.19-1.61.86-1.48a3.88,3.88,0,0,1,1.9,1.69,1.67,1.67,0,0,0,1.18.79s-1.09-1.78-.61-2,.61-.39-.62-1.13a6.64,6.64,0,0,0-3.18-.7c-1-.13-1,.66-1.66-1.17a5.26,5.26,0,0,1-.15-3.35c0-.39.52.61,1.1-.65a6.58,6.58,0,0,0,.61-3.48c-.09-1.22.86-1.69.14-1.74S746.6,283.75,746.13,283.4Zm11.3,23.37c.15.88-.85-.25-1.22.26s-.57.4-1.18.65a12.48,12.48,0,0,0-2.06,1.58s0-.86,0-1.06-.45-1.21-.89-.52a4.1,4.1,0,0,1-1.87,1.61,2.86,2.86,0,0,0-1.75,2.09c-.12.88.61.85.61.85a5.77,5.77,0,0,0,1-1.31c.66-1,.78-1,2-1.12s1.1-.13,1.48.5.08,1.6.12,2.3,0,1.55,1.19,2,.65,0,1.77-.07,1.1-.06.94-.62a9.06,9.06,0,0,1-.57-1.69c-.07-.65.65-.93.88-1.06s.37.65.71,1.46.48.79.62.17a9.4,9.4,0,0,0,.4-2.87,10.3,10.3,0,0,1-.22-2,2.52,2.52,0,0,0-.87-1.66c-.32-.23-1.43-1.19-1.43-1.19S757.3,305.89,757.43,306.77ZM752,301.45s0-.56-1-1.56-1.06-1.28-2.64-1.54-3.14.13-2.48,1.79.86,1.9,2.2,2.1a2.75,2.75,0,0,0,2.13-.51s.1.27-1.16,1-1.39,2.26-.41,2.83,1,1.46,1.52,1,1-2,2.14-3,1.23-1.21,1.38-2.35a8.86,8.86,0,0,0,0-2Zm2.7-3.19c-.15.11-1-.08-.11.73s1.64,1,1.53,1.6,0,.71-.51.65-.63-.18-.84-.19-.25.38-.11.76.11-.05.51.59.31.84.44,1.58.44.37.44.37-.1-1.76,0-2.12-.15-1.22.46-.94.44,1.32.8.34a4.34,4.34,0,0,0,0-2.62c-.18-.79-.8-.82-1.53-.82A5.57,5.57,0,0,0,754.66,298.26Zm-12.3,3c-.35.09-.57.43-.78,1.62A4.41,4.41,0,0,1,740,305.4a23.19,23.19,0,0,0-2.81,3c-.12.37-.14.15,1.35-.54s2.65-1.6,2.82-2.53-.17-.36,1.13-1,.64-.8.7-1.74S743,301.11,742.36,301.27ZM821,336.88c-.16,1.21.35,1.57-.79,2.46a7.05,7.05,0,0,1-3.64,1.08c-1.21.2-.32-.19-1.82-.24s-1.88.07-1.19.81.52,1.46,2.73,1.37,4-1.26,5.47-1.7,1.31-1.56,1.42-2.08S821.19,335.58,821,336.88Zm6.17,2.61c.61.85.38.72,1.16,1.84a4.94,4.94,0,0,0,2.95,1.64c.93.3,0-.33-.68-1.24a11.06,11.06,0,0,0-1.76-2.33C827.84,338.49,826.13,338,827.2,339.49ZM747,266.38c-3.05,1.9-4.42,1.76-3.2,4.17s2,3.44,2.13,3.89.79-.3,1.61-2.21.93-4.41,1.26-5.17S748,265.73,747,266.38Zm52.14-93.8c.34,1.26.67,3.22-.09,3.43s-1.29,1.61-1.47,3.05-.57,3.26.23,4.39.24,1.21.24,2.17.28,3.39-.19,4.83-.76,1.78-.57,3.3a27.69,27.69,0,0,1,0,4c0,2.18-.14,3.92,0,4.78s.57-.43.9-.73a2,2,0,0,1,2.33.26l.72.74s1.14.48-.43-2.83-1.86-2.61-1.43-5.61.67-3,2.28-3.35,2.47,1.87,2.66,2.09-.14-.74-.71-2.44-1.1-2.26-1.28-4.39-.86-3.91-1.71-4.52-.43-1.61,0-2.43a6.71,6.71,0,0,0,.33-3.52,36,36,0,0,0-.85-4.22c-.24-.78-1.19.48-1.19.48Zm-1.43,33.31a4,4,0,0,1-.47,2.9c-.67,1.09-.19,1.35-.57,2.87s-2.23,0-2.23.31a3.12,3.12,0,0,1-.76,1.78c-.48.39-2.09.48-1.62,2a21.65,21.65,0,0,0,1.34,3.13,7.43,7.43,0,0,1,1.23-1l1-.3s-.14-.43-1.18-.91a1.39,1.39,0,0,1-.81-1.78c.14-.31,1.47.08,2.32,0s1.58-.53,2.62.3a6.87,6.87,0,0,0,2.57,1.13,7.32,7.32,0,0,1,.66-2.09c.48-.87,1.85-.47,3.23-.87s2.42-.61,2-1.17-.43-1.82-.72-2.78-1.18,0-1.9.3a2.68,2.68,0,0,1-2.56-.52,19,19,0,0,1-3.28-3.82S797.58,204.93,797.67,205.89Zm-4.25,14.25a3,3,0,0,0-.92,2.64c.11,1.28,1.21-.1-.22,3.82s-2.14,4.79-3.53,5.81a3.41,3.41,0,0,1-3.2.74c-.54-.26.14-1.14.53-1.4s-1.21-.36-1.88-.26,0,.85-.12,1.47-1.38,2.28-1.24,3,.14,1-.71,1.24-1.42-.62-1.67-.75a20,20,0,0,0-3.21.46,3.16,3.16,0,0,0-2.82,2c-.71,1.2-2.39,1.4-3.6,1.85s-.74,2.16-2.07,2.74-1.31,1.67-1.42,2.54.82.27,1,.2.14-1.24,1-1.11.93.17.5,1.08-.67,1.37-1.1,2.15.14,1.14.78,1.93,1.25-.23,2.6-1.63,1.47-1.74,1.36-3.33-.65-1.63-1.64-2.09-1.22,0-.11-1.24,1.61,0,2.35-.59,2.57-.52,4.31-.94,3.43-1,3.5-.42.61,2.41.67,2.8,1.22-.56,2.39-1,.07-.62,0-1.37a1.26,1.26,0,0,1,.53-1.17s.61,1.24,2.49.36,2-1.24,2.53-1.11.82.62,1.61.13.92,0,.78.36,2.28-.75,2.81-1.11.25,0,0-1.4-.89-1.47-.49-3.23a15.47,15.47,0,0,0,.38-3c.11-1.11.54-1.28.83-1.34s.28-1.53.89-2.31.46-1.15.46-2.94-1-1.47-1.07-2.74a9.38,9.38,0,0,1,.25-2.51s-2,.75-2.24,1.21l-.22.45S794.1,219.81,793.42,220.14Zm-13.3,19.6a38.48,38.48,0,0,0-4.83,1c-1.26.39-1.52.93-1.33,2.16a26.63,26.63,0,0,0,.86,3.09c.17.63.85,0,2-.62s1.1-2.4,2.22-2.4.71,1.27,2.23-.52.36-1.93.41-2.84S780.12,239.74,780.12,239.74Zm133.15-96.58c-2.26-.42-2.91-.91-3.12-.1s-.45,1.07,1,1.56,2.13-.37,3.47.61a2.87,2.87,0,0,0,2.73.8,2.22,2.22,0,0,0,1.42-.62A32.47,32.47,0,0,0,913.27,143.16Zm-25.74-34.83c-.82.23-1.5-.55-1.28,1.44s.67,2.21,3.27,1.85a34,34,0,0,1,4.21-.36c3.56-.26,4.31-.75,4.31-.75a6.32,6.32,0,0,0-1.71-1.89c-1.21-.91-2.82.62-5.56.17A30.24,30.24,0,0,0,887.53,108.33ZM807.25,79c0,.76,3.56,2.9,4.84,3.52s2.28.36,5,.07,2.92-1.44,3.24-2.09-1.29-.42-3.1-.78-3.31.32-4,0,1-.65-.64-1.24-2,.19-2.35-.07-.43-.81-1.21-.88S807.21,78.23,807.25,79Zm-14,4.47c-1.23.48-1.14.91.25,2s.93.88.32,1.7,0,0,2,.84,2.82,2.48,4.07,2.84a3,3,0,0,0,2.1-.1,11.31,11.31,0,0,0-1.6-2.87c-1.18-1.56-3.71-2-4.18-3.38S795,82.73,793.28,83.42ZM806,77s-1.82-1.08-4.56-2.77-3.78-2.16-4.71-2.29-.77,1-1.14,1.8-.6.68-2,0a22.29,22.29,0,0,0-4.31-2.06c-1.46-.32-2.35.85-4,2.48s-.71,2.08,1.32,4.5,2.92,2.54,4.56,1.6,1.17-1.57,2.35-1.11,5.24-.46,5.38-.46-.25,2.22,1.53,1.63,3.42-.88,4.24-1.76S806,77,806,77ZM682.61,30.45c-.52.43-3.57.17-5.14,2.61s-2.65.74-3.47,2.22a30.92,30.92,0,0,0-1.47,3.26s1.43,1.65,3,1.52a6.8,6.8,0,0,1,5.65,2.52c1.48,2,2.57,2,6.13,2.57s1.94,1,3.81.87,4.41.21,3.84-.7a3.91,3.91,0,0,1-.76-3.26c.24-1.78,1.9-1.7,0-2.87a4.07,4.07,0,0,0-3.23-.43c.1-.22,1.76-.88,1.1-.92s-4-.22-4.33-2,.9-2,1.56-2.09.49-.35-1.42-1.7-4.46-2.73-4.46-2.73C682.13,29.89,683.13,30,682.61,30.45Zm17.86,13.17c-1.38.27-2.52,1.61-3.33,2.78a20.57,20.57,0,0,1-3.42,3.74c-1,.79-.71,1,.9,1.57s4.47-1,5.28-1,1.42,1.17,4,.87,6.46-.79,4.56-2.13-1.23-.7-3.32-2.35a9.31,9.31,0,0,0-4.75-1.78s4.32-1.44,3.27-1.52S700.47,43.62,700.47,43.62ZM590.63,22.19c-2.49.88-1.62,1.3-3.23,2.56s-.53,1.61,3,.79a22.29,22.29,0,0,0,5.89-2.18C598.47,22.36,594.34,20.88,590.63,22.19Zm5.51,6.13c-2.33,1-1.71,2.09-1.09,3s2.32-.53,2.8.43.62.57,2.8-.87,1.38-1,.53-2.52S600.13,26.58,596.14,28.32Zm-13-.63c-1.5.7-1.5.62-.07,1.27s4.88,1.18,6.66,0,1.64-.91-.61-1.24S584.83,26.91,583.16,27.69Zm-22,2.64a35.57,35.57,0,0,1,6.31-.1c1.84.2,1.17,1.77-2.25,2.12s.32.88,2.74.78.86-2.05,2.89-2.74,3.31-.25,5.73-1.1-1.38-1.67-4.2-1.6a55.35,55.35,0,0,1-6.13.06c-2.39-.16-4.31.9-6.77,1.31C554.4,29.91,558.82,30.53,561.14,30.33Zm18.17.62c-2,0-6.95,1.11-2.82,1.5s3.82.65,5.52,0S581.45,31,579.31,31Zm14.4.85c-2.91-.94-3-.56-5.21-.46s-3.13,1.47-1.67,2.05a6,6,0,0,0,3.67.17c1.21-.2,1.14-.55.35-.85S595.42,32.35,593.71,31.8Zm12.18-3.52c-2.22.27-2.35.65-2.57,1.37s.32.55,2.68.26a12.45,12.45,0,0,0,5-1.44c1.53-.82-.32-2.8-.32-3.16s-2.18,1.08-2.78,1.6S608.52,28,605.89,28.28ZM431.39,153.36c-1.12,3-3,4.44-.78,3.6s4.37-3.46,4.26-1.22-2.24,1.92-1.57,4.12.17,2,3.81,2.81.67.51,1.57,2.62,1.51,2.76.56,3.37-3.76-1.92-3.92-.85.38,1.88,1.06,3.37-.45,2.34-2.57,3.33-.29,1.59,1.34,1.49,5.71-.84,5,.56-2.63-.23-4,2.11-6.57,4.35-3.87,4.21,2.3-.84,10.31-2,2.47-.1,7.74-1.69,3.58-2,.67-1.54,1.91-2.81,1.23-5.85-2.58-.14-3.81-2.06-1.07-2.48,1.29-1.78,2.13-.46-2.41-3.32-1.74-2.29-3.81-4.68-5.6-2.11-5.6-2.11a7,7,0,0,0,2.4-2.61c.9-1.73,1.07-1.6,2-3.7s-.95-1.92-3.36-1.4-3.2.74-2.69-.19a9.8,9.8,0,0,1,2-2.48c1.12-1.17,1.34-1.78-.73-1.31a15.86,15.86,0,0,0-4.15,1.21C430.67,148.63,432.51,150.32,431.39,153.36Zm-5.66,7.16c-3.66,1.41-2.63,2.34-2,2.85s1.73-.47-1.69,1.45-3.47,4-1.68,4.45,1.57-1-.33,2.48-3.2,5.89.67,5,4.93-2.85,6.78-3.09,2.19-1.68,2.19-3.88-1.24-2.24.22-4.07,1.57-3.74-1.29-4.63S428,159.63,425.73,160.52Zm46,49.1c-.2.5.24,1.83-1.24,2.74s.72,1.74,1.19,2.61,1.09-3,1-4.78S472.38,208.06,471.76,209.62Zm-.71,7.22c-2.42,1.12-2.56,1.95-2.86,3.74s2,.35,1.38,1.91,0,2.39,2.48.91,1.09-2.82,1.47-4.69S474.23,215.36,471.05,216.84Zm37.24,19.22c-2.12-.21-3.06,1.1.58,1.5s5.26.45,6.62.13.21-.07-1.57-1.24S511,236.32,508.29,236.06Zm20.24,1.1c-2.93-.62-2.13,2.88.86,2.35s1.85.2,3.2-1.95S531.6,237.82,528.53,237.16ZM455.75,221c-2.38.3-2.56,1.09-.72,1.57s1.62-.09,2.67-.83S456.8,220.84,455.75,221ZM311.81,178.4a20.16,20.16,0,0,0-5.2,6.46c-2.06,3.65-1.84,3.26-3.84,5.28s-1,1.57,5.2,2.74,5.7,2.09,7.13,1.7,1.71.78,1.71,2,1.35.52,2-1.43-.64-5.48-1.92-7.5-1.58-2-3.57-1.5-1.35-.46-2.06-2-1.86-.32-.14-2.67S313.24,177.3,311.81,178.4Zm-189.67-4.17c0,1.94,2.08,5.26,3.65,6.35s1.24.48.53-1.83-.15-2.3-.48-3.78S122.14,173.53,122.14,174.23Zm10.4,10.61a18.14,18.14,0,0,0,3.85,3.61,13.6,13.6,0,0,0,5,2.26c2.29.65,3.28-.22,1.81-1.52s-.24-1.18-2.9-1.79-3.23-.39-4.56-1.21S131.64,183.93,132.54,184.84ZM74.61,163.21c-1.71-.38-2.39-.46-3.56.45s-1.5,1.7-.86,2.71.25.46,1.75-.55.78-1.14,2.67-1.6,1.5-1.08,1.5-1.08A2.08,2.08,0,0,1,74.61,163.21ZM74,161c-1.15.68-1.54,1.24-.25,1s1.1-1,1.92-.82,1.11-.16,1.11-.16A3.36,3.36,0,0,0,74,161Zm-32.89-5.18c-1.57.75-3-.13-2.09.43a6,6,0,0,0,3.32,1c1-.12,1.71-.13,1.33-.62a1.59,1.59,0,0,1-.49-1.12C43.15,154.78,42.69,155,41.12,155.78ZM567.06,368.27c-1.8,3.91-5.6,2-8.64,4.87s-2.57,2-.29,6-1.89,3.57-3,8.26,1.24,3.83,2.47,7.83,1.81,2.78,4.09,2.26a13.21,13.21,0,0,0,3.89-1.57,56.13,56.13,0,0,1,1.9-8.61c1.53-5.13,2.57-8.86,2.85-12.26s.57-5.82,1.34-4.78.85,1.05.85-.61-.91-6.3-2.37-7.39C567.63,360.36,568.87,364.36,567.06,368.27Zm2.67-267.47c-2.49.55-3.68,2-1.86,2.64s1.64.26,4.63-.79S572.18,100.24,569.73,100.8Zm46.55-44.44c-.85-1.3-1.61.44-10.35,4.18s-8.65.52-16.82,6.87-6.37,5.56-6.85,9.39-2.37,2.17-3.13,5.65-4.94,3.65-2.85,6.52,4.84,4.52,9.21,5.74,5.61-.09,4.66-.52-4.27-5.57-3.61-11.39,2.85-5,4.75-7.13,6.85-7.83,10.08-9.74,11.5-4.46,15.71-5.89c.12,0,.27,0,.34-.11C620.75,56.28,617.14,57.67,616.28,56.36ZM592.72,95.45c-1,.14-1.52.17.38,2s3.56,3.22,2.94.78S593.67,95.32,592.72,95.45Zm31.21-17.7c-1.39-.63-2.13-1.3-2.47-.26s1.57,2.44,3.43,2.79S625.26,78.36,623.93,77.75ZM296.83,187.19a15,15,0,0,0-5.56-1.87c-1.37,0,.29,1.43,2.47,2.6S298.06,187.8,296.83,187.19Zm-5,8.74c.12-1.72-1.17,2,.41,2.8s2.38,1,3.37,0,.18-.37-1.19-.61S291.7,197.36,291.79,195.93ZM914.29,136a11.08,11.08,0,0,1-4.49-.46,6.85,6.85,0,0,1-.92,3,1.89,1.89,0,0,0-.22,2s-2.57-1.11-4.06-1.63-2.85-.06-3.71-2.28-3.42-1.83-5.42-1.83-1.42-2.54-1.42-2.54l-1.21.06c-1.21.07-1,2.94-2.57,3.85s-6.48,1.5-6.48,1.5,3.13,2.22,3.78,4a17.13,17.13,0,0,0,1.85,3.59s-.29.85-4.07.13-3.56.72-7.62,2.35a56.93,56.93,0,0,0-9.83,5c-1.15.91-1.22.39-4.78-.46s-4.27,1-5.21,1.44-.56-2.09-.56-2.09a7.13,7.13,0,0,0-2.86.78c-16.24,8.11-5,7.69-5.55,9.33l-1.71,6.32c-2.39,7-4.05,3.34-6.06,8.87-6.41,17.61-10.12-2.71-10.12-7.36,0-2.88-.64-6.59,1.21-7.44,16-7.29,1.5-1,16.46-11.08,4.85-3.27,2.21-5.22,3.28-6.14a6.46,6.46,0,0,1,2.78-1.17l-2.64-.26c-2.63-.26-2.7.32-4.77,2.54s-3.7,2.61-3.28.91.5-3.45-1.06-2.54-2.21.78-5.13,1.37a14.44,14.44,0,0,0-8.7,5.22c-2.64,3.26-1.14,2.87-.28,3.65s-4.21.59-6.63.39-1.15-.65.28-1.11-2.14-.85-5.28-1.5-1.92.53-3.77,1.24-1.78-.65-2.71-.84-5.06-.46-8-.79-2.71.2-3.49,1.17-6.2,5.68-8.55,8.35-5.28,3.27-7.92,5.74-3.06,2.35-.92,2.74,2.42.2,2.78,2.15,1.35,2.61,3.63,2.61,1.64.59,2.07-1.11-.57-3.65,1.35-2.15,3.49,2.61,4.06,4.77-.14,3.71-1.14,7.3-1.35,8.74-2.7,11.35-2.43,4.56-3.93,7.43-8.76,10.11-10.4,10.76-2.7.72-3.49-.72-1.35-1.17-3.2.46a9,9,0,0,0-3.43,5.22c-.71,2.6-2.28,2.6-3.92,4.56s-2.06,1.5-.85,3.72,3.2,4.56,3.42,6.72-1,5.28-1.78,6.65-4.49,2-4.42,1.37a52.07,52.07,0,0,0,0-5.8c-.15-1.89-1.57-1.89-1.07-2.49s2.56-1.56,1.07-2.93-2.57-.19-3.2-1.83.28-2.93-.07-3.52-1.43-1.24-3.64-1.43-2.71,2-3.21.06.22-2.08-.79-2.86-1.85-.27-4.41,1.89-3.07,1.69-5.2,2.6-2.14,1.44-1.65,2.16,2.29,3.84,3.78,4.17,2.57-.65,4.85-.65,2.71.32,2.14,1.17-2.14,1.7-4.92,4.44-1.93,2.21-1,3.32a19.27,19.27,0,0,1,3.28,4.63c1,2.16,0,2.94-.14,4.17a5.6,5.6,0,0,0,1.5,5.09c1.85,2,.57,1.31.35,2s-3.35,6.33-4.77,9.14-1.43,3.06-6.06,6.26-6.7,3.52-9.19,4a31.74,31.74,0,0,0-5.92,1.7c-1.28.52-.79,1.56-.92,2.22s-1.36.06-1.15-.92.08-1.69-.57-2a4.09,4.09,0,0,0-4.7.91c-2.06,2-4.56,2.08-5.42,4.57s-.7,1.63.22,2.67,5.42,5.28,6.48,7.56A14.44,14.44,0,0,1,717,298c.07,2.48-5.14,7-7.41,8.55s-2.78,2.93-2.43.58-1-3.72-2.63-5.48-6.63-3.19-7.56-3.39.36-1.63-.29-1.57-2.13-.32-1.92,2-1.49,1.57-1.85,3.85-.78,4.63.71,4.43,1.21,2,2.35,4.51.71,1.1,3.57,3.39,2.14,1.89,2.78,4.17.43,3.59,1.86,5.67,1.49,2.55-.86,1.37a13.35,13.35,0,0,1-5.21-4c-.93-1.43-1.49-5.09-2.06-6.91s-4.42-4-5.7-5.29-.5-2.34.14-5.34-.29-5.87-.5-7.7a52.53,52.53,0,0,0-2.43-8.67c-.71-1.73-.42-1.5-1.53,0s-2,2.41-3,2.41-2.63-.16-2.49-.85,1.21-3.29.89-4.27-1.32-4.11-2.81-5.22a11.24,11.24,0,0,1-4.17-5.21c-1-2.58-1.22-1.83-3.07-.49s-6.09,1.5-8.12,1.66-.36,1.14-.85,2.12-2.89,2.25-7.7,7.17-5.54,5.09-6.79,5.61-2,.36-2,2.38a30,30,0,0,1,0,4.93,10.61,10.61,0,0,1-1.31,3.69,21.46,21.46,0,0,0-1.26,4.33c-.16,1.09-1.23,2.35-2.8,3.45s-1.56.92-2.28-.71-4.42-7.89-7.41-13.76-2.28-6.92-2.57-8.61-.34-11.88-.21-12.65c.07-.44-1.45,1.19-1.88,2s-.4,1.82-2.11,2-2.07.17-3.68-1.42-2.36-2.47-2.08-2.43a9,9,0,0,0,3.22-.7c1.06-.52.71-1.08.71-1.08s-1.16.13-2.54.19-.77-.3-2.59-1-2.24-.78-2.54-1.58-.76-1.94-1-2.55-.48-.65-.79-1.41-1.18.13-3.16.17-1.52.13-3.89,1.05-2.74.58-5.42.49-4.56-1.21-5.92-1.67-1.57-.26-3.56-.54-1.56-1.28-2.07-2.11-1.32-1-3.94-.83a8.48,8.48,0,0,1-4.18-.32c-1.47-.39-1.59-.92-2.83-2.14s-.83-.25-1.63-.89a6.78,6.78,0,0,1-2.26-3.19c-.64-1.7-.5-2.07-1.24-2.85s-.68-.58-3-.58-1.25.15-1.54.3a15.48,15.48,0,0,0-1.63,1.93c-.64.79.52,1.87,1.45,2.94s.11,1,1.59,2.57,1,1.45,2,3.69,1.72,2.8,1.95,3.48.45-.27.69-.87a9.78,9.78,0,0,0-.09-2.79,14,14,0,0,1,.85,2.53c.41,1.61.12,1.63.41,2.65s0,.89,1.78.89a18.3,18.3,0,0,0,4.85-.39c2-.46,2.82-2.22,3.74-2.74s.94-2.35,1.55-2.15,0,2.15.6,3.43.71.83,2.09,1.39,1.75.89,3.15,1.42.45.58,1.22,2,.71.6,1.44,1.08.46.13-.06,1.76a5.49,5.49,0,0,1-1.86,3c-1.23,1.32-1.23.91-1.42.87s-.57-1-.57-1a10,10,0,0,0-.9,3.44c-.12,1.84.61,1.17-1.65,2.06s-3.61,1.26-4.48,2-.88,1.72-1.38,2.2-1.19,0-2.71.56a5.16,5.16,0,0,0-2.38,1.37c-1.28,1-.14.87-1.78,1.48s-4.6,2-6.1,2.17-1.19.54-1.57,1.09-.4.82-2.3,1.11a23.88,23.88,0,0,0-5.45,1.11c-1.16.56-2.87,1.82-4.1,1.58s-.9-.28-1.31-1.37a12.92,12.92,0,0,1-.81-3.65,16.89,16.89,0,0,0-1.88-6.22c-1-1.71-1-1.82-2.16-3.63s-1.9-3.32-2.9-4-1.49-.74-2-1.26-.19-2.3-.68-3.83A12,12,0,0,0,543.8,271a19.3,19.3,0,0,1-2.89-3.63c-1-1.81-1.09-2-2.56-4.79s-2-3.12-3-5-.34-1.5-.69-2.61-1.29,1.81-2,2.37-1.12.29-1.71-1.36-1.1-3.11-1.55-2.46-.81,1.31-.19,3.07.91,1.39,1.71,3.06,3,5.87,3.92,7.61a12.27,12.27,0,0,1,1.38,3.52c.83,2.63,1.3,3,2.42,4s.93.53,1.43,2.31a21.75,21.75,0,0,1,.38,5c.07,1.08.69,1.65,2,2.74s.66.69,1.28,1.84a25.9,25.9,0,0,1,1.59,3.91,3.45,3.45,0,0,0,1.83,2.42,18,18,0,0,0,2.38.93c1,.37.68.63,1.39,1.52s2.1,1.57,2.95,3,.29,1,.24,2.37-.5.74.12,1.46a19,19,0,0,0,3.49,2.48c1.81,1.17.36.34,2,.3s1.95-.45,3.68-.82,4-1,6.11-1.51,4.23-.82,5.32-1.17,1.12.83.28,2.65-1.23,3.35-1.94,4.83-1,1.61-1.5,2.81-4,6.08-4.77,7.63a19,19,0,0,1-2.69,4.06c-1.07,1.28-4.42,3.61-6,4.85s-1.17,1.23-2.33,2.69-4.7,5.5-5.66,6.94a29.77,29.77,0,0,0-2.21,3.36c-.7,1.42-2.72,3.42-2.85,4.44s-1.25,1.16-.4,2.05,1.3,1,1.62,2.17-.95,2.41-.15,4.48.24.58,1.46,2.23,1.16,2.7,1.28,5.11a26.36,26.36,0,0,1-.15,6.37,27,27,0,0,1-1.45,4c-.54,1.42-3.54,2.37-5.3,3.13s-1.68.46-2.49,1.42-3.13,2.95-3.92,4.43-1.38,1.33-1.06,2.26,1,2.16,1.78,3.89.24,1.61,0,3.11-.16,1.26-.37,3.09-2.4,1.87-4.9,2.82-1.59.48-1.88,1.81a53.52,53.52,0,0,0-.21,5.5c-.1,1.57-.85.93-2.21,2.87s-1.9,2.85-3.35,5.17a8.51,8.51,0,0,1-3.16,3.46c-1.83,1.45-3.28,1.83-4.08,3.5s-1.74.56-5.66,1.8-1.07.64-4.79,1.05-5.07.69-7,1-1.71-.11-2.92-1.41-1.4-1.2-1.94-2.28-.15-1.35-.32-3.31a5.18,5.18,0,0,0-1.06-3.24,18.12,18.12,0,0,1-1.5-3.35,16,16,0,0,0-2.07-3.78c-.9-1.3-1.16-.89-2-1.74a4.22,4.22,0,0,1-1-2.78c-.19-1.2-.48-4-.88-7s0-1.39-.53-2.65-1-2.78-1.84-4.46a25.32,25.32,0,0,0-1.76-3.31,18.87,18.87,0,0,1-1.9-3.58c-.79-1.8-.91-1-.95-1.7s.4-1.95.45-3.17.45-2.63.75-4.5-.42-1.85.39-3.13a20.38,20.38,0,0,0,2.16-3.91,6.87,6.87,0,0,0,.45-3.37c0-1.85-.19-1.7-.76-3.24s-.78-3.35-1.47-5.83a14.66,14.66,0,0,1-.77-3.35,22.25,22.25,0,0,0-1-4.41c-.47-1.3-.71-.78-1.75-1.63s-.36-.48-1.26-1.41-.74-1.24-1.62-2.26a12.74,12.74,0,0,1-1.71-2.22c-.71-1.15-.33-.46-.24-2.39s.67-5.63,1-7.76.43-2-.41-2.91-1.42-2.18-2.06-2.4-2.19.22-4.45.18-2.16-.55-3.13-1.65-2.26-2.66-2.71-3.07-1.24-.39-5.08-.11-1.53.35-4.1.74-3.55,1.72-5.53,2.39-2.54.5-6-.17-5.2.78-7,1.52a3.4,3.4,0,0,1-3.89-.48,25.11,25.11,0,0,0-4-2.54c-2-1-1.52-1.48-3.46-2.42s-1.31-1-2.93-2.47-1.73-3-2.85-4.59-2.07-3.76-3.56-5.41-3-5-3.71-6-1.3-1.09-1.28-1.56,1.45-3.29,2.05-4.75a22.84,22.84,0,0,0,1-2.17c.27-.91-.35-3.54-.92-5s-1.21-4.46-1.66-5.88.23-1.43.78-2.23a48.43,48.43,0,0,0,3.21-5c1.35-2.48,2.11-3.7,2.82-4.85s2.35-4.69,3.43-5.65a34.4,34.4,0,0,1,5-3.46c1.16-.58,2.11-.91,2.3-1.43s.69-4.83,1-6.63-.11-2.81,1.22-3.5,3.46-2,4.59-2.61,1.27-1.52,1.84-2.85.81-3,1.67-3.54.61.23,1.73,1a4.77,4.77,0,0,0,1.83.91c.53.13,1-.42,2.31-.44A3.31,3.31,0,0,1,443,237c.78.41.35.41,2.59-.94a36.17,36.17,0,0,1,6.94-3.24,30.86,30.86,0,0,1,6.26-1.8c1.36-.15.67,0,2.19.61s1.59.85,1.9.41,1.31-1.65,1.95-1.6,1.38.3,3,.58a4.27,4.27,0,0,0,3-.21c.66-.36,1.52-1.05,1.68-1.05s1.57.48,2.71.89,1.16.48.93.76a5.7,5.7,0,0,0-1.11,1.81c-.56,1.21-.29.56.23,1.85s.9,1.21.66,2.15-1.3,1.8-2.08,2.71-.6,1.07,1.32,2.14a28.74,28.74,0,0,0,3.64,1.84c2.16,1,2.25.61,4.77,1.35s2.21.82,3.09,1.83.93,1.95,2.45,2.47,3.14.52,4,1.07a7.83,7.83,0,0,0,2.78,1.54c1.19.22,1.19.37,1.76-.48s1.05-1.61.83-2-.86-1.11-.71-1.52a26.67,26.67,0,0,1,1.45-2.57c.31-.49,1.09-.63,3-.71s3.18-.35,3.49.74.24.58,1.69,1.17,1.59.58,2.8,1.05.59,1.1,1.21,1.06a7.49,7.49,0,0,1,2.75.19,20.68,20.68,0,0,0,5.44,1.39,5.72,5.72,0,0,0,3.41-.71c.33-.15,1.89-2,2.82-.74s2.14,1.32,4.46,1.2,2.36-.49,2.88-1.07a15.7,15.7,0,0,0,2.38-4.33c.45-1.52,1.68-4.84,2-6.35a8.72,8.72,0,0,0-.14-3.56,4.92,4.92,0,0,1,.45-2.5c.36-1-1.11-.39-1.71-.19s-.75-.31-1.3-.46-1.12-.29-1.52.72-.22,1.5-2.4,1.39-1.78-.24-2.5-1a6.16,6.16,0,0,0-2.9-1.24c-1-.29-1.06-.24-1.14.37s-.09,1-.8,1.26a6.36,6.36,0,0,1-3.68-.67,9,9,0,0,1-3.09-2.22c-1.34-1.29-1.14-1.28-1.69-3.26a8.55,8.55,0,0,1-.3-4.27c.23-.58.61-.75-.41-.45s-1.71.48-1-1,1.32-1.57,2-1.76a19,19,0,0,1,3.16-.31,7.55,7.55,0,0,0,2.87-1c.48-.19,1.46-.52,1-.65s-2-.28-1.74-.69.43-.39,1.23-.48,2.07-.13,3.14-.2,1.71.13,2.07-.49a5,5,0,0,1,1.64-2.07c.83-.5,1.73-.24,3.92-.33s1.85.44,2.56.94,1.19.26,2.12.43.35.72,1.07,1,2,.57,3.6,1.07.55.28,2.5.28a13.56,13.56,0,0,0,3.42-.24,7,7,0,0,0,3.28-1.59c1.09-.76.33-2.41-.07-3.69s-2.12-2.11-2.9-2.7-2.47-2.46-3.37-3.22a16.15,16.15,0,0,0-3-1.52c-1-.54-2.78-1.43-2.94-2.15s.38-.73,1.85-1.09,1-.65,1.28-1.41.41-.74,1.61-1.17-1.39-1.35-1.76-1.85.81-.35,2-.63,1.31-.85,1.47-1.35.11-.74-1.31-.72a28.28,28.28,0,0,0-5.63,1.24c-2.4.63-1.3.65-2.75,1.76s-1.54.63-1.36,1.24.29,1.2,1.76,2,.85.78,1.26.89,1.4.26.95.4-.86.81-1.52.81-1,.68-2.09,1.31a6.08,6.08,0,0,1-2.47.85c-.83.13-1.43-.13-1.31-1.52s-.42-.46-1.31-.78a3.33,3.33,0,0,1-1.21-.7,9.57,9.57,0,0,0,1.76-.85,3.39,3.39,0,0,0,1.72-1.93c.42-1.07-1-.48-2-.61s-.72-.22-1.69-.35a1.82,1.82,0,0,1-1.35-.89,3.06,3.06,0,0,0,1.28.09c.83-.09.64-.3,1-.53s.55-.41.3-.41-1.25.11-1.94.07a7.23,7.23,0,0,0-2.09,0c-1,.15-.6.52-1.31,1a2.59,2.59,0,0,0-1.12,1.29c-.37.67-.5.56-.75,1a5.72,5.72,0,0,0-.24,2.26,2.16,2.16,0,0,1-.65,1.58c-.45.61-.45.36-1.21.72s-.26.63-.35,1.37a17.91,17.91,0,0,0-.43,2c-.07,1-.45,1-1,1.67s-.92.68-1,1.38a8,8,0,0,0,0,2.34c.17,1.35.55,1,1.62,2.37s1.64.85,1.25,1.54-.3.44-1.61.29-1.52,0-2.47.93-1.14,1.39-1.64,1.72-.33-.65-.52-1.11-2.38-.61-3.88-1a17.22,17.22,0,0,0-2.28-.7,4.25,4.25,0,0,0-2.52.76c-1.57.85-1.22,1.34-1.11,2.45s1.35,1.34,1,3.94,1.32,1.41,2,3,.07,1.47-.36,1.66-.85,1.57-1.17,2.87,0,1.48-.36,1.41-.85.23-1.6-.85-1.35-.06-1.47-.68-1-1.67-.67-3.1.93-1.57-.36-2.32-1-.84-1.57-2.38a8.6,8.6,0,0,0-1.91-3.23c-1.19-1.39-1.08-1-.76-2.41s.58-3.23-.14-4.21a23.65,23.65,0,0,0-6.1-4.95c-2.41-1.27-2.92-.29-4-2.32s-1.56-4.14-3.34-5.38-.89-1.33-2.6-.71-1.75.88-1.61,1.37a4,4,0,0,1,.28,2.47c-.25,1.34-.6.92,1.18,2s1,.81,1.93,2.74a9.7,9.7,0,0,0,1.74,3.06,4.07,4.07,0,0,0,2.75,1.86c1.78.4,1.5-.1,1.95.33s-1.24.58-.92.78a16.32,16.32,0,0,0,2.21,1.66c1.5.92,3,1.86,3.43,2.58s1.7,3.42-.22,1.43-2-1.07-2.5.3.5,2.41.43,3.42-1,.62-1.57,1.44-.93,1.79-1.64,2.31-.49-.58-.88-.58-.54.49-1,1.43,0,1.34.21,2.61.58,1.37-.82,1.31-1.07-1.35-2.34-2.19-2-.55-3.11-1.21.47-.82,3.14-1.14,3-.59,3.81-1.2.54-.79,1.43-2,0-1.73-.61-3.23a5.47,5.47,0,0,0-2.14-2.48,21.24,21.24,0,0,1-2.06-2c-.79-.84-1.61-1-3-1.3s-1.11-1.53-1.85-1.89-1.5-1.4-3.21-3S474.8,208,474,206.64s-1.56-2.41-3.27-2.41-3,1.18-4.71,2.8-1.35,2.42-3.34,1.18-2.71-1.11-4.14.07-1.71,2.34-1.71,4.69-1.71,1.37-3.07,2-2.56,2.28-4.63,6.13.15,2-.28,3.33.14,2.35-1.78,4-1.07-.2-2.21,1.18a5.64,5.64,0,0,1-5.42,2.15c-2.71-.33-1.92.72-3.63,1.1s-2.64,1-2.22-.91.08-1.63-3.2-1.5-4.42,1-4.13.52a11.22,11.22,0,0,0,.79-3.06c.35-1.83.85-2.42.35-2.42s-1.57.27-.79-3,1.08-3.84.72-5.73.14-4.44-.28-5.55.85-2.21.28-2.8-1.22-1.37-.78-1.37a31.72,31.72,0,0,1,4.48.45c2.29.4,4.63-.32,6-.19s4.21.72,7.05,1.17,2.78-.39,2.5-4.5.21-6-.64-6.84-1.78-.79-2.71-1.89S443,192.55,441,192s-4.21-.13-3.14-.52,1.5-.52.36-1.37-1.43-1.76-.57-1.89,3.28-.13,3.28-.13.21,1.17,1.5.65,2.92-1,2.57-1.89-1-1.89-.79-1.89a4.33,4.33,0,0,0,3.42,1.17c2.7,0,2.49-.39,2.28-1.5s1.78-1,3.14-2-.5-1.95-.22-2.8,1.85-1.37,4.63-1.56,2.28-.66,2-1,.07-1.7.28-3.46-.21-2.35,1.21-3.19,1-.53,3.93-.79,1.13-.91,1.63-1,4-1,4.63-1.24.58-.2,0-1.44-1.35-1.95-2-7.69-.5-5.74,3.06-6.78,2.79-.72,2.5,2.47-1.86,3.2-2.21,5.55-.07,3.78,1.42,6.26,1.36,1.24,4.57,1.24,2.49.78,4.63,1.5,1.42-1.31,3.49-2,1.64.45,6.48-.27c1.85-.27,2.48-.33,2.63-.35-.15,0-.69,0-.13-.3,1.14-.65,1.42-1.82,3.07-2s2.77.46,2.7-2-1-2.09-.71-4,.35-1,.49-2.54-.2-1.76,1.86-2.28.64,1.82,3.13,2.34,2.14.91,2.57-1,1.79-4.37.57-4.23-1.5-.07-2.71-1.83-1.92-2.15-1.14-2.15a42.33,42.33,0,0,1,7.2-.59c3.78.13,4.85.46,5.06.07s-.64-.79.64-1.57,5.49.39,4.85-.32-4.35-1.7-6.84-1.31-8.56,1.11-9.48,1a6.59,6.59,0,0,1-3.07-1.17c-.42-.46-1.78-.78-1.78-2.94s.79-3-.5-5.08,2.35-3.85,4.85-6.07,1.86-4,3.35-4.17,2.07-.91,1.35-1.63-3.35-3.2-4.63-3.46-3.21-1.69-5.2,1.7.14,3.71.5,5.47-2.78,3.07-5.14,4.7-3.2,1.24-3.91,5.42-1.43,4.3,1.21,5.73,3.13,2.15,1.93,3.39-3.78,1.18-5.36,4.11-.92,4.37-1.56,5.68-2.63,1.89-3.21,3.19-.56,3.78-3,3.39-1.07-3.58-2.14-5.21-1.93-3-3.2-5-.29-4-1.5-5a5.78,5.78,0,0,1-1.5-3.13l-.43,1c-.42,1-.21,1.57-2.63,4.5a7.29,7.29,0,0,1-7.84,2.42c-1.78-.73-1.5-2.42-1.5-4.57a63,63,0,0,1-.07-8.41c.36-3.39,1.36-3.13,5.13-5.35s3.85-2.09,4.78-3.52,3.63-3.46,5.2-4.76,4.28-6.26,5.7-9.79,4.06-5.67,6.62-9.45,7.13-7.11,13-9.52,4.85-2.68,6.2-4.57,1.93-.78,4.21-1.24,1.93,0-.35,2.22S509.08,96.76,511,95s3.42-3.84,6.41-3.72,1.79,0,4.71,1.31,3.42,1.44,1.78,2.48a8.43,8.43,0,0,1-4.42.78,4.6,4.6,0,0,0,3.63,2.48c2.72.33,4.21-2.09,6-1.18s2.28,1.57-.14,1.38-3.13,1.3-.14,2.34a24.91,24.91,0,0,0,7.2,1.7c3.91.52,5.63,3.32,8.62,4.56s6.48.2,5.49,2.87.78,5.29-4.42,6.52-5.06-.39-9.41-1.69a77.65,77.65,0,0,1-7.41-2.61,28.52,28.52,0,0,0,3.13,3.33c2,1.82,2.22,3.52,2,6.84s-1.14,4.25,2.28,5.87,2.92,1.18,4,.92,2.85-.59,2.42-1.12a5.1,5.1,0,0,0-1.92-2,1.23,1.23,0,0,1-.07-2.34c1.14-.59,2.21.52,4.7.39s0-.91,1.21-2.15,1.29-3.33,4.21-4.44,6,.52,6.84-.72,1.64-2.67,0-4.56-2.92-2.54-1.93-3.46,3-3.32,3.93-2,3.27,2.87.28,2.61-.93,4.36,1.78,4.11,2.5-1.11,4.71-2.16,6.55-4.5,9.62-5.54,3.7-.78,4.91-.26,1.22,1.5,4.57.85,4.34-1.44,7.48-2-.21,1.11,1.21,1.56,1.56.85,2.64.14,4.49-1.89,2.92-3.07-2.71-2-2.71-2a4.27,4.27,0,0,1,4.13-2.28c3,.2,7.56,2.93,10.48,4.89a42,42,0,0,1,6.49,6.13s1.27-2.15.2-5.74-3.77-2.73-3.77-6.13-2.5-2.48-1.64-4.89,3.28-3.32,3.92-6.39,1.21-5.61,3.42-5.61,7,.66,7,.66a19.67,19.67,0,0,1-1.78,7c-1.78,4.18.93,4.63.51,9.72s-.51,5.74.7,6.91,3.5,2.61,2.64,4.83-1.28,3.58-4.48,4.82-7.27.53-5.78,1.5a14.29,14.29,0,0,0,5.56,2.16c2.14.32,1.07-.14,2.78-1.5s5.56-4.11,5.41-5.42-2.2-3.32-.78-4.3,2-2.48,4.2-1.24,4.35,5.87,4.35,5.67-.42-4.56-3.06-7.17-7-.13-7-2.41,1.21-5.42.92-7.89-1.28-5,.36-7.11a7.56,7.56,0,0,0,1.71-3.85,9,9,0,0,1,.14,4.56c-.57,2.55.29,4,1.5,4s6.62.06,3.7-.79-3.77-1.63-.85-3.19,2.77-.52,7,.45,5.27,1.7,6.7,1.64,1.21-.2.71-1.44A5.55,5.55,0,0,0,650,85.8c-1.36-.85-2.28.19-2.71-1.11s-1.21-4.57-1.57-5.8,1.07-.27,3.35-.27,8.48-.32,13.26-.45.07-5-.29-8.48,8.84-3.59,13.33-4.24S685.1,65,693.51,63s3-1.64,4.2-4,3.28-2.74,5.77-2.74,4.79.45,3.86.78-3.71,1.7.64,2.61,3.21.85.92,1.63-.35,2.22,4.06,2.22,1.78-.39,1.07-1.83.65-.91,4.28-.33,5.06,1.18,7.06,3,2.35,1.38,3.06,3.92-.07,2.15-3.13,4.5-4.92,2.35-9.34,5.09-3.35,4.17-5.77,6-1.79,1.31,3.35,0,7.9-2.14,10.55-1.89S728,83.25,730,83.25s-.14.33,6.13.33,5.34,0,3.06,1.76.43,2.28,3.21,2.28a64.65,64.65,0,0,0,8.76-.26c2.57-.39.36-2.28,3.42-2.41s4.06-.39,7.34-.39,2.28,1.3,3.42,2.48,2.71,1.95,1.64,4.3-1.64,2.41-1,5.61,2.29,3.65,4.28,4.24,2-2.87,3.92-4,2.35,2.35,4.57,1.83a13.25,13.25,0,0,1,6.62.33,11,11,0,0,0,6.27.32c2.71-.58,1.85-1.63.93-3.26s-1-1.5.71-3.19,2.85-.85,8.41.58,3.78,1.44,6.91,2.28,2.14.66,6.91,2.81,3.86,4.69,6.06,6.06,2.35,0,6.78-.39,4.34.53,9.19,1.76,3.56,2.81,3.56,4.18-1.36,2.41,1.64,3.07,4.2,1.23,6.77.58.28.65,6,.72,3.77-.65,5.49.52,2.13,3.52,4.91,3.26,2.57-.19,1.43-2.61-1.86-2.8-.22-2.74,5,.79,11.19,1.76,6.41,2.09,11.48,5.22,6.48,3.39,10.19,6.2a8.28,8.28,0,0,1,1.72,1.45,8.77,8.77,0,0,1,1.91.77c4,1.82,3.28,1.23,6.7,2.86a39.92,39.92,0,0,1,6.33,3.91S916.85,135.75,914.29,136ZM581.79,202.3s-.38.5,1.62-1.07-.93-.07-2.07-.39-1.5-.85-1.14-2.28-.14-1.44-1.36-3.33c0,0-.64-.39-2,.39s-2.14-.78-3.78-.2-3.42.33-4.42,2.74-2.13.85-2.49,2.81-3.42,3-3.42,3,1.22,1.17,2.14,2.28.28.39,1.21,4,1.57,3.33,2.85,3.85a28.11,28.11,0,0,1,3.28,1.76s-1.21-.71-1.21,1.24-1.93,3.33-1.72,6.2-2.63,5.54-.35,5.8,1.57,1.24,4.06,1.89a23.69,23.69,0,0,0,7.56,1.11c3.63,0,1.64-1.36,1.13-3.39a27.28,27.28,0,0,1-.92-5.54c-.14-2.22-1-1.63-1.57-3s.29-2.15,2-2.15,1.93-.07,1-1.57-.36-2.09-1.51-2.74-1.63,2.15-1.63,2.15-.71-.65-.43-3.39.5-1.43-.35-2-1.36.14-2.5-1.69-.14-1.43-1.49-3.65-.65-1.05.85-1.05.71-.32,0-1-1.21-1.82.71-1.69,4.42.52,5.34.58S581.79,202.3,581.79,202.3ZM315.92,101.81c-.66,1.11,1.11,2.55,2.4,2.1s1.7,0,2.44-.52.79-1.42-.07-2.24-.52-1.32-.67-1.41C318.39,98.76,316.58,100.7,315.92,101.81Zm352.29-71.9c-1.93.06-4.06.13-2.28.71s1.07,3.52,4.49,1.9,2.71-1.77,5.06-2.74,1-.51-1.85-1.24C671.85,28.08,670.14,29.84,668.21,29.91Z"/><g id="el_ch3VHVXi-p"><g id="el_A-pVMSYWM5_an_9xRHAnMpT" data-animator-group="true" data-animator-type="0"><path d="M467.52,41.06,448.38,58.22l29,51.76.05-1.59,27.32-1.6,1.76,33.32,20,3.65,7.71-6.62L520.59,131l11.23-28.53,6.17,1.83,9.25,14.6,11.18,12.25L574,133.37l6.72-8.33-15.15-4.26L558.85,94l28.87,6.08,11.15-2.28,6.55-5.28L593.75,79.06l2-9.58L584.66,59.32l2.42-15.06L577,49.51l-6.62,1.14-5.94-7.76-5.54,4.87L537.3,32.62l-23.46,5.59ZM565,51.52l.16,0h-.1Z" id="el_A-pVMSYWM5"/></g><g id="el_50yyk4GihW_an_-Rm2tOI0r" data-animator-group="true" data-animator-type="0"><polygon points="463.27 142.16 451.55 143.07 457.2 130.14 462.74 121.07 459.87 112.68 418.32 108.97 407.51 116.76 420.09 140.21 407.94 140.05 393.81 114.13 396.93 104.24 374.32 105.99 383.08 129.01 371.17 125.86 364.7 99.95 378.53 93.14 369.34 87.94 361.16 71.68 342.17 78.88 334.53 79.25 327.18 75.92 335.69 59.36 333.34 49.73 334.24 46.98 323.98 42 319.85 14.71 330.04 34.63 335.76 35.57 335.75 35.57 333.13 14.02 340.68 29.93 351.43 34.31 374.46 35.47 400.53 19.58 409.3 22.23 420.38 27.04 432.36 43.06 445.28 47.66 481.69 113.99 464.77 131.73 463.27 142.16" id="el_50yyk4GihW"/></g><path d="M605.4,92.5,593.75,79.06l2-9.58L584.66,59.32l2.42-15.06L577,49.51l-6.62,1.14-5.94-7.76-5.54,4.87-.16-.11c-.12.17-.24.34-.35.52-1.81,2.88-2.57,6.18-3.66,9.34-.24.69-.48,1.38-.66,2.08-.12.48-.35.54-.77.57-1.08.06-2.17.19-3.25.3-.38,0-.56.23-.67.65-.92,3.48-1.88,7-2.83,10.43,0,.08-.06.16-.16.45A35.75,35.75,0,0,1,544,69.2c-.58-.86-.94-1.89-1.45-2.8a.85.85,0,0,0-.67-.35,15.63,15.63,0,0,0-1.69.25,95.15,95.15,0,0,1-3.36-12.71c-.13.3-.27.6-.4.91-.45,1.11-1,2.2-1.32,3.34a5.4,5.4,0,0,1-2.57,3.34,5.7,5.7,0,0,0-1.18,1.13c-2,2.1-2.72,4.89-3.63,7.57-.38,1.13-.77,2.26-1.2,3.53-.6-.75-1.14-1.39-1.64-2.07A.78.78,0,0,0,524,71a3.36,3.36,0,0,0-2.55,1.92c-.39.77-.94,1.44-1.38,2.18a.68.68,0,0,1-.76.38c-1.69-.25-1.69-.23-2.41,1.41l-2,4.44L513,77.83c-.8.35-1.6.64-2.35,1s-1.4.9-2.18,1.4l-1.81-6.16c-.66.19-1.31.35-1.93.59-.18.07-.31.36-.42.58-2.26,4.48-3.5,9.34-4.8,14.18-.24.87-.43,1.75-.75,2.58-.84,2.15-1.74,4.29-2.64,6.48a9.47,9.47,0,0,1-1.28-.54c-.6-.36-1-.27-1.34.38-.52.91-1.15,1.75-1.73,2.62-.11.16-.24.31-.45.59-.34-4.57-.66-9-1-13.39l-.14,0q-.77,2.53-1.52,5.07c-.38,1.28-.75,2.57-1.15,3.85a1.79,1.79,0,0,1-.41.71,10,10,0,0,0-2.82,5.85c-.28,1.46-.58,2.92-.87,4.39l21.34-1.25,1.76,33.32,20,3.65,7.71-6.62L520.59,131l11.23-28.53,6.17,1.83,9.25,14.6,11.18,12.25L574,133.37l6.72-8.33-15.15-4.26L558.85,94l28.87,6.08,11.15-2.28,6.52-5.26ZM565.15,51.55h-.1l-.06,0Z" id="el_0yqSU384gl"/></g><g id="el_LKMHh6mv7Z"><text id="el_ziZUexmTu7">Dile s,<tspan x="87.62" y="0" id="el_rgfy0iunHh"> </tspan><tspan id="el_priwmlMI4Y"><tspan x="-304.41" y="35.08" id="el_QGCa8cLaHP">a todo lo que te imaginas para ser dueo de tu propia </tspan></tspan><tspan x="-1.01" y="70.17" id="el_Fj55i3xNGN">historia</tspan></text></g><g id="el_Rh4HAn_l-i"><polyline points="382.32 146.73 382.59 174.53 382.65 180.43 382.92 208.23" id="el_roDsk3-BoOP"/><rect x="375.88" y="160.63" width="13.48" height="33.7" id="el_fEH-kNnQohB"/><polyline points="358.06 170.96 358.23 188.46 358.27 192.16 358.44 209.66" id="el_NgQRZcrmaZS"/><rect x="351.51" y="179.71" width="13.48" height="21.2" id="el_u5hOd7F3inu"/><polyline points="404.38 170.51 404.53 185.78 404.56 189.01 404.71 204.27" id="el_FHYrBTfOPBI"/><rect x="397.8" y="178.14" width="13.48" height="18.5" id="el_twxIBbxygzc"/><polyline points="426.68 141.52 426.96 170.46 427.02 176.59 427.3 205.52" id="el_w4vgiDqP9ob"/><rect x="420.25" y="155.99" width="13.48" height="35.06" id="el_bfZRR6q_Wia"/><polyline points="334.57 171.32 334.74 188.82 334.77 192.53 334.94 210.02" id="el_s1SFq6DorXO"/><rect x="328.01" y="180.07" width="13.48" height="21.2" id="el_eC2CRDhyQKJ"/><g id="el_y8bs-NOxwSp_an_meHRd2hiK" data-animator-group="true" data-animator-type="0"><g id="el_y8bs-NOxwSp"><polygon points="631.07 217.98 617.98 200.89 604.88 183.79 629.13 178.84 653.38 173.88 642.23 195.93 631.07 217.98" id="el_UzzXFy1Vu4Q"/><path d="M631.1,218.33c-2.15-2-4.71-4.34-7.42-7a110.32,110.32,0,0,1-8-8.68c-2.3-2.76-4.58-5.54-6.68-8.46s-3.92-6-5.74-9.16L601.41,182l3.05-.21a103.22,103.22,0,0,0,12.33-1.47,113.45,113.45,0,0,0,12-3c4-1.22,7.9-2.57,11.88-3.7s8-2.08,12-3.11l6.85-1.76-3,6.74c-1.7,3.76-3.44,7.5-5.33,11.15s-3.91,7.26-6,10.82c-2.29,4-4.8,7.86-7.27,11.37Zm-.06-.7c1.73-4.51,3.12-8.66,4.36-12.51s2.46-7.3,3.89-10.67c1.63-3.79,3.34-7.54,5.16-11.24s3.81-7.3,5.83-10.9l3.8,5c-4.08.62-8.15,1.36-12.26,1.85s-8.25.82-12.37,1.25a111.63,111.63,0,0,0-12.23,2,103.22,103.22,0,0,0-11.92,3.48l1.24-3.32c2.55,2.57,5.07,5.15,7.35,7.93s4.36,5.71,6.42,8.64a88,88,0,0,1,5.06,8.42C627,210.57,628.82,214,631,217.63Z" id="el_-_iIrZrvEwx"/><line x1="245.95" y1="301.93" x2="319.78" y2="216.37" id="el_84UbC6Ileey"/><path d="M245.69,301.71a75.38,75.38,0,0,1,7.43-12.25c1.38-1.92,2.82-3.78,4.32-5.6a52.23,52.23,0,0,1,4.76-5.22c3.41-3.27,7.35-6.1,10.58-9.53a72.63,72.63,0,0,0,8.63-11.21c1.3-2,2.57-4,3.94-5.93s2.8-3.8,4.24-5.67c2.87-3.74,5.74-7.49,8.9-11s6.49-6.84,10-10.06c1.74-1.61,3.51-3.19,5.35-4.71s3.7-3,5.71-4.41l.53.46c-1.08,2.18-2.28,4.26-3.53,6.29s-2.54,4-3.87,6q-4,5.87-8.5,11.33c-3,3.64-6.27,7-9.55,10.42-1.64,1.69-3.26,3.41-5,5s-3.52,3.19-5.29,4.76a73.35,73.35,0,0,0-9.83,10.19c-2.92,3.7-5.14,8-7.87,11.86a54.78,54.78,0,0,1-4.47,5.48q-2.37,2.61-4.91,5.09a75.89,75.89,0,0,1-11,9.14Z" id="el_Nyh-JqxkMx5"/><line x1="365.97" y1="264" x2="319.78" y2="216.37" id="el_QEcp6muLhdZ"/><path d="M365.72,264.24a28.67,28.67,0,0,1-7.48-4.3,39,39,0,0,1-3.17-2.71,18.5,18.5,0,0,1-2.74-3.11c-1.6-2.3-2.71-5.07-4.49-7.2a25.43,25.43,0,0,0-6.34-5.4c-1.19-.77-2.4-1.52-3.53-2.35s-2.19-1.74-3.24-2.64a60.36,60.36,0,0,1-6.09-5.65,58.06,58.06,0,0,1-5.07-6.63c-.77-1.18-1.52-2.38-2.19-3.66a28.47,28.47,0,0,1-1.85-4l.5-.48a29.29,29.29,0,0,1,3.92,2,42.24,42.24,0,0,1,3.59,2.3,58.15,58.15,0,0,1,6.47,5.28,60.42,60.42,0,0,1,5.47,6.25c.86,1.08,1.74,2.15,2.53,3.32s1.51,2.38,2.24,3.6a25.62,25.62,0,0,0,5.21,6.5c2.07,1.84,4.81,3,7.06,4.71a18.48,18.48,0,0,1,3,2.84,37.48,37.48,0,0,1,2.61,3.25,28.46,28.46,0,0,1,4.07,7.6Z" id="el_Fe1VoRQ9kF2"/><line x1="442.34" y1="228.74" x2="365.97" y2="264" id="el_Swt-n-7XipI"/><path d="M442.49,229.06a43.66,43.66,0,0,1-8.55,6.56c-1.51.92-3,1.77-4.61,2.56a29.12,29.12,0,0,1-4.86,2c-3.37,1.06-7,1.5-10.29,2.79a40.69,40.69,0,0,0-9.22,5.12c-1.46,1-2.9,2.07-4.4,3s-3,1.79-4.56,2.65a98.45,98.45,0,0,1-9.37,4.8,93.82,93.82,0,0,1-9.95,3.52c-1.71.49-3.43.95-5.19,1.32a44.55,44.55,0,0,1-5.37.89l-.3-.63a45.34,45.34,0,0,1,4.17-3.51c1.42-1.11,2.89-2.12,4.37-3.09a91.78,91.78,0,0,1,9.14-5.29,98.33,98.33,0,0,1,9.72-4c1.65-.61,3.29-1.25,5-1.76s3.43-.94,5.15-1.38a41.15,41.15,0,0,0,9.88-3.69c3.1-1.66,5.8-4.16,8.8-6a29.51,29.51,0,0,1,4.69-2.38c1.61-.68,3.26-1.3,4.93-1.85a43.69,43.69,0,0,1,10.55-2.25Z" id="el_3IwwvmR0dfp"/><line x1="482.93" y1="283.33" x2="442.34" y2="228.74" id="el__5MbB3wCsKQ"/><path d="M482.65,283.54a29.63,29.63,0,0,1-7-5.41,39,39,0,0,1-2.85-3.18,19,19,0,0,1-2.38-3.53c-1.33-2.54-2.11-5.49-3.64-7.89a26.61,26.61,0,0,0-5.7-6.35c-1.1-.95-2.23-1.88-3.26-2.88s-2-2.06-2.93-3.12a62.69,62.69,0,0,1-5.42-6.56,61.6,61.6,0,0,1-4.29-7.41,43.41,43.41,0,0,1-1.76-4,33.31,33.31,0,0,1-1.38-4.27l.56-.42a31,31,0,0,1,3.7,2.55c1.17.9,2.26,1.85,3.32,2.83a60.47,60.47,0,0,1,5.85,6.25,63.21,63.21,0,0,1,4.73,7.08c.74,1.21,1.49,2.42,2.14,3.7s1.23,2.62,1.81,3.95a26.86,26.86,0,0,0,4.45,7.3c1.85,2.15,4.45,3.75,6.51,5.75a19.31,19.31,0,0,1,2.69,3.3,40.61,40.61,0,0,1,2.22,3.64,29.53,29.53,0,0,1,3.17,8.24Z" id="el_6GbyEyLMErK"/><line x1="612.63" y1="201.54" x2="482.93" y2="283.33" id="el_RF-6j84jAZi"/><path d="M612.82,201.83c-2.34,2.29-4.8,4.38-7.3,6.4s-5,4-7.65,5.84-5.22,3.69-7.9,5.44-5.38,3.43-8.21,5c-5.64,3-11.65,5.48-17.16,8.71a136.83,136.83,0,0,0-15.8,10.89c-2.54,1.95-5,4-7.63,5.86s-5.21,3.72-7.84,5.54c-5.26,3.62-10.52,7.27-16,10.58-2.74,1.66-5.49,3.28-8.29,4.82l-4.2,2.33-4.25,2.25c-5.7,2.94-11.45,5.79-17.49,8.19l-.38-.59c4.77-4.42,9.82-8.39,14.93-12.26l3.86-2.87,3.91-2.78c2.6-1.87,5.25-3.65,7.92-5.41,5.35-3.5,10.9-6.67,16.44-9.86,2.78-1.59,5.54-3.19,8.38-4.69s5.72-2.9,8.58-4.36a138,138,0,0,0,16.63-9.55c5.29-3.59,10.1-7.95,15.26-11.74,2.58-1.9,5.25-3.65,8-5.28s5.51-3.25,8.31-4.78,5.66-3,8.57-4.39,5.85-2.71,8.91-3.83Z" id="el_C9DvY7utaVq"/></g></g><g id="el_VUXJzcoxgdu_an_1LmqxkWhS" data-animator-group="true" data-animator-type="0"><g id="el_VUXJzcoxgdu_an_hCy6lwihL" data-animator-group="true" data-animator-type="1"><text id="el_VUXJzcoxgdu">Under<tspan x="283.27" y="0" id="el_cln7-8ouqyu">Visa</tspan></text></g></g><g id="el_CSuD5YbFVT__an_VZ4BGtxxQ" data-animator-group="true" data-animator-type="0"><text id="el_CSuD5YbFVT_">Master Traders</text></g><text id="el_kFTeJGZhWTO">TM</text></g></g></g></svg>