<svg id="el_VqBXDHq3z" data-name="el VqBXDHq3z" xmlns="http://www.w3.org/2000/svg" viewBox="0 0 300 300"><title>reloj</title><circle id="el_g41350O_sr" data-name="el g41350O sr" cx="153.8" cy="166.46" r="89.35"/><g id="el_DAvXCbju5N_an_zonWFV8gF" data-name="el DAvXCbju5N an zonWFV8gF"><path id="el_DAvXCbju5N" data-name="el DAvXCbju5N" d="M173.4,57.3H134a3.35,3.35,0,0,0-3.38,3.3v5.81a1.83,1.83,0,0,0,1.82,1.84h8.92A2.72,2.72,0,0,1,144,70.92V98.35h19.55V71a2.71,2.71,0,0,1,2.66-2.66h8.9A1.83,1.83,0,0,0,177,66.57V60.78A3.83,3.83,0,0,0,173.4,57.3Z"/></g><circle id="el_y4xuuvPxJV" data-name="el y4xuuvPxJV" cx="153.8" cy="166.46" r="80"/><g id="el_mfPnmGcXGe_an_iSzqMNGOJ" data-name="el mfPnmGcXGe an iSzqMNGOJ"><path id="el_mfPnmGcXGe" data-name="el mfPnmGcXGe" d="M223.38,166.46A69.58,69.58,0,1,1,153.8,96.88a69.58,69.58,0,0,1,69.58,69.58Z"/></g><path d="M106.14,158.8c.07-.11.23-.17.49-.17s.59.23,1,.7a2.35,2.35,0,0,1,.63,1.63,32.06,32.06,0,0,1-1.07,5.11,28.46,28.46,0,0,0-1.07,5.67,4.62,4.62,0,0,0,.56,2.41,1.63,1.63,0,0,0,1.42.93,3,3,0,0,0,1.93-1,11.27,11.27,0,0,0,2-2.62,18,18,0,0,0,1.53-4,18.48,18.48,0,0,0,.62-4.72,20.32,20.32,0,0,0-.12-2.21q-.12-1.11-.12-1.38c0-.37.16-.55.47-.55a2.07,2.07,0,0,1,1.4.91,3.44,3.44,0,0,1,.8,2.34,24,24,0,0,1-1.19,7.62,15,15,0,0,1-3.2,5.69,5.84,5.84,0,0,1-4.27,2.13,3.57,3.57,0,0,1-2.89-1.61,5.93,5.93,0,0,1-1.23-3.7,30.81,30.81,0,0,1,1.11-6.56,31,31,0,0,0,1.1-6A1.26,1.26,0,0,1,106.14,158.8Z"/><path d="M124.9,166.22q1.59-2.1,2.61-2.1a2.56,2.56,0,0,1,1.93,1.08,3.5,3.5,0,0,1,.91,2.3,15.94,15.94,0,0,1-.87,4.65q-1.59,5.06-2.85,5.06c-.39,0-.58-.26-.58-.79a9.16,9.16,0,0,1,.56-2.26c.38-1.13.73-2.25,1.06-3.35a9.47,9.47,0,0,0,.49-2.48,2.46,2.46,0,0,0-.25-1.23c-.17-.26-.34-.39-.5-.39a1,1,0,0,0-.52.16,2.6,2.6,0,0,0-.59.52c-.22.25-.43.49-.62.73a11.94,11.94,0,0,0-.73,1l-.73,1.12-.84,1.33c-.37.58-.65,1-.85,1.32l-.76,1.22-.75,1.18-.62.93c-.44.65-.79,1-1.05,1s-.55-.19-.88-.59a1.7,1.7,0,0,1-.5-1,3.78,3.78,0,0,1,.18-.72q.51-1.53,1.11-3.78a20.89,20.89,0,0,0,.66-5.14c0-1.28.24-1.93.56-1.93a1.69,1.69,0,0,1,1.16.61,1.93,1.93,0,0,1,.58,1.33,17,17,0,0,1-.44,2.8c-.29,1.38-.63,2.67-1,3.87A68.42,68.42,0,0,1,124.9,166.22Z"/><path d="M143.55,156.73c.28,0,.63.26,1,.78a2.35,2.35,0,0,1,.62,1.46,30.35,30.35,0,0,1-.66,3.9c-.44,2.13-1,4.35-1.53,6.63-1.27,5.14-2.1,7.71-2.51,7.71a1.18,1.18,0,0,1-.8-.46,1.29,1.29,0,0,1-.44-.8,9.17,9.17,0,0,1,.19-1.38c-1.73,1.76-3.23,2.64-4.52,2.64a2.79,2.79,0,0,1-2.1-1.05,3.32,3.32,0,0,1-.93-2.19,11,11,0,0,1,.88-3.9,13.41,13.41,0,0,1,2.55-4.1,4.79,4.79,0,0,1,3.54-1.85c1.25,0,2.12.75,2.61,2.24a48.75,48.75,0,0,0,1.48-8.84C143,157,143.16,156.73,143.55,156.73Zm-2.9,13a5.4,5.4,0,0,0-.49-2.4c-.33-.65-.72-1-1.18-1a3.24,3.24,0,0,0-2.32,1.4,11.15,11.15,0,0,0-1.89,3.21,9,9,0,0,0-.7,3.13,1,1,0,0,0,.34.76,1.26,1.26,0,0,0,.82.29,5,5,0,0,0,2.79-1.48,8.65,8.65,0,0,0,2.55-3.48l.08-.32Z"/><path d="M156,168.49a2.63,2.63,0,0,1-1.52,2.3,6.69,6.69,0,0,1-3.43.88,13.25,13.25,0,0,1-3.47-.42,6.77,6.77,0,0,0-.37,2.07,1.76,1.76,0,0,0,.56,1.41,2.8,2.8,0,0,0,1.88.5,8.4,8.4,0,0,0,2.69-.46,12.34,12.34,0,0,1,1.52-.46c.46,0,.68.18.68.53s-.53,1-1.61,1.54a6.74,6.74,0,0,1-3.14.83A4.7,4.7,0,0,1,146.4,176a4.12,4.12,0,0,1-1.29-3.11,8.93,8.93,0,0,1,1-3.92,10.94,10.94,0,0,1,2.59-3.44,4.79,4.79,0,0,1,3.14-1.4,3.72,3.72,0,0,1,2.84,1.48A4.49,4.49,0,0,1,156,168.49Zm-4-2.29a3,3,0,0,0-2,1,9,9,0,0,0-1.8,2.52,11,11,0,0,0,2.41.24,5.81,5.81,0,0,0,2.34-.44c.67-.29,1-.67,1-1.14a2.27,2.27,0,0,0-.65-1.46A1.79,1.79,0,0,0,152,166.2Z"/><path d="M158.89,167.34l-.08-2c0-.83.19-1.24.58-1.24a1.24,1.24,0,0,1,1,.65,2.54,2.54,0,0,1,.46,1.53,11.31,11.31,0,0,1-.05,1.33q2.3-3.48,4.36-3.48,1.29,0,1.29.63a.8.8,0,0,1-.29.58,4.67,4.67,0,0,1-.92.61,5.86,5.86,0,0,0-2.37,1.86,11.28,11.28,0,0,0-1.57,2.84c-.4,1.05-.72,1.94-1,2.66s-.42,1.29-.54,1.69-.27.8-.42,1.19c-.29.7-.61,1.06-1,1.06a.83.83,0,0,1-.73-.52,2.15,2.15,0,0,1-.27-1,8.74,8.74,0,0,1,.44-1.94A20.62,20.62,0,0,0,158.89,167.34Z"/><path d="M175.15,164.12a1.39,1.39,0,0,1,.87.33.93.93,0,0,1,.42.73,23.08,23.08,0,0,1-1.91,4.93c-1.28,2.82-2.18,4.71-2.72,5.69s-1,1.47-1.41,1.47a1.41,1.41,0,0,1-.85-.5,3.46,3.46,0,0,1-.74-1.09,33.89,33.89,0,0,1-1.53-5.36,28.58,28.58,0,0,1-.82-5.41c0-.53.16-.79.48-.79a1.9,1.9,0,0,1,1.19.49,2.52,2.52,0,0,1,.84,1.23c.06.28.13,1,.21,2.11a23.62,23.62,0,0,0,1.27,6.41c.48-1,1.08-2.47,1.82-4.34s1.34-3.33,1.81-4.36S174.9,164.12,175.15,164.12Z"/><path d="M180.43,164.12a1.23,1.23,0,0,1,.95.61,2,2,0,0,1,.45,1.18,22.71,22.71,0,0,1-.77,3.48q-.76,2.88-1.92,6.48-.45,1.32-1.14,1.32a.78.78,0,0,1-.63-.31,1,1,0,0,1-.27-.68,6.17,6.17,0,0,1,.2-1.22c.13-.55.33-1.29.58-2.21s.46-1.68.61-2.26.3-1.24.46-2,.29-1.32.38-1.77.21-.9.33-1.36C179.91,164.55,180.17,164.12,180.43,164.12Zm.13-3.75a1.48,1.48,0,0,1,.42-1,1.19,1.19,0,0,1,.86-.48c.29,0,.64.36,1,1.07a3.79,3.79,0,0,1,.61,1.78.63.63,0,0,1-.24.48.72.72,0,0,1-.5.21,2.18,2.18,0,0,1-1.41-.77A2.08,2.08,0,0,1,180.56,160.37Z"/><path d="M191,164.12a2.22,2.22,0,0,1,1.69,1,3,3,0,0,1,.79,1.73q0,.45-.42.45a1.87,1.87,0,0,1-.9-.46,2,2,0,0,0-1.24-.47,5,5,0,0,0-2,.74c-.9.5-1.36,1-1.36,1.56s.81,1.1,2.43,2.09a6.72,6.72,0,0,1,1.68,1.49,3,3,0,0,1,.75,1.95c0,.7-.48,1.37-1.44,2a5.75,5.75,0,0,1-3.35,1,6.16,6.16,0,0,1-3.38-.92c-1-.62-1.46-1.2-1.46-1.74A.76.76,0,0,1,183,174a.52.52,0,0,1,.43-.2,1.4,1.4,0,0,1,.74.34,5,5,0,0,0,3,1,5.07,5.07,0,0,0,2.23-.36,1.06,1.06,0,0,0,.69-.95,1.83,1.83,0,0,0-.77-1.26,10.57,10.57,0,0,0-1.67-1.2,8.4,8.4,0,0,1-1.68-1.3,2.22,2.22,0,0,1-.76-1.56c0-.93.73-1.9,2.2-2.91A7,7,0,0,1,191,164.12Z"/><path d="M203.93,165.32a3,3,0,0,1,.34,4.13,1.23,1.23,0,0,1,.32.69,16.26,16.26,0,0,1-.33,2.53c-.22,1.2-.36,2-.4,2.35s-.08.67-.12.89-.08.43-.13.64q-.11.66-.48.66c-.31,0-.57-.27-.77-.83a6.8,6.8,0,0,1-.36-2.15q-2.35,3-4.36,3a3.59,3.59,0,0,1-2.39-1,2.92,2.92,0,0,1-1.17-2.15,9.3,9.3,0,0,1,1.16-3.92,15.47,15.47,0,0,1,3-4.16,5.21,5.21,0,0,1,3.48-1.82A2.87,2.87,0,0,1,203.93,165.32Zm-1,3.45c0-1.64-.33-2.46-1-2.46a3.7,3.7,0,0,0-2.4,1.47,14.15,14.15,0,0,0-2.32,3.31,6.9,6.9,0,0,0-.95,2.93.87.87,0,0,0,.37.73,1.41,1.41,0,0,0,.87.27,4.25,4.25,0,0,0,2.8-1.67,9.23,9.23,0,0,0,2.16-4.08.55.55,0,0,1,.45-.48Z"/></svg>