<svg xmlns="http://www.w3.org/2000/svg" viewBox="0 0 227 286" id="el_LAs6jj45u"><style>@-webkit-keyframes kf_el_2Mb6K6cSAv_an_k_gEEpvz6{0%{-webkit-transform: translate(159.27000427246094px, 113.1399917602539px) translate(-159.27000427246094px, -113.1399917602539px) translate(0px, 0px);transform: translate(159.27000427246094px, 113.1399917602539px) translate(-159.27000427246094px, -113.1399917602539px) translate(0px, 0px);}100%{-webkit-transform: translate(159.27000427246094px, 113.1399917602539px) translate(-159.27000427246094px, -113.1399917602539px) translate(18px, 8px);transform: translate(159.27000427246094px, 113.1399917602539px) translate(-159.27000427246094px, -113.1399917602539px) translate(18px, 8px);}}@keyframes kf_el_2Mb6K6cSAv_an_k_gEEpvz6{0%{-webkit-transform: translate(159.27000427246094px, 113.1399917602539px) translate(-159.27000427246094px, -113.1399917602539px) translate(0px, 0px);transform: translate(159.27000427246094px, 113.1399917602539px) translate(-159.27000427246094px, -113.1399917602539px) translate(0px, 0px);}100%{-webkit-transform: translate(159.27000427246094px, 113.1399917602539px) translate(-159.27000427246094px, -113.1399917602539px) translate(18px, 8px);transform: translate(159.27000427246094px, 113.1399917602539px) translate(-159.27000427246094px, -113.1399917602539px) translate(18px, 8px);}}@-webkit-keyframes kf_el_2Mb6K6cSAv_an_qQ2HHmnN4{0%{-webkit-transform: translate(159.27000427246094px, 113.1399917602539px) rotate(0deg) translate(-159.27000427246094px, -113.1399917602539px);transform: translate(159.27000427246094px, 113.1399917602539px) rotate(0deg) translate(-159.27000427246094px, -113.1399917602539px);}100%{-webkit-transform: translate(159.27000427246094px, 113.1399917602539px) rotate(40deg) translate(-159.27000427246094px, -113.1399917602539px);transform: translate(159.27000427246094px, 113.1399917602539px) rotate(40deg) translate(-159.27000427246094px, -113.1399917602539px);}}@keyframes kf_el_2Mb6K6cSAv_an_qQ2HHmnN4{0%{-webkit-transform: translate(159.27000427246094px, 113.1399917602539px) rotate(0deg) translate(-159.27000427246094px, -113.1399917602539px);transform: translate(159.27000427246094px, 113.1399917602539px) rotate(0deg) translate(-159.27000427246094px, -113.1399917602539px);}100%{-webkit-transform: translate(159.27000427246094px, 113.1399917602539px) rotate(40deg) translate(-159.27000427246094px, -113.1399917602539px);transform: translate(159.27000427246094px, 113.1399917602539px) rotate(40deg) translate(-159.27000427246094px, -113.1399917602539px);}}@-webkit-keyframes kf_el_QwEBJW_pLoR_an_6Z_mu3HIV{0%{-webkit-transform: translate(57.19248962402344px, 112.37998962402344px) translate(-57.19248962402344px, -112.37998962402344px) translate(0px, 8px);transform: translate(57.19248962402344px, 112.37998962402344px) translate(-57.19248962402344px, -112.37998962402344px) translate(0px, 8px);}100%{-webkit-transform: translate(57.19248962402344px, 112.37998962402344px) translate(-57.19248962402344px, -112.37998962402344px) translate(-18px, 8px);transform: translate(57.19248962402344px, 112.37998962402344px) translate(-57.19248962402344px, -112.37998962402344px) translate(-18px, 8px);}}@keyframes kf_el_QwEBJW_pLoR_an_6Z_mu3HIV{0%{-webkit-transform: translate(57.19248962402344px, 112.37998962402344px) translate(-57.19248962402344px, -112.37998962402344px) translate(0px, 8px);transform: translate(57.19248962402344px, 112.37998962402344px) translate(-57.19248962402344px, -112.37998962402344px) translate(0px, 8px);}100%{-webkit-transform: translate(57.19248962402344px, 112.37998962402344px) translate(-57.19248962402344px, -112.37998962402344px) translate(-18px, 8px);transform: translate(57.19248962402344px, 112.37998962402344px) translate(-57.19248962402344px, -112.37998962402344px) translate(-18px, 8px);}}@-webkit-keyframes kf_el_QwEBJW_pLoR_an_LQ31vGZg_{0%{-webkit-transform: translate(57.19248962402344px, 112.37998962402344px) rotate(0deg) translate(-57.19248962402344px, -112.37998962402344px);transform: translate(57.19248962402344px, 112.37998962402344px) rotate(0deg) translate(-57.19248962402344px, -112.37998962402344px);}100%{-webkit-transform: translate(57.19248962402344px, 112.37998962402344px) rotate(-40deg) translate(-57.19248962402344px, -112.37998962402344px);transform: translate(57.19248962402344px, 112.37998962402344px) rotate(-40deg) translate(-57.19248962402344px, -112.37998962402344px);}}@keyframes kf_el_QwEBJW_pLoR_an_LQ31vGZg_{0%{-webkit-transform: translate(57.19248962402344px, 112.37998962402344px) rotate(0deg) translate(-57.19248962402344px, -112.37998962402344px);transform: translate(57.19248962402344px, 112.37998962402344px) rotate(0deg) translate(-57.19248962402344px, -112.37998962402344px);}100%{-webkit-transform: translate(57.19248962402344px, 112.37998962402344px) rotate(-40deg) translate(-57.19248962402344px, -112.37998962402344px);transform: translate(57.19248962402344px, 112.37998962402344px) rotate(-40deg) translate(-57.19248962402344px, -112.37998962402344px);}}@-webkit-keyframes kf_el_PD6lxIBwtk_an_Gk3gevnLB{0%{-webkit-transform: translate(157.65736389160156px, 95.5521011352539px) translate(-157.65736389160156px, -95.5521011352539px) translate(0px, 0px);transform: translate(157.65736389160156px, 95.5521011352539px) translate(-157.65736389160156px, -95.5521011352539px) translate(0px, 0px);}100%{-webkit-transform: translate(157.65736389160156px, 95.5521011352539px) translate(-157.65736389160156px, -95.5521011352539px) translate(30px, 10px);transform: translate(157.65736389160156px, 95.5521011352539px) translate(-157.65736389160156px, -95.5521011352539px) translate(30px, 10px);}}@keyframes kf_el_PD6lxIBwtk_an_Gk3gevnLB{0%{-webkit-transform: translate(157.65736389160156px, 95.5521011352539px) translate(-157.65736389160156px, -95.5521011352539px) translate(0px, 0px);transform: translate(157.65736389160156px, 95.5521011352539px) translate(-157.65736389160156px, -95.5521011352539px) translate(0px, 0px);}100%{-webkit-transform: translate(157.65736389160156px, 95.5521011352539px) translate(-157.65736389160156px, -95.5521011352539px) translate(30px, 10px);transform: translate(157.65736389160156px, 95.5521011352539px) translate(-157.65736389160156px, -95.5521011352539px) translate(30px, 10px);}}@-webkit-keyframes kf_el_PD6lxIBwtk_an_vi6jsDdX-{0%{-webkit-transform: translate(157.65736389160156px, 95.5521011352539px) rotate(0deg) translate(-157.65736389160156px, -95.5521011352539px);transform: translate(157.65736389160156px, 95.5521011352539px) rotate(0deg) translate(-157.65736389160156px, -95.5521011352539px);}100%{-webkit-transform: translate(157.65736389160156px, 95.5521011352539px) rotate(40deg) translate(-157.65736389160156px, -95.5521011352539px);transform: translate(157.65736389160156px, 95.5521011352539px) rotate(40deg) translate(-157.65736389160156px, -95.5521011352539px);}}@keyframes kf_el_PD6lxIBwtk_an_vi6jsDdX-{0%{-webkit-transform: translate(157.65736389160156px, 95.5521011352539px) rotate(0deg) translate(-157.65736389160156px, -95.5521011352539px);transform: translate(157.65736389160156px, 95.5521011352539px) rotate(0deg) translate(-157.65736389160156px, -95.5521011352539px);}100%{-webkit-transform: translate(157.65736389160156px, 95.5521011352539px) rotate(40deg) translate(-157.65736389160156px, -95.5521011352539px);transform: translate(157.65736389160156px, 95.5521011352539px) rotate(40deg) translate(-157.65736389160156px, -95.5521011352539px);}}@-webkit-keyframes kf_el_tUhoUzWEYW_an_5Cy2Spgkz{0%{-webkit-transform: translate(160.55816650390625px, 139.42010498046875px) rotate(0deg) translate(-160.55816650390625px, -139.42010498046875px);transform: translate(160.55816650390625px, 139.42010498046875px) rotate(0deg) translate(-160.55816650390625px, -139.42010498046875px);}100%{-webkit-transform: translate(160.55816650390625px, 139.42010498046875px) rotate(40deg) translate(-160.55816650390625px, -139.42010498046875px);transform: translate(160.55816650390625px, 139.42010498046875px) rotate(40deg) translate(-160.55816650390625px, -139.42010498046875px);}}@keyframes kf_el_tUhoUzWEYW_an_5Cy2Spgkz{0%{-webkit-transform: translate(160.55816650390625px, 139.42010498046875px) rotate(0deg) translate(-160.55816650390625px, -139.42010498046875px);transform: translate(160.55816650390625px, 139.42010498046875px) rotate(0deg) translate(-160.55816650390625px, -139.42010498046875px);}100%{-webkit-transform: translate(160.55816650390625px, 139.42010498046875px) rotate(40deg) translate(-160.55816650390625px, -139.42010498046875px);transform: translate(160.55816650390625px, 139.42010498046875px) rotate(40deg) translate(-160.55816650390625px, -139.42010498046875px);}}@-webkit-keyframes kf_el_KOV_GTvwWXr_an_d-RU7TE5T{0%{-webkit-transform: translate(61.65192413330078px, 108.0000228881836px) translate(-61.65192413330078px, -108.0000228881836px) translate(0px, 0px);transform: translate(61.65192413330078px, 108.0000228881836px) translate(-61.65192413330078px, -108.0000228881836px) translate(0px, 0px);}100%{-webkit-transform: translate(61.65192413330078px, 108.0000228881836px) translate(-61.65192413330078px, -108.0000228881836px) translate(-20px, 10px);transform: translate(61.65192413330078px, 108.0000228881836px) translate(-61.65192413330078px, -108.0000228881836px) translate(-20px, 10px);}}@keyframes kf_el_KOV_GTvwWXr_an_d-RU7TE5T{0%{-webkit-transform: translate(61.65192413330078px, 108.0000228881836px) translate(-61.65192413330078px, -108.0000228881836px) translate(0px, 0px);transform: translate(61.65192413330078px, 108.0000228881836px) translate(-61.65192413330078px, -108.0000228881836px) translate(0px, 0px);}100%{-webkit-transform: translate(61.65192413330078px, 108.0000228881836px) translate(-61.65192413330078px, -108.0000228881836px) translate(-20px, 10px);transform: translate(61.65192413330078px, 108.0000228881836px) translate(-61.65192413330078px, -108.0000228881836px) translate(-20px, 10px);}}@-webkit-keyframes kf_el_KOV_GTvwWXr_an_QtoSUURtC{0%{-webkit-transform: translate(61.65192413330078px, 108.0000228881836px) rotate(0deg) translate(-61.65192413330078px, -108.0000228881836px);transform: translate(61.65192413330078px, 108.0000228881836px) rotate(0deg) translate(-61.65192413330078px, -108.0000228881836px);}100%{-webkit-transform: translate(61.65192413330078px, 108.0000228881836px) rotate(-40deg) translate(-61.65192413330078px, -108.0000228881836px);transform: translate(61.65192413330078px, 108.0000228881836px) rotate(-40deg) translate(-61.65192413330078px, -108.0000228881836px);}}@keyframes kf_el_KOV_GTvwWXr_an_QtoSUURtC{0%{-webkit-transform: translate(61.65192413330078px, 108.0000228881836px) rotate(0deg) translate(-61.65192413330078px, -108.0000228881836px);transform: translate(61.65192413330078px, 108.0000228881836px) rotate(0deg) translate(-61.65192413330078px, -108.0000228881836px);}100%{-webkit-transform: translate(61.65192413330078px, 108.0000228881836px) rotate(-40deg) translate(-61.65192413330078px, -108.0000228881836px);transform: translate(61.65192413330078px, 108.0000228881836px) rotate(-40deg) translate(-61.65192413330078px, -108.0000228881836px);}}@-webkit-keyframes kf_el_GQY0hotTJkv_an_OalHSMGI-{0%{-webkit-transform: translate(67.5042610168457px, 139.42030334472656px) rotate(0deg) translate(-67.5042610168457px, -139.42030334472656px);transform: translate(67.5042610168457px, 139.42030334472656px) rotate(0deg) translate(-67.5042610168457px, -139.42030334472656px);}100%{-webkit-transform: translate(67.5042610168457px, 139.42030334472656px) rotate(-40deg) translate(-67.5042610168457px, -139.42030334472656px);transform: translate(67.5042610168457px, 139.42030334472656px) rotate(-40deg) translate(-67.5042610168457px, -139.42030334472656px);}}@keyframes kf_el_GQY0hotTJkv_an_OalHSMGI-{0%{-webkit-transform: translate(67.5042610168457px, 139.42030334472656px) rotate(0deg) translate(-67.5042610168457px, -139.42030334472656px);transform: translate(67.5042610168457px, 139.42030334472656px) rotate(0deg) translate(-67.5042610168457px, -139.42030334472656px);}100%{-webkit-transform: translate(67.5042610168457px, 139.42030334472656px) rotate(-40deg) translate(-67.5042610168457px, -139.42030334472656px);transform: translate(67.5042610168457px, 139.42030334472656px) rotate(-40deg) translate(-67.5042610168457px, -139.42030334472656px);}}#el_LAs6jj45u *{-webkit-animation-duration: 3s;animation-duration: 3s;-webkit-animation-iteration-count: infinite;animation-iteration-count: infinite;-webkit-animation-timing-function: cubic-bezier(0, 0, 1, 1);animation-timing-function: cubic-bezier(0, 0, 1, 1);}#el_ElCW9zju_l{isolation: isolate;}#el_PZo8UQ2sXy{fill: #ffefd4;}#el_B8hdww_eV5{fill: #003b57;}#el_N8tjZmFCYS{fill: #003b57;}#el_tUhoUzWEYW{fill: #003b57;}#el_PD6lxIBwtk{fill: #003b57;}#el_2Mb6K6cSAv{fill: #fff;}#el_DKHGi8kCVz{fill: #003b57;}#el_Ce_s43lVjT{fill: #fff;}#el_hVn5LqW1aJ{fill: #ffefd4;opacity: 0.5;mix-blend-mode: multiply;}#el_BlNGN4vFOe{fill: #003b57;}#el_5ZVhmJDuxK{fill: #003b57;}#el_uRG2VLlkyd{fill: #fff;}#el_m5OUcf42tK{fill: #66c0cc;}#el_vP4eTaWlzNB{fill: #003b57;}#el_S-b6QD6fy1K{fill: #fff;}#el_2hFecslrk2Z{fill: #fff;}#el_8Y4upSVpxyL{fill: #fff;opacity: 0.5;mix-blend-mode: soft-light;}#el_OOneQ0ZavdE{fill: #fff;-webkit-transform: translate(-0.5px, 0.54px) rotate(-0.28deg);transform: translate(-0.5px, 0.54px) rotate(-0.28deg);}#el_IV6AksemcR_{fill: #fff;-webkit-transform: translate(-0.52px, 0.61px) rotate(-0.29deg);transform: translate(-0.52px, 0.61px) rotate(-0.29deg);}#el_FQbcSRrdXok{fill: #fff;-webkit-transform: matrix(1,, 0,, 0,, 1,, -0.51,, 0.55);transform: matrix(1,, 0,, 0,, 1,, -0.51,, 0.55);}#el_AEoq8HePdN5{fill: #fff;-webkit-transform: translate(-0.51px, 0.57px) rotate(-0.28deg);transform: translate(-0.51px, 0.57px) rotate(-0.28deg);}#el_K_d_4C6wOds{fill: #fff;-webkit-transform: translate(-0.53px, 0.58px) rotate(-0.29deg);transform: translate(-0.53px, 0.58px) rotate(-0.29deg);}#el_6u1qGJijG6S{fill: #fff;mix-blend-mode: soft-light;}#el_GQY0hotTJkv{fill: #003b57;}#el_KOV_GTvwWXr{fill: #003b57;}#el_QwEBJW_pLoR{fill: #fff;}#el_dyoi5ppK_oZ{fill: #fff;}#el_Ut2NGvyfSr5{fill: #003b57;}#el_qeWLhF0bjD3{fill: #fff;}#el_wB4V1FqeVma{fill: #003b57;}#el_yL-JX6Kppwp{fill: #fff;-webkit-transform: translate(-28.78px, 29.82px) rotate(-13.24deg);transform: translate(-28.78px, 29.82px) rotate(-13.24deg);}#el_HdYNVa2bTHc{fill: #003b57;}#el_dlFq0dt2fSk{fill: #fff;opacity: 0.5;mix-blend-mode: soft-light;}#el_kKVcKVuFZDy{mix-blend-mode: multiply;fill: #37dde7;}#el_3EFETq9XKxD{fill: #003b57;}#el_RZ6_ywJopuU{fill: #003b57;}#el_7W1JEINqJAs{fill: #003b57;}#el_GQY0hotTJkv_an_Xupp7IcUp{-webkit-transform: translate(58.24549865722656px, 104.74378967285156px) translate(-58.24549865722656px, -104.74378967285156px) translate(0px, 0px);transform: translate(58.24549865722656px, 104.74378967285156px) translate(-58.24549865722656px, -104.74378967285156px) translate(0px, 0px);}#el_GQY0hotTJkv_an_rGTBKMOLr{-webkit-transform: translate(58.24549865722656px, 104.74378967285156px) rotate(50deg) translate(-58.24549865722656px, -104.74378967285156px);transform: translate(58.24549865722656px, 104.74378967285156px) rotate(50deg) translate(-58.24549865722656px, -104.74378967285156px);}#el_GQY0hotTJkv_an_eEPqQnUhi{-webkit-transform: translate(58.24549865722656px, 104.74378967285156px) rotate(-35950deg) translate(-58.24549865722656px, -104.74378967285156px);transform: translate(58.24549865722656px, 104.74378967285156px) rotate(-35950deg) translate(-58.24549865722656px, -104.74378967285156px);}#el_GQY0hotTJkv_an_OalHSMGI-{-webkit-animation-fill-mode: backwards;animation-fill-mode: backwards;-webkit-transform: translate(67.5042610168457px, 139.42030334472656px) rotate(0deg) translate(-67.5042610168457px, -139.42030334472656px);transform: translate(67.5042610168457px, 139.42030334472656px) rotate(0deg) translate(-67.5042610168457px, -139.42030334472656px);-webkit-animation-name: kf_el_GQY0hotTJkv_an_OalHSMGI-;animation-name: kf_el_GQY0hotTJkv_an_OalHSMGI-;-webkit-animation-timing-function: cubic-bezier(0, 0, 1, 1);animation-timing-function: cubic-bezier(0, 0, 1, 1);}#el_KOV_GTvwWXr_an_QtoSUURtC{-webkit-animation-fill-mode: backwards;animation-fill-mode: backwards;-webkit-transform: translate(61.65192413330078px, 108.0000228881836px) rotate(0deg) translate(-61.65192413330078px, -108.0000228881836px);transform: translate(61.65192413330078px, 108.0000228881836px) rotate(0deg) translate(-61.65192413330078px, -108.0000228881836px);-webkit-animation-name: kf_el_KOV_GTvwWXr_an_QtoSUURtC;animation-name: kf_el_KOV_GTvwWXr_an_QtoSUURtC;-webkit-animation-timing-function: cubic-bezier(0, 0, 1, 1);animation-timing-function: cubic-bezier(0, 0, 1, 1);}#el_KOV_GTvwWXr_an_d-RU7TE5T{-webkit-animation-fill-mode: backwards;animation-fill-mode: backwards;-webkit-transform: translate(61.65192413330078px, 108.0000228881836px) translate(-61.65192413330078px, -108.0000228881836px) translate(0px, 0px);transform: translate(61.65192413330078px, 108.0000228881836px) translate(-61.65192413330078px, -108.0000228881836px) translate(0px, 0px);-webkit-animation-name: kf_el_KOV_GTvwWXr_an_d-RU7TE5T;animation-name: kf_el_KOV_GTvwWXr_an_d-RU7TE5T;-webkit-animation-timing-function: cubic-bezier(0, 0, 1, 1);animation-timing-function: cubic-bezier(0, 0, 1, 1);}#el_tUhoUzWEYW_an_5Cy2Spgkz{-webkit-animation-fill-mode: backwards;animation-fill-mode: backwards;-webkit-transform: translate(160.55816650390625px, 139.42010498046875px) rotate(0deg) translate(-160.55816650390625px, -139.42010498046875px);transform: translate(160.55816650390625px, 139.42010498046875px) rotate(0deg) translate(-160.55816650390625px, -139.42010498046875px);-webkit-animation-name: kf_el_tUhoUzWEYW_an_5Cy2Spgkz;animation-name: kf_el_tUhoUzWEYW_an_5Cy2Spgkz;-webkit-animation-timing-function: cubic-bezier(0, 0, 1, 1);animation-timing-function: cubic-bezier(0, 0, 1, 1);}#el_PD6lxIBwtk_an_vi6jsDdX-{-webkit-animation-fill-mode: backwards;animation-fill-mode: backwards;-webkit-transform: translate(157.65736389160156px, 95.5521011352539px) rotate(0deg) translate(-157.65736389160156px, -95.5521011352539px);transform: translate(157.65736389160156px, 95.5521011352539px) rotate(0deg) translate(-157.65736389160156px, -95.5521011352539px);-webkit-animation-name: kf_el_PD6lxIBwtk_an_vi6jsDdX-;animation-name: kf_el_PD6lxIBwtk_an_vi6jsDdX-;-webkit-animation-timing-function: cubic-bezier(0, 0, 1, 1);animation-timing-function: cubic-bezier(0, 0, 1, 1);}#el_PD6lxIBwtk_an_Gk3gevnLB{-webkit-animation-fill-mode: backwards;animation-fill-mode: backwards;-webkit-transform: translate(157.65736389160156px, 95.5521011352539px) translate(-157.65736389160156px, -95.5521011352539px) translate(0px, 0px);transform: translate(157.65736389160156px, 95.5521011352539px) translate(-157.65736389160156px, -95.5521011352539px) translate(0px, 0px);-webkit-animation-name: kf_el_PD6lxIBwtk_an_Gk3gevnLB;animation-name: kf_el_PD6lxIBwtk_an_Gk3gevnLB;-webkit-animation-timing-function: cubic-bezier(0, 0, 1, 1);animation-timing-function: cubic-bezier(0, 0, 1, 1);}#el_QwEBJW_pLoR_an_LQ31vGZg_{-webkit-animation-fill-mode: backwards;animation-fill-mode: backwards;-webkit-transform: translate(57.19248962402344px, 112.37998962402344px) rotate(0deg) translate(-57.19248962402344px, -112.37998962402344px);transform: translate(57.19248962402344px, 112.37998962402344px) rotate(0deg) translate(-57.19248962402344px, -112.37998962402344px);-webkit-animation-name: kf_el_QwEBJW_pLoR_an_LQ31vGZg_;animation-name: kf_el_QwEBJW_pLoR_an_LQ31vGZg_;-webkit-animation-timing-function: cubic-bezier(0, 0, 1, 1);animation-timing-function: cubic-bezier(0, 0, 1, 1);}#el_QwEBJW_pLoR_an_6Z_mu3HIV{-webkit-animation-fill-mode: backwards;animation-fill-mode: backwards;-webkit-transform: translate(57.19248962402344px, 112.37998962402344px) translate(-57.19248962402344px, -112.37998962402344px) translate(0px, 8px);transform: translate(57.19248962402344px, 112.37998962402344px) translate(-57.19248962402344px, -112.37998962402344px) translate(0px, 8px);-webkit-animation-name: kf_el_QwEBJW_pLoR_an_6Z_mu3HIV;animation-name: kf_el_QwEBJW_pLoR_an_6Z_mu3HIV;-webkit-animation-timing-function: cubic-bezier(0, 0, 1, 1);animation-timing-function: cubic-bezier(0, 0, 1, 1);}#el_2Mb6K6cSAv_an_qQ2HHmnN4{-webkit-animation-fill-mode: backwards;animation-fill-mode: backwards;-webkit-transform: translate(159.27000427246094px, 113.1399917602539px) rotate(0deg) translate(-159.27000427246094px, -113.1399917602539px);transform: translate(159.27000427246094px, 113.1399917602539px) rotate(0deg) translate(-159.27000427246094px, -113.1399917602539px);-webkit-animation-name: kf_el_2Mb6K6cSAv_an_qQ2HHmnN4;animation-name: kf_el_2Mb6K6cSAv_an_qQ2HHmnN4;-webkit-animation-timing-function: cubic-bezier(0, 0, 1, 1);animation-timing-function: cubic-bezier(0, 0, 1, 1);}#el_2Mb6K6cSAv_an_k_gEEpvz6{-webkit-animation-fill-mode: backwards;animation-fill-mode: backwards;-webkit-transform: translate(159.27000427246094px, 113.1399917602539px) translate(-159.27000427246094px, -113.1399917602539px) translate(0px, 0px);transform: translate(159.27000427246094px, 113.1399917602539px) translate(-159.27000427246094px, -113.1399917602539px) translate(0px, 0px);-webkit-animation-name: kf_el_2Mb6K6cSAv_an_k_gEEpvz6;animation-name: kf_el_2Mb6K6cSAv_an_k_gEEpvz6;-webkit-animation-timing-function: cubic-bezier(0, 0, 1, 1);animation-timing-function: cubic-bezier(0, 0, 1, 1);}</style><defs/><title>Robot</title><g id="el_ElCW9zju_l"><g id="el_IcRZiBsIAQ"><path d="M140.13,186.61c0-5.35-11.67-9.68-26.06-9.68S88,181.26,88,186.61c5.66,5.37,11.67,9.67,26.07,9.67S137.19,190.38,140.13,186.61Z" id="el_PZo8UQ2sXy"/><path d="M92.11,140c.53,9.13-3.76,16.8-9.58,17.13s-11-6.79-11.49-15.91,3.77-16.8,9.58-17.14S91.58,130.86,92.11,140Z" id="el_B8hdww_eV5"/><path d="M136,140c-.53,9.13,3.77,16.8,9.58,17.13s11-6.79,11.49-15.91-3.76-16.8-9.58-17.14S136.55,130.86,136,140Z" id="el_N8tjZmFCYS"/><g id="el_tUhoUzWEYW_an_5Cy2Spgkz" data-animator-group="true" data-animator-type="1"><path d="M153.3,139.42a1.93,1.93,0,0,1-1-3.59c.61-.37,14.5-9,13.54-29.22a1.94,1.94,0,1,1,3.87-.18c1.07,22.61-14.75,32.32-15.42,32.72A1.87,1.87,0,0,1,153.3,139.42Z" id="el_tUhoUzWEYW"/></g><g id="el_PD6lxIBwtk_an_Gk3gevnLB" data-animator-group="true" data-animator-type="0"><g id="el_PD6lxIBwtk_an_vi6jsDdX-" data-animator-group="true" data-animator-type="1"><path d="M166.28,108a8.86,8.86,0,0,1-8.59-6.72,1.94,1.94,0,0,1,3.76-.93,5,5,0,0,0,9.66-2.39,1.93,1.93,0,1,1,3.75-.94,8.84,8.84,0,0,1-8.58,11Z" id="el_PD6lxIBwtk"/></g></g><g id="el_2Mb6K6cSAv_an_k_gEEpvz6" data-animator-group="true" data-animator-type="0"><g id="el_2Mb6K6cSAv_an_qQ2HHmnN4" data-animator-group="true" data-animator-type="1"><path d="M159.27,123.63l7.61,6.86s4.25-7.39,4.06-14.67l-6.76-2.68S161.82,120.28,159.27,123.63Z" id="el_2Mb6K6cSAv"/></g></g><path d="M114.07,213.82c-8.26,0-17.34-10.36-24.9-28.42-6.35-15.17-10.79-33.9-10.79-45.57,0-9.86,3.32-16.65,10.16-20.77,5.69-3.43,14-5.1,25.53-5.1s19.83,1.67,25.53,5.1c6.83,4.12,10.15,10.91,10.15,20.77,0,11.67-4.43,30.4-10.78,45.57C131.4,203.46,122.32,213.82,114.07,213.82Z" id="el_DKHGi8kCVz"/><path d="M151.3,139.83c0-22.37-16.67-27.42-37.23-27.42s-37.24,5-37.24,27.42c0,8.81,2.58,22.37,7,35.59a76.61,76.61,0,0,0,22.33,5.32,7.51,7.51,0,0,1,15,0A75.76,75.76,0,0,0,144.48,175C148.78,161.91,151.3,148.54,151.3,139.83Z" id="el_Ce_s43lVjT"/><path d="M146.88,123.67c-6.29-8.85-18.62-11.26-32.81-11.26-10.4,0-19.8,1.3-26.55,5.47,6.45,8.88,18.55,14.87,32.42,14.87C130.52,132.75,140.07,129.26,146.88,123.67Z" id="el_hVn5LqW1aJ"/><path d="M83.08,94c-.11,5.9-1.83,10.66-3.85,10.63S75.65,99.8,75.76,93.9s1.82-10.67,3.85-10.63S83.18,88.12,83.08,94Z" id="el_BlNGN4vFOe"/><path d="M146.1,95.14c-.1,5.91,1.45,10.73,3.47,10.76s3.75-4.72,3.85-10.63S152,84.54,150,84.51,146.2,89.23,146.1,95.14Z" id="el_5ZVhmJDuxK"/><path d="M152,95.24c-.29,16.35-17.26,29.32-37.9,29S76.91,110.27,77.2,93.92,94.46,64.61,115.11,65,152.26,78.89,152,95.24Z" id="el_uRG2VLlkyd"/><path d="M95.56,109.76A9.73,9.73,0,0,1,86,99.87l.21-11.58a9.73,9.73,0,0,1,9.89-9.55l37.5.66a9.74,9.74,0,0,1,9.55,9.9l-.2,11.57a9.73,9.73,0,0,1-9.89,9.55Z" id="el_m5OUcf42tK"/><path d="M141.77,89.27a8.33,8.33,0,0,0-8.18-8.48l-37.5-.66a8.33,8.33,0,0,0-8.48,8.19L87.4,99.89a8.34,8.34,0,0,0,8.19,8.48l37.5.67a8.34,8.34,0,0,0,8.48-8.19Z" id="el_vP4eTaWlzNB"/><path d="M103.83,94a3.36,3.36,0,1,0-3.36,3.35A3.35,3.35,0,0,0,103.83,94Z" id="el_S-b6QD6fy1K"/><path d="M132,94a3.35,3.35,0,1,0-3.35,3.35A3.35,3.35,0,0,0,132,94Z" id="el_2hFecslrk2Z"/><path d="M141.32,86.43l-15.25,22.48,4.78.09,10.86-16,.06-3.71A8.37,8.37,0,0,0,141.32,86.43Zm-5.85-5.38-18.78,27.7,7.74.13L140.65,85A8.3,8.3,0,0,0,135.47,81.05ZM87.7,102.24A8.37,8.37,0,0,0,90,106L107.4,80.33l-4.78-.08Zm8.39-22.11a8.07,8.07,0,0,0-3.31.63l-5.17,7.62L87.4,99.89c0,.11,0,.21,0,.32l13.56-20Z" id="el_8Y4upSVpxyL"/><rect x="107.79" y="100.12" width="2.49" height="2.49" id="el_OOneQ0ZavdE"/><rect x="117.74" y="100.07" width="2.49" height="2.49" id="el_IV6AksemcR_"/><rect x="110.29" y="102.59" width="2.49" height="2.49" id="el_FQbcSRrdXok"/><rect x="115.26" y="102.57" width="2.49" height="2.49" id="el_AEoq8HePdN5"/><rect x="112.78" y="102.58" width="2.49" height="2.49" id="el_K_d_4C6wOds"/><path d="M84.09,82.19a37.07,37.07,0,0,1,20.62-14.57c14.07-3.89,1.19,2.7-3.26,4.44S91.42,75.09,84.09,82.19Z" id="el_6u1qGJijG6S"/><g id="el_GQY0hotTJkv_an_OalHSMGI-" data-animator-group="true" data-animator-type="1"><path d="M74.83,139.42a1.86,1.86,0,0,1-1-.27c-.68-.4-16.53-10.05-15.54-32.66a1.94,1.94,0,0,1,3.87.16c-.89,20.33,13.49,29.09,13.64,29.17a1.93,1.93,0,0,1-1,3.6Z" id="el_GQY0hotTJkv"/></g><g id="el_KOV_GTvwWXr_an_d-RU7TE5T" data-animator-group="true" data-animator-type="0"><g id="el_KOV_GTvwWXr_an_QtoSUURtC" data-animator-group="true" data-animator-type="1"><path d="M61.73,108a8.85,8.85,0,0,1-7.58-4.25,8.79,8.79,0,0,1-1-6.7,1.94,1.94,0,1,1,3.76.92,5,5,0,0,0,9.66,2.36,1.94,1.94,0,1,1,3.76.92A8.84,8.84,0,0,1,61.73,108Z" id="el_KOV_GTvwWXr"/></g></g><g id="el_QwEBJW_pLoR_an_6Z_mu3HIV" data-animator-group="true" data-animator-type="0"><g id="el_QwEBJW_pLoR_an_LQ31vGZg_" data-animator-group="true" data-animator-type="1"><path d="M68.55,123.09l-7.91,6.51s-3.92-7.58-3.4-14.85l6.87-2.37S66.15,119.62,68.55,123.09Z" id="el_QwEBJW_pLoR"/></g></g><path d="M114.07,193.24A54.74,54.74,0,0,1,88,186.61c6.71,15.81,15.91,28.76,26.07,28.76s19.35-13,26.06-28.76A54.73,54.73,0,0,1,114.07,193.24Z" id="el_dyoi5ppK_oZ"/><path d="M119.49,188.87c0-4.3-2.78-7.79-6.2-7.79s-6.2,3.49-6.2,7.79,2.78,7.8,6.2,7.8S119.49,193.18,119.49,188.87Z" id="el_Ut2NGvyfSr5"/><path d="M116.94,185.54c0-3.87-1.64-7-3.65-7s-3.65,3.14-3.65,7,1.63,7,3.65,7S116.94,189.42,116.94,185.54Z" id="el_qeWLhF0bjD3"/><path d="M123,138.92a8.94,8.94,0,1,0-8.93,8.94A8.93,8.93,0,0,0,123,138.92Z" id="el_wB4V1FqeVma"/><circle cx="114.07" cy="138.92" r="7.5" id="el_yL-JX6Kppwp"/><path d="M120.67,138.92a6.61,6.61,0,1,0-6.6,6.61A6.61,6.61,0,0,0,120.67,138.92Z" id="el_HdYNVa2bTHc"/><path d="M112.48,140.35a6.59,6.59,0,0,0,6.46-5.3,6.22,6.22,0,0,0-11.08,3.39A6.52,6.52,0,0,0,112.48,140.35Z" id="el_dlFq0dt2fSk"/><path d="M140.13,230.63c0-2.78-12-5-26.73-5s-26.73,2.26-26.73,5,12,5,26.73,5S140.13,233.41,140.13,230.63Z" id="el_kKVcKVuFZDy"/><polygon points="84.14 64.36 86.97 62.09 80.78 49.63 74.56 54.05 84.14 64.36" id="el_3EFETq9XKxD"/><polygon points="82.42 69.2 83.14 65.65 67.36 53.75 65.39 61.13 82.42 69.2" id="el_RZ6_ywJopuU"/><polygon points="91.14 62.37 88.27 61.93 82.36 40.81 90.95 43.46 91.14 62.37" id="el_7W1JEINqJAs"/></g></g></svg>